{
	"asset":{
		"generator":"Khronos glTF Blender I/O v3.6.27",
		"version":"2.0"
	},
	"scene":0,
	"scenes":[
		{
			"name":"Scene",
			"nodes":[
				0
			]
		}
	],
	"nodes":[
		{
			"mesh":0,
			"name":"CoffeTablle_001"
		}
	],
	"materials":[
		{
			"doubleSided":true,
			"name":"CoffeTablle_001",
			"normalTexture":{
				"index":0
			},
			"pbrMetallicRoughness":{
				"baseColorTexture":{
					"index":1
				},
				"metallicRoughnessTexture":{
					"index":2
				}
			}
		}
	],
	"meshes":[
		{
			"name":"Cylinder.004",
			"primitives":[
				{
					"attributes":{
						"POSITION":0,
						"NORMAL":1,
						"TEXCOORD_0":2
					},
					"indices":3,
					"material":0
				}
			]
		}
	],
	"textures":[
		{
			"sampler":0,
			"source":0
		},
		{
			"sampler":0,
			"source":1
		},
		{
			"sampler":0,
			"source":2
		}
	],
	"images":[
		{
			"bufferView":4,
			"mimeType":"image/png",
			"name":"CoffeTablle_001_Normal"
		},
		{
			"bufferView":5,
			"mimeType":"image/png",
			"name":"CoffeTablle_001_Base_color"
		},
		{
			"bufferView":6,
			"mimeType":"image/png",
			"name":"CoffeTablle_001_Metallic-CoffeTablle_001_Roughness"
		}
	],
	"accessors":[
		{
			"bufferView":0,
			"componentType":5126,
			"count":3295,
			"max":[
				0.47265151143074036,
				0.29220908880233765,
				0.4780195355415344
			],
			"min":[
				-0.47265148162841797,
				0.006988584995269775,
				-0.47801947593688965
			],
			"type":"VEC3"
		},
		{
			"bufferView":1,
			"componentType":5126,
			"count":3295,
			"type":"VEC3"
		},
		{
			"bufferView":2,
			"componentType":5126,
			"count":3295,
			"type":"VEC2"
		},
		{
			"bufferView":3,
			"componentType":5123,
			"count":15744,
			"type":"SCALAR"
		}
	],
	"bufferViews":[
		{
			"buffer":0,
			"byteLength":39540,
			"byteOffset":0,
			"target":34962
		},
		{
			"buffer":0,
			"byteLength":39540,
			"byteOffset":39540,
			"target":34962
		},
		{
			"buffer":0,
			"byteLength":26360,
			"byteOffset":79080,
			"target":34962
		},
		{
			"buffer":0,
			"byteLength":31488,
			"byteOffset":105440,
			"target":34963
		},
		{
			"buffer":0,
			"byteLength":225739,
			"byteOffset":136928
		},
		{
			"buffer":0,
			"byteLength":46610,
			"byteOffset":362668
		},
		{
			"buffer":0,
			"byteLength":124735,
			"byteOffset":409280
		}
	],
	"samplers":[
		{
			"magFilter":9729,
			"minFilter":9987
		}
	],
	"buffers":[
		{
			"byteLength":534016,
			"uri":"data:application/octet-stream;base64,"
		}
	]
}
