{
	"asset":{
		"generator":"Khronos glTF Blender I/O v3.6.27",
		"version":"2.0"
	},
	"extensionsUsed":[
		"KHR_materials_specular",
		"KHR_materials_ior"
	],
	"scene":0,
	"scenes":[
		{
			"name":"Scene",
			"nodes":[
				0
			]
		}
	],
	"nodes":[
		{
			"mesh":0,
			"name":"Shelve_006"
		}
	],
	"materials":[
		{
			"doubleSided":true,
			"extensions":{
				"KHR_materials_specular":{
					"specularColorFactor":[
						2.371357614441398,
						2.371357614441398,
						2.371357614441398
					]
				},
				"KHR_materials_ior":{
					"ior":1.4500000476837158
				}
			},
			"name":"Shelve_006",
			"normalTexture":{
				"index":0
			},
			"pbrMetallicRoughness":{
				"baseColorTexture":{
					"index":1
				},
				"metallicRoughnessTexture":{
					"index":2
				}
			}
		}
	],
	"meshes":[
		{
			"name":"Mesh.001",
			"primitives":[
				{
					"attributes":{
						"POSITION":0,
						"NORMAL":1,
						"TEXCOORD_0":2
					},
					"indices":3,
					"material":0
				}
			]
		}
	],
	"textures":[
		{
			"sampler":0,
			"source":0
		},
		{
			"sampler":0,
			"source":1
		},
		{
			"sampler":0,
			"source":2
		}
	],
	"images":[
		{
			"bufferView":4,
			"mimeType":"image/png",
			"name":"Shelve_006_Shelve_006_Normal"
		},
		{
			"bufferView":5,
			"mimeType":"image/png",
			"name":"Shelve_006_Shelve_006_BaseColor"
		},
		{
			"bufferView":6,
			"mimeType":"image/png",
			"name":"Shelve_006_Shelve_006_Metallic-Shelve_006_Shelve_006_Roughness"
		}
	],
	"accessors":[
		{
			"bufferView":0,
			"componentType":5126,
			"count":1352,
			"max":[
				0.39252984523773193,
				2.0008254051208496,
				0.06272048503160477
			],
			"min":[
				-0.3925347626209259,
				-8.945405716076493e-05,
				-0.21617847681045532
			],
			"type":"VEC3"
		},
		{
			"bufferView":1,
			"componentType":5126,
			"count":1352,
			"type":"VEC3"
		},
		{
			"bufferView":2,
			"componentType":5126,
			"count":1352,
			"type":"VEC2"
		},
		{
			"bufferView":3,
			"componentType":5123,
			"count":5754,
			"type":"SCALAR"
		}
	],
	"bufferViews":[
		{
			"buffer":0,
			"byteLength":16224,
			"byteOffset":0,
			"target":34962
		},
		{
			"buffer":0,
			"byteLength":16224,
			"byteOffset":16224,
			"target":34962
		},
		{
			"buffer":0,
			"byteLength":10816,
			"byteOffset":32448,
			"target":34962
		},
		{
			"buffer":0,
			"byteLength":11508,
			"byteOffset":43264,
			"target":34963
		},
		{
			"buffer":0,
			"byteLength":311712,
			"byteOffset":54772
		},
		{
			"buffer":0,
			"byteLength":129170,
			"byteOffset":366484
		},
		{
			"buffer":0,
			"byteLength":59572,
			"byteOffset":495656
		}
	],
	"samplers":[
		{
			"magFilter":9729,
			"minFilter":9987
		}
	],
	"buffers":[
		{
			"byteLength":555228,
			"uri":"data:application/octet-stream;base64,"
		}
	]
}
