{
	"asset":{
		"generator":"Khronos glTF Blender I/O v3.6.27",
		"version":"2.0"
	},
	"extensionsUsed":[
		"KHR_materials_specular",
		"KHR_materials_ior"
	],
	"scene":0,
	"scenes":[
		{
			"name":"Scene",
			"nodes":[
				0
			]
		}
	],
	"nodes":[
		{
			"mesh":0,
			"name":"Sink_006",
			"rotation":[
				0.7071068286895752,
				0,
				0,
				0.7071068286895752
			],
			"scale":[
				0.011929790489375591,
				0.011929789558053017,
				0.010000037029385567
			]
		}
	],
	"materials":[
		{
			"doubleSided":true,
			"extensions":{
				"KHR_materials_specular":{
					"specularColorFactor":[
						2.371357614441398,
						2.371357614441398,
						2.371357614441398
					]
				},
				"KHR_materials_ior":{
					"ior":1.4500000476837158
				}
			},
			"name":"Sink_006",
			"pbrMetallicRoughness":{
				"baseColorTexture":{
					"index":0
				},
				"metallicRoughnessTexture":{
					"index":1
				}
			}
		}
	],
	"meshes":[
		{
			"name":"Mesh",
			"primitives":[
				{
					"attributes":{
						"POSITION":0,
						"NORMAL":1,
						"TEXCOORD_0":2
					},
					"indices":3,
					"material":0
				}
			]
		}
	],
	"textures":[
		{
			"sampler":0,
			"source":0
		},
		{
			"sampler":0,
			"source":1
		}
	],
	"images":[
		{
			"bufferView":4,
			"mimeType":"image/png",
			"name":"Sink_006_Base_color"
		},
		{
			"bufferView":5,
			"mimeType":"image/png",
			"name":"Sink_006_Metallic-Sink_006_Roughness"
		}
	],
	"accessors":[
		{
			"bufferView":0,
			"componentType":5126,
			"count":3242,
			"max":[
				19.698579788208008,
				19.69858169555664,
				-0.03874170780181885
			],
			"min":[
				-19.69858741760254,
				-19.698593139648438,
				-13.826292037963867
			],
			"type":"VEC3"
		},
		{
			"bufferView":1,
			"componentType":5126,
			"count":3242,
			"type":"VEC3"
		},
		{
			"bufferView":2,
			"componentType":5126,
			"count":3242,
			"type":"VEC2"
		},
		{
			"bufferView":3,
			"componentType":5123,
			"count":18120,
			"type":"SCALAR"
		}
	],
	"bufferViews":[
		{
			"buffer":0,
			"byteLength":38904,
			"byteOffset":0,
			"target":34962
		},
		{
			"buffer":0,
			"byteLength":38904,
			"byteOffset":38904,
			"target":34962
		},
		{
			"buffer":0,
			"byteLength":25936,
			"byteOffset":77808,
			"target":34962
		},
		{
			"buffer":0,
			"byteLength":36240,
			"byteOffset":103744,
			"target":34963
		},
		{
			"buffer":0,
			"byteLength":18461,
			"byteOffset":139984
		},
		{
			"buffer":0,
			"byteLength":61638,
			"byteOffset":158448
		}
	],
	"samplers":[
		{
			"magFilter":9729,
			"minFilter":9987
		}
	],
	"buffers":[
		{
			"byteLength":220088,
			"uri":"data:application/octet-stream;base64,"
		}
	]
}
