{
	"asset":{
		"generator":"Khronos glTF Blender I/O v3.6.27",
		"version":"2.0"
	},
	"scene":0,
	"scenes":[
		{
			"name":"Scene",
			"nodes":[
				0
			]
		}
	],
	"nodes":[
		{
			"mesh":0,
			"name":"Largelamp_002"
		}
	],
	"materials":[
		{
			"doubleSided":true,
			"name":"Largelamp_002",
			"normalTexture":{
				"index":0
			},
			"pbrMetallicRoughness":{
				"baseColorTexture":{
					"index":1
				},
				"metallicRoughnessTexture":{
					"index":2
				}
			}
		}
	],
	"meshes":[
		{
			"name":"Mesh",
			"primitives":[
				{
					"attributes":{
						"POSITION":0,
						"NORMAL":1,
						"TEXCOORD_0":2
					},
					"indices":3,
					"material":0
				}
			]
		}
	],
	"textures":[
		{
			"sampler":0,
			"source":0
		},
		{
			"sampler":0,
			"source":1
		},
		{
			"sampler":0,
			"source":2
		}
	],
	"images":[
		{
			"bufferView":4,
			"mimeType":"image/png",
			"name":"Largelamp_002_Normal"
		},
		{
			"bufferView":5,
			"mimeType":"image/png",
			"name":"Largelamp_002_Base_color"
		},
		{
			"bufferView":6,
			"mimeType":"image/png",
			"name":"Largelamp_002_Metallic-Largelamp_002_Roughness"
		}
	],
	"accessors":[
		{
			"bufferView":0,
			"componentType":5126,
			"count":4869,
			"max":[
				0.1379178911447525,
				1.5001945495605469,
				0.14031794667243958
			],
			"min":[
				-0.13791616261005402,
				-9.949745027881818e-09,
				-0.17354577779769897
			],
			"type":"VEC3"
		},
		{
			"bufferView":1,
			"componentType":5126,
			"count":4869,
			"type":"VEC3"
		},
		{
			"bufferView":2,
			"componentType":5126,
			"count":4869,
			"type":"VEC2"
		},
		{
			"bufferView":3,
			"componentType":5123,
			"count":22224,
			"type":"SCALAR"
		}
	],
	"bufferViews":[
		{
			"buffer":0,
			"byteLength":58428,
			"byteOffset":0,
			"target":34962
		},
		{
			"buffer":0,
			"byteLength":58428,
			"byteOffset":58428,
			"target":34962
		},
		{
			"buffer":0,
			"byteLength":38952,
			"byteOffset":116856,
			"target":34962
		},
		{
			"buffer":0,
			"byteLength":44448,
			"byteOffset":155808,
			"target":34963
		},
		{
			"buffer":0,
			"byteLength":43974,
			"byteOffset":200256
		},
		{
			"buffer":0,
			"byteLength":2449965,
			"byteOffset":244232
		},
		{
			"buffer":0,
			"byteLength":89363,
			"byteOffset":2694200
		}
	],
	"samplers":[
		{
			"magFilter":9729,
			"minFilter":9987
		}
	],
	"buffers":[
		{
			"byteLength":2783564,
			"uri":"data:application/octet-stream;base64,"
		}
	]
}
