{
	"asset":{
		"generator":"Khronos glTF Blender I/O v3.6.27",
		"version":"2.0"
	},
	"extensionsUsed":[
		"KHR_materials_specular",
		"KHR_materials_ior"
	],
	"scene":0,
	"scenes":[
		{
			"name":"Scene",
			"nodes":[
				0
			]
		}
	],
	"nodes":[
		{
			"mesh":0,
			"name":"Shower_enclosures_010",
			"rotation":[
				0,
				0.7071068286895752,
				-0.7071068286895752,
				5.338508302088485e-08
			],
			"scale":[
				0.009999999776482582,
				0.009999999776482582,
				0.009999999776482582
			],
			"translation":[
				0,
				0,
				-2.7179718017578125e-05
			]
		}
	],
	"materials":[
		{
			"alphaMode":"BLEND",
			"doubleSided":true,
			"name":"Glass",
			"normalTexture":{
				"index":0
			},
			"pbrMetallicRoughness":{
				"baseColorTexture":{
					"index":1
				},
				"metallicRoughnessTexture":{
					"index":2
				}
			}
		},
		{
			"alphaMode":"BLEND",
			"doubleSided":true,
			"extensions":{
				"KHR_materials_specular":{
					"specularColorFactor":[
						2.371357614441398,
						2.371357614441398,
						2.371357614441398
					]
				},
				"KHR_materials_ior":{
					"ior":1.4500000476837158
				}
			},
			"name":"Shower_enclosures_010",
			"pbrMetallicRoughness":{
				"baseColorTexture":{
					"index":3
				},
				"metallicRoughnessTexture":{
					"index":4
				}
			}
		}
	],
	"meshes":[
		{
			"name":"Mesh",
			"primitives":[
				{
					"attributes":{
						"POSITION":0,
						"NORMAL":1,
						"TEXCOORD_0":2
					},
					"indices":3,
					"material":0
				},
				{
					"attributes":{
						"POSITION":4,
						"NORMAL":5,
						"TEXCOORD_0":6
					},
					"indices":7,
					"material":1
				}
			]
		}
	],
	"textures":[
		{
			"sampler":0,
			"source":0
		},
		{
			"sampler":0,
			"source":1
		},
		{
			"sampler":0,
			"source":2
		},
		{
			"sampler":0,
			"source":3
		},
		{
			"sampler":0,
			"source":4
		}
	],
	"images":[
		{
			"bufferView":4,
			"mimeType":"image/png",
			"name":"Glass_Normal"
		},
		{
			"bufferView":5,
			"mimeType":"image/png",
			"name":"Glass_Base_color-Glass_Opacity"
		},
		{
			"bufferView":6,
			"mimeType":"image/png",
			"name":"Glass_Metallic-Glass_Roughness"
		},
		{
			"bufferView":11,
			"mimeType":"image/png",
			"name":"Shower_enclosures_010_Base_color"
		},
		{
			"bufferView":12,
			"mimeType":"image/png",
			"name":"Shower_enclosures_010_Metallic-Shower_enclosures_010_Roughness"
		}
	],
	"accessors":[
		{
			"bufferView":0,
			"componentType":5126,
			"count":32,
			"max":[
				303.0141906738281,
				-357.94384765625,
				-90.71826934814453
			],
			"min":[
				-309.1673889160156,
				-360.14385986328125,
				-1976.2493896484375
			],
			"type":"VEC3"
		},
		{
			"bufferView":1,
			"componentType":5126,
			"count":32,
			"type":"VEC3"
		},
		{
			"bufferView":2,
			"componentType":5126,
			"count":32,
			"type":"VEC2"
		},
		{
			"bufferView":3,
			"componentType":5123,
			"count":60,
			"type":"SCALAR"
		},
		{
			"bufferView":7,
			"componentType":5126,
			"count":2332,
			"max":[
				376.11419677734375,
				435.77484130859375,
				-35.71226501464844
			],
			"min":[
				-382.2673645019531,
				-447.50164794921875,
				-1985.1494140625
			],
			"type":"VEC3"
		},
		{
			"bufferView":8,
			"componentType":5126,
			"count":2332,
			"type":"VEC3"
		},
		{
			"bufferView":9,
			"componentType":5126,
			"count":2332,
			"type":"VEC2"
		},
		{
			"bufferView":10,
			"componentType":5123,
			"count":6180,
			"type":"SCALAR"
		}
	],
	"bufferViews":[
		{
			"buffer":0,
			"byteLength":384,
			"byteOffset":0,
			"target":34962
		},
		{
			"buffer":0,
			"byteLength":384,
			"byteOffset":384,
			"target":34962
		},
		{
			"buffer":0,
			"byteLength":256,
			"byteOffset":768,
			"target":34962
		},
		{
			"buffer":0,
			"byteLength":120,
			"byteOffset":1024,
			"target":34963
		},
		{
			"buffer":0,
			"byteLength":29466,
			"byteOffset":1144
		},
		{
			"buffer":0,
			"byteLength":78296,
			"byteOffset":30612
		},
		{
			"buffer":0,
			"byteLength":59571,
			"byteOffset":108908
		},
		{
			"buffer":0,
			"byteLength":27984,
			"byteOffset":168480,
			"target":34962
		},
		{
			"buffer":0,
			"byteLength":27984,
			"byteOffset":196464,
			"target":34962
		},
		{
			"buffer":0,
			"byteLength":18656,
			"byteOffset":224448,
			"target":34962
		},
		{
			"buffer":0,
			"byteLength":12360,
			"byteOffset":243104,
			"target":34963
		},
		{
			"buffer":0,
			"byteLength":20308,
			"byteOffset":255464
		},
		{
			"buffer":0,
			"byteLength":66123,
			"byteOffset":275772
		}
	],
	"samplers":[
		{
			"magFilter":9729,
			"minFilter":9987
		}
	],
	"buffers":[
		{
			"byteLength":341896,
			"uri":"data:application/octet-stream;base64,"
		}
	]
}
