{
	"asset":{
		"generator":"Khronos glTF Blender I/O v3.6.27",
		"version":"2.0"
	},
	"scene":0,
	"scenes":[
		{
			"name":"Scene",
			"nodes":[
				0
			]
		}
	],
	"nodes":[
		{
			"mesh":0,
			"name":"Shower_enclosures_001",
			"rotation":[
				0.7071068286895752,
				0,
				0,
				0.7071068286895752
			],
			"scale":[
				0.02564859762787819,
				0.02564859762787819,
				0.02564859762787819
			]
		}
	],
	"materials":[
		{
			"alphaMode":"BLEND",
			"doubleSided":true,
			"name":"Glass",
			"normalTexture":{
				"index":0
			},
			"pbrMetallicRoughness":{
				"baseColorTexture":{
					"index":1
				},
				"metallicRoughnessTexture":{
					"index":2
				}
			}
		},
		{
			"alphaMode":"BLEND",
			"doubleSided":true,
			"name":"Shower_enclosures_001",
			"normalTexture":{
				"index":3
			},
			"pbrMetallicRoughness":{
				"baseColorTexture":{
					"index":4
				},
				"metallicRoughnessTexture":{
					"index":5
				}
			}
		}
	],
	"meshes":[
		{
			"name":"Mesh.002",
			"primitives":[
				{
					"attributes":{
						"POSITION":0,
						"NORMAL":1,
						"TEXCOORD_0":2
					},
					"indices":3,
					"material":0
				},
				{
					"attributes":{
						"POSITION":4,
						"NORMAL":5,
						"TEXCOORD_0":6
					},
					"indices":7,
					"material":1
				}
			]
		}
	],
	"textures":[
		{
			"sampler":0,
			"source":0
		},
		{
			"sampler":0,
			"source":1
		},
		{
			"sampler":0,
			"source":2
		},
		{
			"sampler":0,
			"source":3
		},
		{
			"sampler":0,
			"source":4
		},
		{
			"sampler":0,
			"source":5
		}
	],
	"images":[
		{
			"bufferView":4,
			"mimeType":"image/png",
			"name":"Glass_Normal"
		},
		{
			"bufferView":5,
			"mimeType":"image/png",
			"name":"Glass_Base_color-Glass_Opacity"
		},
		{
			"bufferView":6,
			"mimeType":"image/png",
			"name":"Glass_Metallic-Glass_Roughness"
		},
		{
			"bufferView":11,
			"mimeType":"image/png",
			"name":"Shower_enclosures_001_Normal"
		},
		{
			"bufferView":12,
			"mimeType":"image/png",
			"name":"Shower_enclosures_001_Base_color"
		},
		{
			"bufferView":13,
			"mimeType":"image/png",
			"name":"Shower_enclosures_001_Metallic.png-Shower_enclosures_001_Roughness.png"
		}
	],
	"accessors":[
		{
			"bufferView":0,
			"componentType":5126,
			"count":56,
			"max":[
				16.395231246948242,
				16.29349136352539,
				-0.2978932857513428
			],
			"min":[
				-15.632641792297363,
				-15.494236946105957,
				-78.87886047363281
			],
			"type":"VEC3"
		},
		{
			"bufferView":1,
			"componentType":5126,
			"count":56,
			"type":"VEC3"
		},
		{
			"bufferView":2,
			"componentType":5126,
			"count":56,
			"type":"VEC2"
		},
		{
			"bufferView":3,
			"componentType":5123,
			"count":96,
			"type":"SCALAR"
		},
		{
			"bufferView":7,
			"componentType":5126,
			"count":3729,
			"max":[
				16.500375747680664,
				17.22213363647461,
				0.009784698486328125
			],
			"min":[
				-16.5,
				-16.5,
				-79.68104553222656
			],
			"type":"VEC3"
		},
		{
			"bufferView":8,
			"componentType":5126,
			"count":3729,
			"type":"VEC3"
		},
		{
			"bufferView":9,
			"componentType":5126,
			"count":3729,
			"type":"VEC2"
		},
		{
			"bufferView":10,
			"componentType":5123,
			"count":6558,
			"type":"SCALAR"
		}
	],
	"bufferViews":[
		{
			"buffer":0,
			"byteLength":672,
			"byteOffset":0,
			"target":34962
		},
		{
			"buffer":0,
			"byteLength":672,
			"byteOffset":672,
			"target":34962
		},
		{
			"buffer":0,
			"byteLength":448,
			"byteOffset":1344,
			"target":34962
		},
		{
			"buffer":0,
			"byteLength":192,
			"byteOffset":1792,
			"target":34963
		},
		{
			"buffer":0,
			"byteLength":29466,
			"byteOffset":1984
		},
		{
			"buffer":0,
			"byteLength":78296,
			"byteOffset":31452
		},
		{
			"buffer":0,
			"byteLength":59571,
			"byteOffset":109748
		},
		{
			"buffer":0,
			"byteLength":44748,
			"byteOffset":169320,
			"target":34962
		},
		{
			"buffer":0,
			"byteLength":44748,
			"byteOffset":214068,
			"target":34962
		},
		{
			"buffer":0,
			"byteLength":29832,
			"byteOffset":258816,
			"target":34962
		},
		{
			"buffer":0,
			"byteLength":13116,
			"byteOffset":288648,
			"target":34963
		},
		{
			"buffer":0,
			"byteLength":37942,
			"byteOffset":301764
		},
		{
			"buffer":0,
			"byteLength":16905,
			"byteOffset":339708
		},
		{
			"buffer":0,
			"byteLength":59573,
			"byteOffset":356616
		}
	],
	"samplers":[
		{
			"magFilter":9729,
			"minFilter":9987
		}
	],
	"buffers":[
		{
			"byteLength":416192,
			"uri":"data:application/octet-stream;base64,"
		}
	]
}
