{
	"asset":{
		"generator":"Khronos glTF Blender I/O v3.6.27",
		"version":"2.0"
	},
	"scene":0,
	"scenes":[
		{
			"name":"Scene",
			"nodes":[
				0
			]
		}
	],
	"nodes":[
		{
			"mesh":0,
			"name":"Mirror_011"
		}
	],
	"materials":[
		{
			"doubleSided":true,
			"name":"Mirror_011",
			"normalTexture":{
				"index":0
			},
			"pbrMetallicRoughness":{
				"baseColorTexture":{
					"index":1
				},
				"metallicRoughnessTexture":{
					"index":2
				}
			}
		}
	],
	"meshes":[
		{
			"name":"Cube.001",
			"primitives":[
				{
					"attributes":{
						"POSITION":0,
						"NORMAL":1,
						"TEXCOORD_0":2
					},
					"indices":3,
					"material":0
				}
			]
		}
	],
	"textures":[
		{
			"sampler":0,
			"source":0
		},
		{
			"sampler":0,
			"source":1
		},
		{
			"sampler":0,
			"source":2
		}
	],
	"images":[
		{
			"bufferView":4,
			"mimeType":"image/png",
			"name":"Mirror_011_Normal"
		},
		{
			"bufferView":5,
			"mimeType":"image/png",
			"name":"Mirror_011_Base_color"
		},
		{
			"bufferView":6,
			"mimeType":"image/png",
			"name":"Mirror_011_Metallic-Mirror_011_Roughness"
		}
	],
	"accessors":[
		{
			"bufferView":0,
			"componentType":5126,
			"count":2920,
			"max":[
				0.33048245310783386,
				0.7970154285430908,
				0.0651482418179512
			],
			"min":[
				-0.3304824233055115,
				0.004450172185897827,
				-0.026810405775904655
			],
			"type":"VEC3"
		},
		{
			"bufferView":1,
			"componentType":5126,
			"count":2920,
			"type":"VEC3"
		},
		{
			"bufferView":2,
			"componentType":5126,
			"count":2920,
			"type":"VEC2"
		},
		{
			"bufferView":3,
			"componentType":5123,
			"count":14640,
			"type":"SCALAR"
		}
	],
	"bufferViews":[
		{
			"buffer":0,
			"byteLength":35040,
			"byteOffset":0,
			"target":34962
		},
		{
			"buffer":0,
			"byteLength":35040,
			"byteOffset":35040,
			"target":34962
		},
		{
			"buffer":0,
			"byteLength":23360,
			"byteOffset":70080,
			"target":34962
		},
		{
			"buffer":0,
			"byteLength":29280,
			"byteOffset":93440,
			"target":34963
		},
		{
			"buffer":0,
			"byteLength":31640,
			"byteOffset":122720
		},
		{
			"buffer":0,
			"byteLength":17850,
			"byteOffset":154360
		},
		{
			"buffer":0,
			"byteLength":64295,
			"byteOffset":172212
		}
	],
	"samplers":[
		{
			"magFilter":9729,
			"minFilter":9987
		}
	],
	"buffers":[
		{
			"byteLength":236508,
			"uri":"data:application/octet-stream;base64,"
		}
	]
}
