{
	"asset":{
		"generator":"Khronos glTF Blender I/O v3.6.27",
		"version":"2.0"
	},
	"scene":0,
	"scenes":[
		{
			"name":"Scene",
			"nodes":[
				0
			]
		}
	],
	"nodes":[
		{
			"mesh":0,
			"name":"SideTable_002"
		}
	],
	"materials":[
		{
			"doubleSided":true,
			"name":"SideTable_002",
			"normalTexture":{
				"index":0,
				"scale":1.5
			},
			"pbrMetallicRoughness":{
				"baseColorTexture":{
					"index":1
				},
				"metallicRoughnessTexture":{
					"index":2
				}
			}
		}
	],
	"meshes":[
		{
			"name":"Cylinder.005",
			"primitives":[
				{
					"attributes":{
						"POSITION":0,
						"NORMAL":1,
						"TEXCOORD_0":2
					},
					"indices":3,
					"material":0
				}
			]
		}
	],
	"textures":[
		{
			"sampler":0,
			"source":0
		},
		{
			"sampler":0,
			"source":1
		},
		{
			"sampler":0,
			"source":2
		}
	],
	"images":[
		{
			"bufferView":4,
			"mimeType":"image/png",
			"name":"SideTable_002_Normal.png"
		},
		{
			"bufferView":5,
			"mimeType":"image/png",
			"name":"SideTable_002_Base_color.png"
		},
		{
			"bufferView":6,
			"mimeType":"image/png",
			"name":"SideTable_002_Metallic.png-SideTable_002_Roughness.png"
		}
	],
	"accessors":[
		{
			"bufferView":0,
			"componentType":5126,
			"count":8134,
			"max":[
				0.2287515252828598,
				0.5936610698699951,
				0.2287515252828598
			],
			"min":[
				-0.2287515252828598,
				0.004547059535980225,
				-0.2287515252828598
			],
			"type":"VEC3"
		},
		{
			"bufferView":1,
			"componentType":5126,
			"count":8134,
			"type":"VEC3"
		},
		{
			"bufferView":2,
			"componentType":5126,
			"count":8134,
			"type":"VEC2"
		},
		{
			"bufferView":3,
			"componentType":5123,
			"count":42576,
			"type":"SCALAR"
		}
	],
	"bufferViews":[
		{
			"buffer":0,
			"byteLength":97608,
			"byteOffset":0,
			"target":34962
		},
		{
			"buffer":0,
			"byteLength":97608,
			"byteOffset":97608,
			"target":34962
		},
		{
			"buffer":0,
			"byteLength":65072,
			"byteOffset":195216,
			"target":34962
		},
		{
			"buffer":0,
			"byteLength":85152,
			"byteOffset":260288,
			"target":34963
		},
		{
			"buffer":0,
			"byteLength":29466,
			"byteOffset":345440
		},
		{
			"buffer":0,
			"byteLength":558192,
			"byteOffset":374908
		},
		{
			"buffer":0,
			"byteLength":308750,
			"byteOffset":933100
		}
	],
	"samplers":[
		{
			"magFilter":9729,
			"minFilter":9987
		}
	],
	"buffers":[
		{
			"byteLength":1241852,
			"uri":"data:application/octet-stream;base64,"
		}
	]
}
