{
	"asset":{
		"generator":"Khronos glTF Blender I/O v3.6.27",
		"version":"2.0"
	},
	"extensionsUsed":[
		"KHR_materials_specular",
		"KHR_materials_ior"
	],
	"scene":0,
	"scenes":[
		{
			"name":"Scene",
			"nodes":[
				0
			]
		}
	],
	"nodes":[
		{
			"mesh":0,
			"name":"Shower_enclosures_004",
			"rotation":[
				0.7071068286895752,
				0,
				0,
				0.7071068286895752
			],
			"scale":[
				0.031092189252376556,
				0.031092189252376556,
				0.031092189252376556
			],
			"translation":[
				-0.0004420289187692106,
				0,
				0
			]
		}
	],
	"materials":[
		{
			"alphaMode":"BLEND",
			"doubleSided":true,
			"name":"Glass",
			"normalTexture":{
				"index":0
			},
			"pbrMetallicRoughness":{
				"baseColorTexture":{
					"index":1
				},
				"metallicRoughnessTexture":{
					"index":2
				}
			}
		},
		{
			"doubleSided":true,
			"extensions":{
				"KHR_materials_specular":{
					"specularColorFactor":[
						2.371357614441398,
						2.371357614441398,
						2.371357614441398
					]
				},
				"KHR_materials_ior":{
					"ior":1.4500000476837158
				}
			},
			"name":"Shower_enclosures_4",
			"pbrMetallicRoughness":{
				"baseColorTexture":{
					"index":3
				},
				"metallicRoughnessTexture":{
					"index":4
				}
			}
		}
	],
	"meshes":[
		{
			"name":"Mesh.016",
			"primitives":[
				{
					"attributes":{
						"POSITION":0,
						"NORMAL":1,
						"TEXCOORD_0":2
					},
					"indices":3,
					"material":0
				},
				{
					"attributes":{
						"POSITION":4,
						"NORMAL":5,
						"TEXCOORD_0":6
					},
					"indices":7,
					"material":1
				}
			]
		}
	],
	"textures":[
		{
			"sampler":0,
			"source":0
		},
		{
			"sampler":0,
			"source":1
		},
		{
			"sampler":0,
			"source":2
		},
		{
			"sampler":0,
			"source":3
		},
		{
			"sampler":0,
			"source":4
		}
	],
	"images":[
		{
			"bufferView":4,
			"mimeType":"image/png",
			"name":"Glass_Normal"
		},
		{
			"bufferView":5,
			"mimeType":"image/png",
			"name":"Glass_Base_color-Glass_Opacity"
		},
		{
			"bufferView":6,
			"mimeType":"image/png",
			"name":"Glass_Metallic-Glass_Roughness"
		},
		{
			"bufferView":11,
			"mimeType":"image/png",
			"name":"Shower_enclosures_4_Base_color"
		},
		{
			"bufferView":12,
			"mimeType":"image/png",
			"name":"Shower_enclosures_4_Metallic-Shower_enclosures_4_Roughness"
		}
	],
	"accessors":[
		{
			"bufferView":0,
			"componentType":5126,
			"count":288,
			"max":[
				11.573665618896484,
				11.386709213256836,
				-2.331299304962158
			],
			"min":[
				-12.409791946411133,
				-12.166166305541992,
				-62.940284729003906
			],
			"type":"VEC3"
		},
		{
			"bufferView":1,
			"componentType":5126,
			"count":288,
			"type":"VEC3"
		},
		{
			"bufferView":2,
			"componentType":5126,
			"count":288,
			"type":"VEC2"
		},
		{
			"bufferView":3,
			"componentType":5123,
			"count":972,
			"type":"SCALAR"
		},
		{
			"bufferView":7,
			"componentType":5126,
			"count":5247,
			"max":[
				12.755648612976074,
				12.569548606872559,
				0
			],
			"min":[
				-12.409790992736816,
				-12.569548606872559,
				-62.996482849121094
			],
			"type":"VEC3"
		},
		{
			"bufferView":8,
			"componentType":5126,
			"count":5247,
			"type":"VEC3"
		},
		{
			"bufferView":9,
			"componentType":5126,
			"count":5247,
			"type":"VEC2"
		},
		{
			"bufferView":10,
			"componentType":5123,
			"count":18894,
			"type":"SCALAR"
		}
	],
	"bufferViews":[
		{
			"buffer":0,
			"byteLength":3456,
			"byteOffset":0,
			"target":34962
		},
		{
			"buffer":0,
			"byteLength":3456,
			"byteOffset":3456,
			"target":34962
		},
		{
			"buffer":0,
			"byteLength":2304,
			"byteOffset":6912,
			"target":34962
		},
		{
			"buffer":0,
			"byteLength":1944,
			"byteOffset":9216,
			"target":34963
		},
		{
			"buffer":0,
			"byteLength":29466,
			"byteOffset":11160
		},
		{
			"buffer":0,
			"byteLength":78296,
			"byteOffset":40628
		},
		{
			"buffer":0,
			"byteLength":59571,
			"byteOffset":118924
		},
		{
			"buffer":0,
			"byteLength":62964,
			"byteOffset":178496,
			"target":34962
		},
		{
			"buffer":0,
			"byteLength":62964,
			"byteOffset":241460,
			"target":34962
		},
		{
			"buffer":0,
			"byteLength":41976,
			"byteOffset":304424,
			"target":34962
		},
		{
			"buffer":0,
			"byteLength":37788,
			"byteOffset":346400,
			"target":34963
		},
		{
			"buffer":0,
			"byteLength":24456,
			"byteOffset":384188
		},
		{
			"buffer":0,
			"byteLength":59573,
			"byteOffset":408644
		}
	],
	"samplers":[
		{
			"magFilter":9729,
			"minFilter":9987
		}
	],
	"buffers":[
		{
			"byteLength":468220,
			"uri":"data:application/octet-stream;base64,"
		}
	]
}
