{
	"asset":{
		"generator":"Khronos glTF Blender I/O v3.6.27",
		"version":"2.0"
	},
	"scene":0,
	"scenes":[
		{
			"name":"Scene",
			"nodes":[
				0
			]
		}
	],
	"nodes":[
		{
			"mesh":0,
			"name":"Sanitary ware _002"
		}
	],
	"materials":[
		{
			"doubleSided":true,
			"name":"sw_002",
			"normalTexture":{
				"index":0
			},
			"pbrMetallicRoughness":{
				"baseColorTexture":{
					"index":1
				},
				"metallicRoughnessTexture":{
					"index":2
				}
			}
		}
	],
	"meshes":[
		{
			"name":"Mesh.001",
			"primitives":[
				{
					"attributes":{
						"POSITION":0,
						"NORMAL":1,
						"TEXCOORD_0":2
					},
					"indices":3,
					"material":0
				}
			]
		}
	],
	"textures":[
		{
			"sampler":0,
			"source":0
		},
		{
			"sampler":0,
			"source":1
		},
		{
			"sampler":0,
			"source":2
		}
	],
	"images":[
		{
			"bufferView":4,
			"mimeType":"image/png",
			"name":"Sanitary ware _002_Normal"
		},
		{
			"bufferView":5,
			"mimeType":"image/png",
			"name":"Sanitary ware _002_Base_color"
		},
		{
			"bufferView":6,
			"mimeType":"image/png",
			"name":"Sanitary ware _002_Metallic.png-Sanitary ware _002_Roughness.png"
		}
	],
	"accessors":[
		{
			"bufferView":0,
			"componentType":5126,
			"count":27193,
			"max":[
				0.14892439544200897,
				0.3680667579174042,
				0.3104054033756256
			],
			"min":[
				-0.14892439544200897,
				0.0041899606585502625,
				-0.2435113936662674
			],
			"type":"VEC3"
		},
		{
			"bufferView":1,
			"componentType":5126,
			"count":27193,
			"type":"VEC3"
		},
		{
			"bufferView":2,
			"componentType":5126,
			"count":27193,
			"type":"VEC2"
		},
		{
			"bufferView":3,
			"componentType":5123,
			"count":152736,
			"type":"SCALAR"
		}
	],
	"bufferViews":[
		{
			"buffer":0,
			"byteLength":326316,
			"byteOffset":0,
			"target":34962
		},
		{
			"buffer":0,
			"byteLength":326316,
			"byteOffset":326316,
			"target":34962
		},
		{
			"buffer":0,
			"byteLength":217544,
			"byteOffset":652632,
			"target":34962
		},
		{
			"buffer":0,
			"byteLength":305472,
			"byteOffset":870176,
			"target":34963
		},
		{
			"buffer":0,
			"byteLength":29466,
			"byteOffset":1175648
		},
		{
			"buffer":0,
			"byteLength":16902,
			"byteOffset":1205116
		},
		{
			"buffer":0,
			"byteLength":59572,
			"byteOffset":1222020
		}
	],
	"samplers":[
		{
			"magFilter":9729,
			"minFilter":9987
		}
	],
	"buffers":[
		{
			"byteLength":1281592,
			"uri":"data:application/octet-stream;base64,"
		}
	]
}
