{
	"asset":{
		"generator":"Khronos glTF Blender I/O v3.6.27",
		"version":"2.0"
	},
	"scene":0,
	"scenes":[
		{
			"name":"Scene",
			"nodes":[
				0
			]
		}
	],
	"nodes":[
		{
			"mesh":0,
			"name":"Sanitary ware _004",
			"scale":[
				0.1632145196199417,
				0.17294465005397797,
				0.17294465005397797
			]
		}
	],
	"materials":[
		{
			"doubleSided":true,
			"name":"Sanitary ware _004",
			"normalTexture":{
				"index":0
			},
			"pbrMetallicRoughness":{
				"baseColorTexture":{
					"index":1
				},
				"metallicRoughnessTexture":{
					"index":2
				}
			}
		}
	],
	"meshes":[
		{
			"name":"Cube.008",
			"primitives":[
				{
					"attributes":{
						"POSITION":0,
						"NORMAL":1,
						"TEXCOORD_0":2
					},
					"indices":3,
					"material":0
				}
			]
		}
	],
	"textures":[
		{
			"sampler":0,
			"source":0
		},
		{
			"sampler":0,
			"source":1
		},
		{
			"sampler":0,
			"source":2
		}
	],
	"images":[
		{
			"bufferView":4,
			"mimeType":"image/png",
			"name":"sw_004_sw_004_Normal"
		},
		{
			"bufferView":5,
			"mimeType":"image/png",
			"name":"sw_004_sw_004_BaseColor"
		},
		{
			"bufferView":6,
			"mimeType":"image/png",
			"name":"sw_004_sw_004_Metallic-sw_004_sw_004_Roughness"
		}
	],
	"accessors":[
		{
			"bufferView":0,
			"componentType":5126,
			"count":8495,
			"max":[
				1.0234675407409668,
				3.8024582862854004,
				1.574183464050293
			],
			"min":[
				-1.0236185789108276,
				0.018801212310791016,
				-1.5646429061889648
			],
			"type":"VEC3"
		},
		{
			"bufferView":1,
			"componentType":5126,
			"count":8495,
			"type":"VEC3"
		},
		{
			"bufferView":2,
			"componentType":5126,
			"count":8495,
			"type":"VEC2"
		},
		{
			"bufferView":3,
			"componentType":5123,
			"count":36438,
			"type":"SCALAR"
		}
	],
	"bufferViews":[
		{
			"buffer":0,
			"byteLength":101940,
			"byteOffset":0,
			"target":34962
		},
		{
			"buffer":0,
			"byteLength":101940,
			"byteOffset":101940,
			"target":34962
		},
		{
			"buffer":0,
			"byteLength":67960,
			"byteOffset":203880,
			"target":34962
		},
		{
			"buffer":0,
			"byteLength":72876,
			"byteOffset":271840,
			"target":34963
		},
		{
			"buffer":0,
			"byteLength":17012,
			"byteOffset":344716
		},
		{
			"buffer":0,
			"byteLength":277759,
			"byteOffset":361728
		},
		{
			"buffer":0,
			"byteLength":62179,
			"byteOffset":639488
		}
	],
	"samplers":[
		{
			"magFilter":9729,
			"minFilter":9987
		}
	],
	"buffers":[
		{
			"byteLength":701668,
			"uri":"data:application/octet-stream;base64,"
		}
	]
}
