{
	"asset":{
		"generator":"Khronos glTF Blender I/O v3.6.27",
		"version":"2.0"
	},
	"extensionsUsed":[
		"KHR_materials_specular",
		"KHR_materials_ior"
	],
	"scene":0,
	"scenes":[
		{
			"name":"Scene",
			"nodes":[
				0
			]
		}
	],
	"nodes":[
		{
			"mesh":0,
			"name":"Shelve_002",
			"rotation":[
				0.7071068286895752,
				0,
				0,
				0.7071068286895752
			],
			"scale":[
				0.009999999776482582,
				0.009999999776482582,
				0.009999999776482582
			]
		}
	],
	"materials":[
		{
			"doubleSided":true,
			"extensions":{
				"KHR_materials_specular":{
					"specularColorFactor":[
						2.371357614441398,
						2.371357614441398,
						2.371357614441398
					]
				},
				"KHR_materials_ior":{
					"ior":1.4500000476837158
				}
			},
			"name":"Shelve_002",
			"pbrMetallicRoughness":{
				"baseColorTexture":{
					"index":0
				},
				"metallicRoughnessTexture":{
					"index":1
				}
			}
		}
	],
	"meshes":[
		{
			"name":"Mesh",
			"primitives":[
				{
					"attributes":{
						"POSITION":0,
						"NORMAL":1,
						"TEXCOORD_0":2
					},
					"indices":3,
					"material":0
				}
			]
		}
	],
	"textures":[
		{
			"sampler":0,
			"source":0
		},
		{
			"sampler":0,
			"source":1
		}
	],
	"images":[
		{
			"bufferView":4,
			"mimeType":"image/png",
			"name":"Shelve_02_Base_color"
		},
		{
			"bufferView":5,
			"mimeType":"image/png",
			"name":"Shelve_02_Metallic-Shelve_02_Roughness"
		}
	],
	"accessors":[
		{
			"bufferView":0,
			"componentType":5126,
			"count":3744,
			"max":[
				40.07049560546875,
				18.930233001708984,
				-0.3008880615234375
			],
			"min":[
				-40.07049560546875,
				-18.93024253845215,
				-167.97439575195312
			],
			"type":"VEC3"
		},
		{
			"bufferView":1,
			"componentType":5126,
			"count":3744,
			"type":"VEC3"
		},
		{
			"bufferView":2,
			"componentType":5126,
			"count":3744,
			"type":"VEC2"
		},
		{
			"bufferView":3,
			"componentType":5123,
			"count":11628,
			"type":"SCALAR"
		}
	],
	"bufferViews":[
		{
			"buffer":0,
			"byteLength":44928,
			"byteOffset":0,
			"target":34962
		},
		{
			"buffer":0,
			"byteLength":44928,
			"byteOffset":44928,
			"target":34962
		},
		{
			"buffer":0,
			"byteLength":29952,
			"byteOffset":89856,
			"target":34962
		},
		{
			"buffer":0,
			"byteLength":23256,
			"byteOffset":119808,
			"target":34963
		},
		{
			"buffer":0,
			"byteLength":367147,
			"byteOffset":143064
		},
		{
			"buffer":0,
			"byteLength":88235,
			"byteOffset":510212
		}
	],
	"samplers":[
		{
			"magFilter":9729,
			"minFilter":9987
		}
	],
	"buffers":[
		{
			"byteLength":598448,
			"uri":"data:application/octet-stream;base64,"
		}
	]
}
