{
	"asset":{
		"generator":"Khronos glTF Blender I/O v3.6.27",
		"version":"2.0"
	},
	"scene":0,
	"scenes":[
		{
			"name":"Scene",
			"nodes":[
				0
			]
		}
	],
	"nodes":[
		{
			"mesh":0,
			"name":"Sanitary ware _001",
			"scale":[
				1.8289872407913208,
				1.8289872407913208,
				1.8289872407913208
			]
		}
	],
	"materials":[
		{
			"doubleSided":true,
			"name":"Sanitary ware _001",
			"normalTexture":{
				"index":0
			},
			"pbrMetallicRoughness":{
				"baseColorTexture":{
					"index":1
				},
				"metallicRoughnessTexture":{
					"index":2
				}
			}
		}
	],
	"meshes":[
		{
			"name":"Cylinder.001",
			"primitives":[
				{
					"attributes":{
						"POSITION":0,
						"NORMAL":1,
						"TEXCOORD_0":2
					},
					"indices":3,
					"material":0
				}
			]
		}
	],
	"textures":[
		{
			"sampler":0,
			"source":0
		},
		{
			"sampler":0,
			"source":1
		},
		{
			"sampler":0,
			"source":2
		}
	],
	"images":[
		{
			"bufferView":4,
			"mimeType":"image/png",
			"name":"sw_001_sw_001_Normal"
		},
		{
			"bufferView":5,
			"mimeType":"image/png",
			"name":"sw_001_sw_001_BaseColor"
		},
		{
			"bufferView":6,
			"mimeType":"image/png",
			"name":"sw_001_sw_001_Metallic-sw_001_sw_001_Roughness"
		}
	],
	"accessors":[
		{
			"bufferView":0,
			"componentType":5126,
			"count":8769,
			"max":[
				0.08547061681747437,
				0.3727138638496399,
				0.14264169335365295
			],
			"min":[
				-0.1103280708193779,
				0.0008634538389742374,
				-0.24131616950035095
			],
			"type":"VEC3"
		},
		{
			"bufferView":1,
			"componentType":5126,
			"count":8769,
			"type":"VEC3"
		},
		{
			"bufferView":2,
			"componentType":5126,
			"count":8769,
			"type":"VEC2"
		},
		{
			"bufferView":3,
			"componentType":5123,
			"count":44376,
			"type":"SCALAR"
		}
	],
	"bufferViews":[
		{
			"buffer":0,
			"byteLength":105228,
			"byteOffset":0,
			"target":34962
		},
		{
			"buffer":0,
			"byteLength":105228,
			"byteOffset":105228,
			"target":34962
		},
		{
			"buffer":0,
			"byteLength":70152,
			"byteOffset":210456,
			"target":34962
		},
		{
			"buffer":0,
			"byteLength":88752,
			"byteOffset":280608,
			"target":34963
		},
		{
			"buffer":0,
			"byteLength":17267,
			"byteOffset":369360
		},
		{
			"buffer":0,
			"byteLength":1516888,
			"byteOffset":386628
		},
		{
			"buffer":0,
			"byteLength":64618,
			"byteOffset":1903516
		}
	],
	"samplers":[
		{
			"magFilter":9729,
			"minFilter":9987
		}
	],
	"buffers":[
		{
			"byteLength":1968136,
			"uri":"data:application/octet-stream;base64,"
		}
	]
}
