{
	"asset":{
		"generator":"Khronos glTF Blender I/O v3.6.27",
		"version":"2.0"
	},
	"extensionsUsed":[
		"KHR_materials_specular",
		"KHR_materials_ior"
	],
	"scene":0,
	"scenes":[
		{
			"name":"Scene",
			"nodes":[
				0
			]
		}
	],
	"nodes":[
		{
			"mesh":0,
			"name":"Bathtub_006",
			"rotation":[
				0.7071068286895752,
				0,
				0,
				0.7071068286895752
			],
			"scale":[
				0.009999999776482582,
				0.009999999776482582,
				0.009999999776482582
			]
		}
	],
	"materials":[
		{
			"doubleSided":true,
			"extensions":{
				"KHR_materials_specular":{
					"specularColorFactor":[
						2.371357614441398,
						2.371357614441398,
						2.371357614441398
					]
				},
				"KHR_materials_ior":{
					"ior":1.4500000476837158
				}
			},
			"name":"Bathtub_6",
			"pbrMetallicRoughness":{
				"baseColorTexture":{
					"index":0
				},
				"metallicRoughnessTexture":{
					"index":1
				}
			}
		}
	],
	"meshes":[
		{
			"name":"Mesh",
			"primitives":[
				{
					"attributes":{
						"POSITION":0,
						"NORMAL":1,
						"TEXCOORD_0":2
					},
					"indices":3,
					"material":0
				}
			]
		}
	],
	"textures":[
		{
			"sampler":0,
			"source":0
		},
		{
			"sampler":0,
			"source":1
		}
	],
	"images":[
		{
			"bufferView":4,
			"mimeType":"image/png",
			"name":"Bathtub_6_Base_color"
		},
		{
			"bufferView":5,
			"mimeType":"image/png",
			"name":"Bathtub_6_Metallic-Bathtub_6_Roughness"
		}
	],
	"accessors":[
		{
			"bufferView":0,
			"componentType":5126,
			"count":5112,
			"max":[
				30.000200271606445,
				16.049999237060547,
				0.23779964447021484
			],
			"min":[
				-30.000200271606445,
				-16.049999237060547,
				-20.769001007080078
			],
			"type":"VEC3"
		},
		{
			"bufferView":1,
			"componentType":5126,
			"count":5112,
			"type":"VEC3"
		},
		{
			"bufferView":2,
			"componentType":5126,
			"count":5112,
			"type":"VEC2"
		},
		{
			"bufferView":3,
			"componentType":5123,
			"count":25110,
			"type":"SCALAR"
		}
	],
	"bufferViews":[
		{
			"buffer":0,
			"byteLength":61344,
			"byteOffset":0,
			"target":34962
		},
		{
			"buffer":0,
			"byteLength":61344,
			"byteOffset":61344,
			"target":34962
		},
		{
			"buffer":0,
			"byteLength":40896,
			"byteOffset":122688,
			"target":34962
		},
		{
			"buffer":0,
			"byteLength":50220,
			"byteOffset":163584,
			"target":34963
		},
		{
			"buffer":0,
			"byteLength":22684,
			"byteOffset":213804
		},
		{
			"buffer":0,
			"byteLength":67596,
			"byteOffset":236488
		}
	],
	"samplers":[
		{
			"magFilter":9729,
			"minFilter":9987
		}
	],
	"buffers":[
		{
			"byteLength":304084,
			"uri":"data:application/octet-stream;base64,"
		}
	]
}
