{
	"asset":{
		"generator":"Khronos glTF Blender I/O v3.6.27",
		"version":"2.0"
	},
	"extensionsUsed":[
		"KHR_materials_specular",
		"KHR_materials_ior"
	],
	"scene":0,
	"scenes":[
		{
			"name":"Scene",
			"nodes":[
				0
			]
		}
	],
	"nodes":[
		{
			"mesh":0,
			"name":"sinks_001",
			"rotation":[
				0.7071068286895752,
				0,
				0,
				0.7071068286895752
			],
			"scale":[
				0.009999999776482582,
				0.009999999776482582,
				0.009999999776482582
			]
		}
	],
	"materials":[
		{
			"doubleSided":true,
			"extensions":{
				"KHR_materials_specular":{
					"specularColorFactor":[
						2.371357614441398,
						2.371357614441398,
						2.371357614441398
					]
				},
				"KHR_materials_ior":{
					"ior":1.4500000476837158
				}
			},
			"name":"sinks_001",
			"pbrMetallicRoughness":{
				"baseColorTexture":{
					"index":0
				},
				"metallicRoughnessTexture":{
					"index":1
				}
			}
		}
	],
	"meshes":[
		{
			"name":"Mesh",
			"primitives":[
				{
					"attributes":{
						"POSITION":0,
						"NORMAL":1,
						"TEXCOORD_0":2
					},
					"indices":3,
					"material":0
				}
			]
		}
	],
	"textures":[
		{
			"sampler":0,
			"source":0
		},
		{
			"sampler":0,
			"source":1
		}
	],
	"images":[
		{
			"bufferView":4,
			"mimeType":"image/png",
			"name":"sinks_001_Base_color"
		},
		{
			"bufferView":5,
			"mimeType":"image/png",
			"name":"sinks_001_Metallic-sinks_001_Roughness"
		}
	],
	"accessors":[
		{
			"bufferView":0,
			"componentType":5126,
			"count":15644,
			"max":[
				28.749996185302734,
				20.499998092651367,
				0.15491151809692383
			],
			"min":[
				-28.749996185302734,
				-20.487998962402344,
				-12.032976150512695
			],
			"type":"VEC3"
		},
		{
			"bufferView":1,
			"componentType":5126,
			"count":15644,
			"type":"VEC3"
		},
		{
			"bufferView":2,
			"componentType":5126,
			"count":15644,
			"type":"VEC2"
		},
		{
			"bufferView":3,
			"componentType":5123,
			"count":80910,
			"type":"SCALAR"
		}
	],
	"bufferViews":[
		{
			"buffer":0,
			"byteLength":187728,
			"byteOffset":0,
			"target":34962
		},
		{
			"buffer":0,
			"byteLength":187728,
			"byteOffset":187728,
			"target":34962
		},
		{
			"buffer":0,
			"byteLength":125152,
			"byteOffset":375456,
			"target":34962
		},
		{
			"buffer":0,
			"byteLength":161820,
			"byteOffset":500608,
			"target":34963
		},
		{
			"buffer":0,
			"byteLength":20607,
			"byteOffset":662428
		},
		{
			"buffer":0,
			"byteLength":67131,
			"byteOffset":683036
		}
	],
	"samplers":[
		{
			"magFilter":9729,
			"minFilter":9987
		}
	],
	"buffers":[
		{
			"byteLength":750168,
			"uri":"data:application/octet-stream;base64,"
		}
	]
}
