{
	"asset":{
		"generator":"Khronos glTF Blender I/O v3.6.27",
		"version":"2.0"
	},
	"scene":0,
	"scenes":[
		{
			"name":"Scene",
			"nodes":[
				0
			]
		}
	],
	"nodes":[
		{
			"mesh":0,
			"name":"Shelve_009",
			"translation":[
				0,
				-1.3963242769241333,
				0
			]
		}
	],
	"materials":[
		{
			"doubleSided":true,
			"name":"Shelve_009",
			"normalTexture":{
				"index":0
			},
			"pbrMetallicRoughness":{
				"baseColorTexture":{
					"index":1
				},
				"metallicRoughnessTexture":{
					"index":2
				}
			}
		}
	],
	"meshes":[
		{
			"name":"Mesh.008",
			"primitives":[
				{
					"attributes":{
						"COLOR_0":0,
						"POSITION":1,
						"NORMAL":2,
						"TEXCOORD_0":3
					},
					"indices":4,
					"material":0
				}
			]
		}
	],
	"textures":[
		{
			"sampler":0,
			"source":0
		},
		{
			"sampler":0,
			"source":1
		},
		{
			"sampler":0,
			"source":2
		}
	],
	"images":[
		{
			"bufferView":5,
			"mimeType":"image/png",
			"name":"Shelve_009_Normal"
		},
		{
			"bufferView":6,
			"mimeType":"image/png",
			"name":"Shelve_009_Base_color"
		},
		{
			"bufferView":7,
			"mimeType":"image/png",
			"name":"Shelve_009_Metallic-Shelve_009_Roughness"
		}
	],
	"accessors":[
		{
			"bufferView":0,
			"componentType":5123,
			"count":1585,
			"normalized":true,
			"type":"VEC4"
		},
		{
			"bufferView":1,
			"componentType":5126,
			"count":1585,
			"max":[
				0.17627251148223877,
				3.1495370864868164,
				0.11489509046077728
			],
			"min":[
				-0.5212606191635132,
				1.4036870002746582,
				-0.11499984562397003
			],
			"type":"VEC3"
		},
		{
			"bufferView":2,
			"componentType":5126,
			"count":1585,
			"type":"VEC3"
		},
		{
			"bufferView":3,
			"componentType":5126,
			"count":1585,
			"type":"VEC2"
		},
		{
			"bufferView":4,
			"componentType":5123,
			"count":6660,
			"type":"SCALAR"
		}
	],
	"bufferViews":[
		{
			"buffer":0,
			"byteLength":12680,
			"byteOffset":0,
			"target":34962
		},
		{
			"buffer":0,
			"byteLength":19020,
			"byteOffset":12680,
			"target":34962
		},
		{
			"buffer":0,
			"byteLength":19020,
			"byteOffset":31700,
			"target":34962
		},
		{
			"buffer":0,
			"byteLength":12680,
			"byteOffset":50720,
			"target":34962
		},
		{
			"buffer":0,
			"byteLength":13320,
			"byteOffset":63400,
			"target":34963
		},
		{
			"buffer":0,
			"byteLength":29466,
			"byteOffset":76720
		},
		{
			"buffer":0,
			"byteLength":451901,
			"byteOffset":106188
		},
		{
			"buffer":0,
			"byteLength":59572,
			"byteOffset":558092
		}
	],
	"samplers":[
		{
			"magFilter":9729,
			"minFilter":9987
		}
	],
	"buffers":[
		{
			"byteLength":617664,
			"uri":"data:application/octet-stream;base64,"
		}
	]
}
