{
	"asset":{
		"generator":"Khronos glTF Blender I/O v3.6.27",
		"version":"2.0"
	},
	"scene":0,
	"scenes":[
		{
			"name":"Scene",
			"nodes":[
				0
			]
		}
	],
	"nodes":[
		{
			"mesh":0,
			"name":"Mirror_003",
			"scale":[
				0.7272319793701172,
				0.7764182090759277,
				0.7764182090759277
			]
		}
	],
	"materials":[
		{
			"doubleSided":true,
			"name":"Mirror_003",
			"normalTexture":{
				"index":0
			},
			"pbrMetallicRoughness":{
				"baseColorTexture":{
					"index":1
				},
				"metallicRoughnessTexture":{
					"index":2
				}
			}
		}
	],
	"meshes":[
		{
			"name":"Cube.001",
			"primitives":[
				{
					"attributes":{
						"POSITION":0,
						"NORMAL":1,
						"TEXCOORD_0":2
					},
					"indices":3,
					"material":0
				}
			]
		}
	],
	"textures":[
		{
			"sampler":0,
			"source":0
		},
		{
			"sampler":0,
			"source":1
		},
		{
			"sampler":0,
			"source":2
		}
	],
	"images":[
		{
			"bufferView":4,
			"mimeType":"image/png",
			"name":"Mirror_003_Normal"
		},
		{
			"bufferView":5,
			"mimeType":"image/png",
			"name":"Mirror_003_Base_color"
		},
		{
			"bufferView":6,
			"mimeType":"image/png",
			"name":"Mirror_003_Metallic-Mirror_003_Roughness"
		}
	],
	"accessors":[
		{
			"bufferView":0,
			"componentType":5126,
			"count":4610,
			"max":[
				0.39044618606567383,
				1.1293549537658691,
				0.019015077501535416
			],
			"min":[
				-0.39044615626335144,
				0.002685024868696928,
				-0.01819905824959278
			],
			"type":"VEC3"
		},
		{
			"bufferView":1,
			"componentType":5126,
			"count":4610,
			"type":"VEC3"
		},
		{
			"bufferView":2,
			"componentType":5126,
			"count":4610,
			"type":"VEC2"
		},
		{
			"bufferView":3,
			"componentType":5123,
			"count":25428,
			"type":"SCALAR"
		}
	],
	"bufferViews":[
		{
			"buffer":0,
			"byteLength":55320,
			"byteOffset":0,
			"target":34962
		},
		{
			"buffer":0,
			"byteLength":55320,
			"byteOffset":55320,
			"target":34962
		},
		{
			"buffer":0,
			"byteLength":36880,
			"byteOffset":110640,
			"target":34962
		},
		{
			"buffer":0,
			"byteLength":50856,
			"byteOffset":147520,
			"target":34963
		},
		{
			"buffer":0,
			"byteLength":29466,
			"byteOffset":198376
		},
		{
			"buffer":0,
			"byteLength":24406,
			"byteOffset":227844
		},
		{
			"buffer":0,
			"byteLength":70735,
			"byteOffset":252252
		}
	],
	"samplers":[
		{
			"magFilter":9729,
			"minFilter":9987
		}
	],
	"buffers":[
		{
			"byteLength":322988,
			"uri":"data:application/octet-stream;base64,"
		}
	]
}
