{
	"asset":{
		"generator":"Khronos glTF Blender I/O v3.6.27",
		"version":"2.0"
	},
	"extensionsUsed":[
		"KHR_materials_specular",
		"KHR_materials_ior"
	],
	"scene":0,
	"scenes":[
		{
			"name":"Scene",
			"nodes":[
				0
			]
		}
	],
	"nodes":[
		{
			"mesh":0,
			"name":"Lamp_007"
		}
	],
	"materials":[
		{
			"doubleSided":true,
			"extensions":{
				"KHR_materials_specular":{
					"specularColorFactor":[
						2.371357614441398,
						2.371357614441398,
						2.371357614441398
					]
				},
				"KHR_materials_ior":{
					"ior":1.4500000476837158
				}
			},
			"name":"Lamp_007",
			"normalTexture":{
				"index":0
			},
			"pbrMetallicRoughness":{
				"baseColorTexture":{
					"index":1
				},
				"metallicRoughnessTexture":{
					"index":2
				}
			}
		}
	],
	"meshes":[
		{
			"name":"Mesh.058",
			"primitives":[
				{
					"attributes":{
						"POSITION":0,
						"NORMAL":1,
						"TEXCOORD_0":2
					},
					"indices":3,
					"material":0
				}
			]
		}
	],
	"textures":[
		{
			"sampler":0,
			"source":0
		},
		{
			"sampler":0,
			"source":1
		},
		{
			"sampler":0,
			"source":2
		}
	],
	"images":[
		{
			"bufferView":4,
			"mimeType":"image/png",
			"name":"Lamp_007_Normal"
		},
		{
			"bufferView":5,
			"mimeType":"image/png",
			"name":"Lamp_007_Base_color"
		},
		{
			"bufferView":6,
			"mimeType":"image/png",
			"name":"Lamp_007_Metallic-Lamp_007_Roughness"
		}
	],
	"accessors":[
		{
			"bufferView":0,
			"componentType":5126,
			"count":14090,
			"max":[
				0.15246447920799255,
				1.4969338178634644,
				0.15246441960334778
			],
			"min":[
				-0.15246444940567017,
				-9.589260052678128e-09,
				-0.15525881946086884
			],
			"type":"VEC3"
		},
		{
			"bufferView":1,
			"componentType":5126,
			"count":14090,
			"type":"VEC3"
		},
		{
			"bufferView":2,
			"componentType":5126,
			"count":14090,
			"type":"VEC2"
		},
		{
			"bufferView":3,
			"componentType":5123,
			"count":61704,
			"type":"SCALAR"
		}
	],
	"bufferViews":[
		{
			"buffer":0,
			"byteLength":169080,
			"byteOffset":0,
			"target":34962
		},
		{
			"buffer":0,
			"byteLength":169080,
			"byteOffset":169080,
			"target":34962
		},
		{
			"buffer":0,
			"byteLength":112720,
			"byteOffset":338160,
			"target":34962
		},
		{
			"buffer":0,
			"byteLength":123408,
			"byteOffset":450880,
			"target":34963
		},
		{
			"buffer":0,
			"byteLength":29466,
			"byteOffset":574288
		},
		{
			"buffer":0,
			"byteLength":387951,
			"byteOffset":603756
		},
		{
			"buffer":0,
			"byteLength":668542,
			"byteOffset":991708
		}
	],
	"samplers":[
		{
			"magFilter":9729,
			"minFilter":9987
		}
	],
	"buffers":[
		{
			"byteLength":1660252,
			"uri":"data:application/octet-stream;base64,"
		}
	]
}
