{
	"asset":{
		"generator":"Khronos glTF Blender I/O v3.6.27",
		"version":"2.0"
	},
	"scene":0,
	"scenes":[
		{
			"name":"Scene",
			"nodes":[
				0
			]
		}
	],
	"nodes":[
		{
			"mesh":0,
			"name":"Mirror_004"
		}
	],
	"materials":[
		{
			"doubleSided":true,
			"emissiveFactor":[
				1,
				1,
				1
			],
			"emissiveTexture":{
				"index":0
			},
			"name":"Mirror_004",
			"pbrMetallicRoughness":{
				"baseColorTexture":{
					"index":1
				},
				"metallicRoughnessTexture":{
					"index":2
				}
			}
		}
	],
	"meshes":[
		{
			"name":"Cube.001",
			"primitives":[
				{
					"attributes":{
						"POSITION":0,
						"NORMAL":1,
						"TEXCOORD_0":2
					},
					"indices":3,
					"material":0
				}
			]
		}
	],
	"textures":[
		{
			"sampler":0,
			"source":0
		},
		{
			"sampler":0,
			"source":1
		},
		{
			"sampler":0,
			"source":2
		}
	],
	"images":[
		{
			"bufferView":4,
			"mimeType":"image/png",
			"name":"Mirror_004_Emissive"
		},
		{
			"bufferView":5,
			"mimeType":"image/png",
			"name":"Mirror_004_Base_color"
		},
		{
			"bufferView":6,
			"mimeType":"image/png",
			"name":"Mirror_004_Metallic-Mirror_004_Roughness"
		}
	],
	"accessors":[
		{
			"bufferView":0,
			"componentType":5126,
			"count":2830,
			"max":[
				0.4662592113018036,
				1.024947166442871,
				0.0231670793145895
			],
			"min":[
				-0.4662592113018036,
				0.006666839122772217,
				-0.016271714121103287
			],
			"type":"VEC3"
		},
		{
			"bufferView":1,
			"componentType":5126,
			"count":2830,
			"type":"VEC3"
		},
		{
			"bufferView":2,
			"componentType":5126,
			"count":2830,
			"type":"VEC2"
		},
		{
			"bufferView":3,
			"componentType":5123,
			"count":13584,
			"type":"SCALAR"
		}
	],
	"bufferViews":[
		{
			"buffer":0,
			"byteLength":33960,
			"byteOffset":0,
			"target":34962
		},
		{
			"buffer":0,
			"byteLength":33960,
			"byteOffset":33960,
			"target":34962
		},
		{
			"buffer":0,
			"byteLength":22640,
			"byteOffset":67920,
			"target":34962
		},
		{
			"buffer":0,
			"byteLength":27168,
			"byteOffset":90560,
			"target":34963
		},
		{
			"buffer":0,
			"byteLength":30318,
			"byteOffset":117728
		},
		{
			"buffer":0,
			"byteLength":16903,
			"byteOffset":148048
		},
		{
			"buffer":0,
			"byteLength":59571,
			"byteOffset":164952
		}
	],
	"samplers":[
		{
			"magFilter":9729,
			"minFilter":9987
		}
	],
	"buffers":[
		{
			"byteLength":224524,
			"uri":"data:application/octet-stream;base64,"
		}
	]
}
