{
    "asset" : {
        "generator" : "Khronos glTF Blender I/O v1.8.19",
        "version" : "2.0"
    },
    "scene" : 0,
    "scenes" : [
        {
            "name" : "Scene",
            "nodes" : [
                0,
                1
            ]
        }
    ],
    "nodes" : [
        {
            "name" : "Empty",
            "rotation" : [
                0.7071068286895752,
                0,
                0,
                0.7071067094802856
            ],
            "scale" : [
                0.42481252551078796,
                0.42481252551078796,
                0.42481252551078796
            ],
            "translation" : [
                0,
                0,
                -2.171844005584717
            ]
        },
        {
            "mesh" : 0,
            "name" : "Tv Shelf_002"
        }
    ],
    "materials" : [
        {
            "doubleSided" : true,
            "name" : "Tv Shelf_002",
            "normalTexture" : {
                "index" : 0
            },
            "pbrMetallicRoughness" : {
                "baseColorTexture" : {
                    "index" : 1
                },
                "metallicRoughnessTexture" : {
                    "index" : 2
                }
            }
        }
    ],
    "meshes" : [
        {
            "name" : "Cube",
            "primitives" : [
                {
                    "attributes" : {
                        "POSITION" : 0,
                        "NORMAL" : 1,
                        "TEXCOORD_0" : 2
                    },
                    "indices" : 3,
                    "material" : 0
                }
            ]
        }
    ],
    "textures" : [
        {
            "sampler" : 0,
            "source" : 0
        },
        {
            "sampler" : 0,
            "source" : 1
        },
        {
            "sampler" : 0,
            "source" : 2
        }
    ],
    "images" : [
        {
            "bufferView" : 4,
            "mimeType" : "image/png",
            "name" : "TV_Shelf002_Tv Shelf_002_Normal"
        },
        {
            "bufferView" : 5,
            "mimeType" : "image/png",
            "name" : "TV_Shelf002_Tv Shelf_002_BaseColor"
        },
        {
            "bufferView" : 6,
            "mimeType" : "image/png",
            "name" : "TV_Shelf002_Tv Shelf_002_Metallic-TV_Shelf002_Tv Shelf_002_Roughness"
        }
    ],
    "accessors" : [
        {
            "bufferView" : 0,
            "componentType" : 5126,
            "count" : 3273,
            "max" : [
                0.9027925133705139,
                0.38749974966049194,
                0.236275777220726
            ],
            "min" : [
                -0.9043359756469727,
                0.008347973227500916,
                -0.21330881118774414
            ],
            "type" : "VEC3"
        },
        {
            "bufferView" : 1,
            "componentType" : 5126,
            "count" : 3273,
            "type" : "VEC3"
        },
        {
            "bufferView" : 2,
            "componentType" : 5126,
            "count" : 3273,
            "type" : "VEC2"
        },
        {
            "bufferView" : 3,
            "componentType" : 5123,
            "count" : 16260,
            "type" : "SCALAR"
        }
    ],
    "bufferViews" : [
        {
            "buffer" : 0,
            "byteLength" : 39276,
            "byteOffset" : 0
        },
        {
            "buffer" : 0,
            "byteLength" : 39276,
            "byteOffset" : 39276
        },
        {
            "buffer" : 0,
            "byteLength" : 26184,
            "byteOffset" : 78552
        },
        {
            "buffer" : 0,
            "byteLength" : 32520,
            "byteOffset" : 104736
        },
        {
            "buffer" : 0,
            "byteLength" : 17346,
            "byteOffset" : 137256
        },
        {
            "buffer" : 0,
            "byteLength" : 583567,
            "byteOffset" : 154604
        },
        {
            "buffer" : 0,
            "byteLength" : 71621,
            "byteOffset" : 738172
        }
    ],
    "samplers" : [
        {
            "magFilter" : 9729,
            "minFilter" : 9987
        }
    ],
    "buffers" : [
        {
            "byteLength" : 809796,
            "uri" : "data:application/octet-stream;base64,"
        }
    ]
}
