{
	"asset":{
		"generator":"Khronos glTF Blender I/O v3.6.27",
		"version":"2.0"
	},
	"extensionsUsed":[
		"KHR_materials_specular",
		"KHR_materials_ior"
	],
	"scene":0,
	"scenes":[
		{
			"name":"Scene",
			"nodes":[
				0
			]
		}
	],
	"nodes":[
		{
			"mesh":0,
			"name":"Tv Shelf_004",
			"scale":[
				1.0148310661315918,
				0.6933916211128235,
				1
			]
		}
	],
	"materials":[
		{
			"alphaMode":"BLEND",
			"doubleSided":true,
			"extensions":{
				"KHR_materials_specular":{
					"specularColorTexture":{
						"index":0
					},
					"specularColorFactor":[
						1.185678808634138,
						1.1858059093318922,
						1.1857489661047933
					]
				},
				"KHR_materials_ior":{
					"ior":1.4500000476837158
				}
			},
			"name":"Tv Shelf_004",
			"normalTexture":{
				"index":1
			},
			"pbrMetallicRoughness":{
				"baseColorTexture":{
					"index":2
				},
				"metallicRoughnessTexture":{
					"index":3
				}
			}
		}
	],
	"meshes":[
		{
			"name":"Mesh.187",
			"primitives":[
				{
					"attributes":{
						"POSITION":0,
						"NORMAL":1,
						"TEXCOORD_0":2
					},
					"indices":3,
					"material":0
				}
			]
		}
	],
	"textures":[
		{
			"sampler":0,
			"source":0
		},
		{
			"sampler":0,
			"source":1
		},
		{
			"sampler":0,
			"source":2
		},
		{
			"sampler":0,
			"source":3
		}
	],
	"images":[
		{
			"bufferView":4,
			"mimeType":"image/png",
			"name":"Image"
		},
		{
			"bufferView":5,
			"mimeType":"image/png",
			"name":"Tv Shelf_004_Normal"
		},
		{
			"bufferView":6,
			"mimeType":"image/png",
			"name":"Tv Shelf_004_Base_color-Tv Shelf_004_Opacity"
		},
		{
			"bufferView":7,
			"mimeType":"image/png",
			"name":"Tv Shelf_004_Metallic-Tv Shelf_004_Roughness"
		}
	],
	"accessors":[
		{
			"bufferView":0,
			"componentType":5126,
			"count":9314,
			"max":[
				1.7005845308303833,
				2.7649641036987305,
				0.07621193677186966
			],
			"min":[
				-1.4918209314346313,
				0.00930100679397583,
				-0.3136211335659027
			],
			"type":"VEC3"
		},
		{
			"bufferView":1,
			"componentType":5126,
			"count":9314,
			"type":"VEC3"
		},
		{
			"bufferView":2,
			"componentType":5126,
			"count":9314,
			"type":"VEC2"
		},
		{
			"bufferView":3,
			"componentType":5123,
			"count":37230,
			"type":"SCALAR"
		}
	],
	"bufferViews":[
		{
			"buffer":0,
			"byteLength":111768,
			"byteOffset":0,
			"target":34962
		},
		{
			"buffer":0,
			"byteLength":111768,
			"byteOffset":111768,
			"target":34962
		},
		{
			"buffer":0,
			"byteLength":74512,
			"byteOffset":223536,
			"target":34962
		},
		{
			"buffer":0,
			"byteLength":74460,
			"byteOffset":298048,
			"target":34963
		},
		{
			"buffer":0,
			"byteLength":59571,
			"byteOffset":372508
		},
		{
			"buffer":0,
			"byteLength":34209,
			"byteOffset":432080
		},
		{
			"buffer":0,
			"byteLength":257733,
			"byteOffset":466292
		},
		{
			"buffer":0,
			"byteLength":70304,
			"byteOffset":724028
		}
	],
	"samplers":[
		{
			"magFilter":9729,
			"minFilter":9987
		}
	],
	"buffers":[
		{
			"byteLength":794332,
			"uri":"data:application/octet-stream;base64,"
		}
	]
}
