{
	"asset":{
		"generator":"Khronos glTF Blender I/O v3.6.27",
		"version":"2.0"
	},
	"extensionsUsed":[
		"KHR_materials_specular",
		"KHR_materials_ior"
	],
	"scene":0,
	"scenes":[
		{
			"name":"Scene",
			"nodes":[
				0
			]
		}
	],
	"nodes":[
		{
			"mesh":0,
			"name":"Shower_enclosures_008",
			"rotation":[
				0.7071068286895752,
				0,
				0,
				0.7071068286895752
			],
			"scale":[
				0.02492772787809372,
				0.02492772787809372,
				0.02492772787809372
			]
		}
	],
	"materials":[
		{
			"doubleSided":true,
			"extensions":{
				"KHR_materials_specular":{
					"specularColorFactor":[
						2.371357614441398,
						2.371357614441398,
						2.371357614441398
					]
				},
				"KHR_materials_ior":{
					"ior":1.4500000476837158
				}
			},
			"name":"Shower_enclosures_8",
			"pbrMetallicRoughness":{
				"baseColorTexture":{
					"index":0
				},
				"metallicRoughnessTexture":{
					"index":1
				}
			}
		},
		{
			"alphaMode":"BLEND",
			"doubleSided":true,
			"name":"Glass",
			"normalTexture":{
				"index":2
			},
			"pbrMetallicRoughness":{
				"baseColorTexture":{
					"index":3
				},
				"metallicRoughnessTexture":{
					"index":4
				}
			}
		}
	],
	"meshes":[
		{
			"name":"Mesh.023",
			"primitives":[
				{
					"attributes":{
						"POSITION":0,
						"NORMAL":1,
						"TEXCOORD_0":2
					},
					"indices":3,
					"material":0
				},
				{
					"attributes":{
						"POSITION":4,
						"NORMAL":5,
						"TEXCOORD_0":6
					},
					"indices":7,
					"material":1
				}
			]
		}
	],
	"textures":[
		{
			"sampler":0,
			"source":0
		},
		{
			"sampler":0,
			"source":1
		},
		{
			"sampler":0,
			"source":2
		},
		{
			"sampler":0,
			"source":3
		},
		{
			"sampler":0,
			"source":4
		}
	],
	"images":[
		{
			"bufferView":4,
			"mimeType":"image/png",
			"name":"Shower_enclosures_8_Base_color"
		},
		{
			"bufferView":5,
			"mimeType":"image/png",
			"name":"Shower_enclosures_8_Metallic-Shower_enclosures_8_Roughness"
		},
		{
			"bufferView":10,
			"mimeType":"image/png",
			"name":"Glass_Normal"
		},
		{
			"bufferView":11,
			"mimeType":"image/png",
			"name":"Glass_Base_color-Glass_Opacity"
		},
		{
			"bufferView":12,
			"mimeType":"image/png",
			"name":"Glass_Metallic-Glass_Roughness"
		}
	],
	"accessors":[
		{
			"bufferView":0,
			"componentType":5126,
			"count":12522,
			"max":[
				23.615083694458008,
				15.534782409667969,
				1.0598574969045149e-13
			],
			"min":[
				-23.69447135925293,
				-14.954994201660156,
				-80.20252227783203
			],
			"type":"VEC3"
		},
		{
			"bufferView":1,
			"componentType":5126,
			"count":12522,
			"type":"VEC3"
		},
		{
			"bufferView":2,
			"componentType":5126,
			"count":12522,
			"type":"VEC2"
		},
		{
			"bufferView":3,
			"componentType":5123,
			"count":44496,
			"type":"SCALAR"
		},
		{
			"bufferView":6,
			"componentType":5126,
			"count":155,
			"max":[
				22.814157485961914,
				14.71464729309082,
				-2.236929416656494
			],
			"min":[
				-23.35599708557129,
				-14.317465782165527,
				-78.85243225097656
			],
			"type":"VEC3"
		},
		{
			"bufferView":7,
			"componentType":5126,
			"count":155,
			"type":"VEC3"
		},
		{
			"bufferView":8,
			"componentType":5126,
			"count":155,
			"type":"VEC2"
		},
		{
			"bufferView":9,
			"componentType":5123,
			"count":540,
			"type":"SCALAR"
		}
	],
	"bufferViews":[
		{
			"buffer":0,
			"byteLength":150264,
			"byteOffset":0,
			"target":34962
		},
		{
			"buffer":0,
			"byteLength":150264,
			"byteOffset":150264,
			"target":34962
		},
		{
			"buffer":0,
			"byteLength":100176,
			"byteOffset":300528,
			"target":34962
		},
		{
			"buffer":0,
			"byteLength":88992,
			"byteOffset":400704,
			"target":34963
		},
		{
			"buffer":0,
			"byteLength":23803,
			"byteOffset":489696
		},
		{
			"buffer":0,
			"byteLength":71351,
			"byteOffset":513500
		},
		{
			"buffer":0,
			"byteLength":1860,
			"byteOffset":584852,
			"target":34962
		},
		{
			"buffer":0,
			"byteLength":1860,
			"byteOffset":586712,
			"target":34962
		},
		{
			"buffer":0,
			"byteLength":1240,
			"byteOffset":588572,
			"target":34962
		},
		{
			"buffer":0,
			"byteLength":1080,
			"byteOffset":589812,
			"target":34963
		},
		{
			"buffer":0,
			"byteLength":29466,
			"byteOffset":590892
		},
		{
			"buffer":0,
			"byteLength":78296,
			"byteOffset":620360
		},
		{
			"buffer":0,
			"byteLength":59571,
			"byteOffset":698656
		}
	],
	"samplers":[
		{
			"magFilter":9729,
			"minFilter":9987
		}
	],
	"buffers":[
		{
			"byteLength":758228,
			"uri":"data:application/octet-stream;base64,"
		}
	]
}
