{
	"asset":{
		"generator":"Khronos glTF Blender I/O v3.6.27",
		"version":"2.0"
	},
	"extensionsUsed":[
		"KHR_materials_specular",
		"KHR_materials_ior"
	],
	"scene":0,
	"scenes":[
		{
			"name":"Scene",
			"nodes":[
				0
			]
		}
	],
	"nodes":[
		{
			"mesh":0,
			"name":"Sinkwithtaps_006",
			"scale":[
				1.8087489604949951,
				1.8087489604949951,
				1.8087489604949951
			],
			"translation":[
				-0.02108926698565483,
				0.07124467939138412,
				-0.00605726009234786
			]
		}
	],
	"materials":[
		{
			"doubleSided":true,
			"extensions":{
				"KHR_materials_specular":{
					"specularColorFactor":[
						2.371357614441398,
						2.371357614441398,
						2.371357614441398
					]
				},
				"KHR_materials_ior":{
					"ior":1.4500000476837158
				}
			},
			"name":"Sinkwithtaps_006",
			"pbrMetallicRoughness":{
				"baseColorTexture":{
					"index":0
				},
				"metallicRoughnessTexture":{
					"index":1
				}
			}
		}
	],
	"meshes":[
		{
			"name":"Mesh.005",
			"primitives":[
				{
					"attributes":{
						"POSITION":0,
						"NORMAL":1,
						"TEXCOORD_0":2
					},
					"indices":3,
					"material":0
				}
			]
		}
	],
	"textures":[
		{
			"sampler":0,
			"source":0
		},
		{
			"sampler":0,
			"source":1
		}
	],
	"images":[
		{
			"bufferView":4,
			"mimeType":"image/png",
			"name":"Sinkwithtaps_006_Base_color"
		},
		{
			"bufferView":5,
			"mimeType":"image/png",
			"name":"Sinkwithtaps_006_Metallic-Sinkwithtaps_006_Roughness"
		}
	],
	"accessors":[
		{
			"bufferView":0,
			"componentType":5126,
			"count":37400,
			"max":[
				0.05433636158704758,
				0.07011877000331879,
				0.024698754772543907
			],
			"min":[
				-0.031017184257507324,
				-0.039388928562402725,
				-0.009392389096319675
			],
			"type":"VEC3"
		},
		{
			"bufferView":1,
			"componentType":5126,
			"count":37400,
			"type":"VEC3"
		},
		{
			"bufferView":2,
			"componentType":5126,
			"count":37400,
			"type":"VEC2"
		},
		{
			"bufferView":3,
			"componentType":5123,
			"count":204792,
			"type":"SCALAR"
		}
	],
	"bufferViews":[
		{
			"buffer":0,
			"byteLength":448800,
			"byteOffset":0,
			"target":34962
		},
		{
			"buffer":0,
			"byteLength":448800,
			"byteOffset":448800,
			"target":34962
		},
		{
			"buffer":0,
			"byteLength":299200,
			"byteOffset":897600,
			"target":34962
		},
		{
			"buffer":0,
			"byteLength":409584,
			"byteOffset":1196800,
			"target":34963
		},
		{
			"buffer":0,
			"byteLength":1267260,
			"byteOffset":1606384
		},
		{
			"buffer":0,
			"byteLength":115391,
			"byteOffset":2873644
		}
	],
	"samplers":[
		{
			"magFilter":9729,
			"minFilter":9987
		}
	],
	"buffers":[
		{
			"byteLength":2989036,
			"uri":"data:application/octet-stream;base64,"
		}
	]
}
