{
	"asset":{
		"generator":"Khronos glTF Blender I/O v3.6.27",
		"version":"2.0"
	},
	"extensionsUsed":[
		"KHR_materials_specular",
		"KHR_materials_ior"
	],
	"scene":0,
	"scenes":[
		{
			"name":"Scene",
			"nodes":[
				0
			]
		}
	],
	"nodes":[
		{
			"mesh":0,
			"name":"Sink_003",
			"rotation":[
				0.7071068286895752,
				0,
				0,
				0.7071068286895752
			],
			"scale":[
				0.009999999776482582,
				0.009999999776482582,
				0.009999999776482582
			]
		}
	],
	"materials":[
		{
			"doubleSided":true,
			"extensions":{
				"KHR_materials_specular":{
					"specularColorFactor":[
						2.371357614441398,
						2.371357614441398,
						2.371357614441398
					]
				},
				"KHR_materials_ior":{
					"ior":1.4500000476837158
				}
			},
			"name":"Sink_003",
			"pbrMetallicRoughness":{
				"baseColorTexture":{
					"index":0
				},
				"metallicRoughnessTexture":{
					"index":1
				}
			}
		}
	],
	"meshes":[
		{
			"name":"Mesh",
			"primitives":[
				{
					"attributes":{
						"POSITION":0,
						"NORMAL":1,
						"TEXCOORD_0":2
					},
					"indices":3,
					"material":0
				}
			]
		}
	],
	"textures":[
		{
			"sampler":0,
			"source":0
		},
		{
			"sampler":0,
			"source":1
		}
	],
	"images":[
		{
			"bufferView":4,
			"mimeType":"image/png",
			"name":"Sink_003_Base_color"
		},
		{
			"bufferView":5,
			"mimeType":"image/png",
			"name":"Sink_003_Metallic-Sink_003_Roughness"
		}
	],
	"accessors":[
		{
			"bufferView":0,
			"componentType":5126,
			"count":2554,
			"max":[
				28.706052780151367,
				20.457334518432617,
				0
			],
			"min":[
				-28.710094451904297,
				-20.45732879638672,
				-12.5014066696167
			],
			"type":"VEC3"
		},
		{
			"bufferView":1,
			"componentType":5126,
			"count":2554,
			"type":"VEC3"
		},
		{
			"bufferView":2,
			"componentType":5126,
			"count":2554,
			"type":"VEC2"
		},
		{
			"bufferView":3,
			"componentType":5123,
			"count":14172,
			"type":"SCALAR"
		}
	],
	"bufferViews":[
		{
			"buffer":0,
			"byteLength":30648,
			"byteOffset":0,
			"target":34962
		},
		{
			"buffer":0,
			"byteLength":30648,
			"byteOffset":30648,
			"target":34962
		},
		{
			"buffer":0,
			"byteLength":20432,
			"byteOffset":61296,
			"target":34962
		},
		{
			"buffer":0,
			"byteLength":28344,
			"byteOffset":81728,
			"target":34963
		},
		{
			"buffer":0,
			"byteLength":19038,
			"byteOffset":110072
		},
		{
			"buffer":0,
			"byteLength":61966,
			"byteOffset":129112
		}
	],
	"samplers":[
		{
			"magFilter":9729,
			"minFilter":9987
		}
	],
	"buffers":[
		{
			"byteLength":191080,
			"uri":"data:application/octet-stream;base64,"
		}
	]
}
