{
	"asset":{
		"generator":"Khronos glTF Blender I/O v3.6.27",
		"version":"2.0"
	},
	"scene":0,
	"scenes":[
		{
			"name":"Scene",
			"nodes":[
				0
			]
		}
	],
	"nodes":[
		{
			"mesh":0,
			"name":"Shelve_008",
			"rotation":[
				0.7071068286895752,
				0,
				0,
				0.7071068286895752
			],
			"scale":[
				0.025562705472111702,
				0.025562705472111702,
				0.025562705472111702
			]
		}
	],
	"materials":[
		{
			"doubleSided":true,
			"name":"Shelve_008",
			"pbrMetallicRoughness":{
				"baseColorFactor":[
					0.800000011920929,
					0.800000011920929,
					0.800000011920929,
					1
				],
				"metallicFactor":0,
				"roughnessFactor":0.5
			}
		}
	],
	"meshes":[
		{
			"name":"Mesh.015",
			"primitives":[
				{
					"attributes":{
						"POSITION":0,
						"NORMAL":1,
						"TEXCOORD_0":2
					},
					"indices":3,
					"material":0
				}
			]
		}
	],
	"accessors":[
		{
			"bufferView":0,
			"componentType":5126,
			"count":4062,
			"max":[
				24.34635353088379,
				11.306304931640625,
				-0.2081909030675888
			],
			"min":[
				-21.653642654418945,
				-10.499999046325684,
				-69.20818328857422
			],
			"type":"VEC3"
		},
		{
			"bufferView":1,
			"componentType":5126,
			"count":4062,
			"type":"VEC3"
		},
		{
			"bufferView":2,
			"componentType":5126,
			"count":4062,
			"type":"VEC2"
		},
		{
			"bufferView":3,
			"componentType":5123,
			"count":18438,
			"type":"SCALAR"
		}
	],
	"bufferViews":[
		{
			"buffer":0,
			"byteLength":48744,
			"byteOffset":0,
			"target":34962
		},
		{
			"buffer":0,
			"byteLength":48744,
			"byteOffset":48744,
			"target":34962
		},
		{
			"buffer":0,
			"byteLength":32496,
			"byteOffset":97488,
			"target":34962
		},
		{
			"buffer":0,
			"byteLength":36876,
			"byteOffset":129984,
			"target":34963
		}
	],
	"buffers":[
		{
			"byteLength":166860,
			"uri":"data:application/octet-stream;base64,"
		}
	]
}
