{
	"asset":{
		"generator":"Khronos glTF Blender I/O v3.6.27",
		"version":"2.0"
	},
	"extensionsUsed":[
		"KHR_materials_specular",
		"KHR_materials_ior"
	],
	"scene":0,
	"scenes":[
		{
			"name":"Scene",
			"nodes":[
				0
			]
		}
	],
	"nodes":[
		{
			"mesh":0,
			"name":"Bathtub_005",
			"rotation":[
				0.7071068286895752,
				0,
				0,
				0.7071068286895752
			],
			"scale":[
				0.009999999776482582,
				0.009999999776482582,
				0.009999999776482582
			]
		}
	],
	"materials":[
		{
			"doubleSided":true,
			"extensions":{
				"KHR_materials_specular":{
					"specularColorFactor":[
						2.371357614441398,
						2.371357614441398,
						2.371357614441398
					]
				},
				"KHR_materials_ior":{
					"ior":1.4500000476837158
				}
			},
			"name":"Bathtub_005",
			"pbrMetallicRoughness":{
				"baseColorTexture":{
					"index":0
				},
				"metallicRoughnessTexture":{
					"index":1
				}
			}
		}
	],
	"meshes":[
		{
			"name":"Mesh",
			"primitives":[
				{
					"attributes":{
						"POSITION":0,
						"NORMAL":1,
						"TEXCOORD_0":2
					},
					"indices":3,
					"material":0
				}
			]
		}
	],
	"textures":[
		{
			"sampler":0,
			"source":0
		},
		{
			"sampler":0,
			"source":1
		}
	],
	"images":[
		{
			"bufferView":4,
			"mimeType":"image/png",
			"name":"Bathtub_005_Base_color"
		},
		{
			"bufferView":5,
			"mimeType":"image/png",
			"name":"Bathtub_005_Metallic-Bathtub_005_Roughness"
		}
	],
	"accessors":[
		{
			"bufferView":0,
			"componentType":5126,
			"count":8652,
			"max":[
				29.99989891052246,
				15,
				0.009100019931793213
			],
			"min":[
				-30.00010108947754,
				-15.000000953674316,
				-16.586400985717773
			],
			"type":"VEC3"
		},
		{
			"bufferView":1,
			"componentType":5126,
			"count":8652,
			"type":"VEC3"
		},
		{
			"bufferView":2,
			"componentType":5126,
			"count":8652,
			"type":"VEC2"
		},
		{
			"bufferView":3,
			"componentType":5123,
			"count":36927,
			"type":"SCALAR"
		}
	],
	"bufferViews":[
		{
			"buffer":0,
			"byteLength":103824,
			"byteOffset":0,
			"target":34962
		},
		{
			"buffer":0,
			"byteLength":103824,
			"byteOffset":103824,
			"target":34962
		},
		{
			"buffer":0,
			"byteLength":69216,
			"byteOffset":207648,
			"target":34962
		},
		{
			"buffer":0,
			"byteLength":73854,
			"byteOffset":276864,
			"target":34963
		},
		{
			"buffer":0,
			"byteLength":18894,
			"byteOffset":350720
		},
		{
			"buffer":0,
			"byteLength":62623,
			"byteOffset":369616
		}
	],
	"samplers":[
		{
			"magFilter":9729,
			"minFilter":9987
		}
	],
	"buffers":[
		{
			"byteLength":432240,
			"uri":"data:application/octet-stream;base64,"
		}
	]
}
