{
	"asset":{
		"generator":"Khronos glTF Blender I/O v3.6.27",
		"version":"2.0"
	},
	"extensionsUsed":[
		"KHR_materials_specular",
		"KHR_materials_ior"
	],
	"scene":0,
	"scenes":[
		{
			"name":"Scene",
			"nodes":[
				0
			]
		}
	],
	"nodes":[
		{
			"mesh":0,
			"name":"Sink_005",
			"rotation":[
				0.7071068286895752,
				0,
				0,
				0.7071068286895752
			],
			"scale":[
				0.009999999776482582,
				0.009999999776482582,
				0.012707632035017014
			]
		}
	],
	"materials":[
		{
			"doubleSided":true,
			"extensions":{
				"KHR_materials_specular":{
					"specularColorFactor":[
						2.371357614441398,
						2.371357614441398,
						2.371357614441398
					]
				},
				"KHR_materials_ior":{
					"ior":1.4500000476837158
				}
			},
			"name":"Sink_005",
			"pbrMetallicRoughness":{
				"baseColorTexture":{
					"index":0
				},
				"metallicRoughnessTexture":{
					"index":1
				}
			}
		}
	],
	"meshes":[
		{
			"name":"Mesh",
			"primitives":[
				{
					"attributes":{
						"POSITION":0,
						"NORMAL":1,
						"TEXCOORD_0":2
					},
					"indices":3,
					"material":0
				}
			]
		}
	],
	"textures":[
		{
			"sampler":0,
			"source":0
		},
		{
			"sampler":0,
			"source":1
		}
	],
	"images":[
		{
			"bufferView":4,
			"mimeType":"image/png",
			"name":"Sink_005_Base_color"
		},
		{
			"bufferView":5,
			"mimeType":"image/png",
			"name":"Sink_005_Metallic-Sink_005_Roughness"
		}
	],
	"accessors":[
		{
			"bufferView":0,
			"componentType":5126,
			"count":3842,
			"max":[
				20.606721878051758,
				20.606721878051758,
				0.0002708768588490784
			],
			"min":[
				-20.606725692749023,
				-20.606727600097656,
				-12.74797248840332
			],
			"type":"VEC3"
		},
		{
			"bufferView":1,
			"componentType":5126,
			"count":3842,
			"type":"VEC3"
		},
		{
			"bufferView":2,
			"componentType":5126,
			"count":3842,
			"type":"VEC2"
		},
		{
			"bufferView":3,
			"componentType":5123,
			"count":21360,
			"type":"SCALAR"
		}
	],
	"bufferViews":[
		{
			"buffer":0,
			"byteLength":46104,
			"byteOffset":0,
			"target":34962
		},
		{
			"buffer":0,
			"byteLength":46104,
			"byteOffset":46104,
			"target":34962
		},
		{
			"buffer":0,
			"byteLength":30736,
			"byteOffset":92208,
			"target":34962
		},
		{
			"buffer":0,
			"byteLength":42720,
			"byteOffset":122944,
			"target":34963
		},
		{
			"buffer":0,
			"byteLength":19113,
			"byteOffset":165664
		},
		{
			"buffer":0,
			"byteLength":62700,
			"byteOffset":184780
		}
	],
	"samplers":[
		{
			"magFilter":9729,
			"minFilter":9987
		}
	],
	"buffers":[
		{
			"byteLength":247480,
			"uri":"data:application/octet-stream;base64,"
		}
	]
}
