{
	"asset":{
		"generator":"Khronos glTF Blender I/O v3.6.27",
		"version":"2.0"
	},
	"scene":0,
	"scenes":[
		{
			"name":"Scene",
			"nodes":[
				0
			]
		}
	],
	"nodes":[
		{
			"mesh":0,
			"name":"Mirror_010"
		}
	],
	"materials":[
		{
			"doubleSided":true,
			"name":"Mirror_010",
			"pbrMetallicRoughness":{
				"baseColorTexture":{
					"index":0
				},
				"metallicRoughnessTexture":{
					"index":1
				}
			}
		}
	],
	"meshes":[
		{
			"name":"Cube.001",
			"primitives":[
				{
					"attributes":{
						"POSITION":0,
						"NORMAL":1,
						"TEXCOORD_0":2
					},
					"indices":3,
					"material":0
				}
			]
		}
	],
	"textures":[
		{
			"sampler":0,
			"source":0
		},
		{
			"sampler":0,
			"source":1
		}
	],
	"images":[
		{
			"bufferView":4,
			"mimeType":"image/png",
			"name":"Mirror_010_Base_color"
		},
		{
			"bufferView":5,
			"mimeType":"image/png",
			"name":"Mirror_010_Metallic-Mirror_010_Roughness"
		}
	],
	"accessors":[
		{
			"bufferView":0,
			"componentType":5126,
			"count":4014,
			"max":[
				0.3047674000263214,
				1.2189431190490723,
				0.0075020757503807545
			],
			"min":[
				-0.3047674000263214,
				0.009692823514342308,
				-0.00752373319119215
			],
			"type":"VEC3"
		},
		{
			"bufferView":1,
			"componentType":5126,
			"count":4014,
			"type":"VEC3"
		},
		{
			"bufferView":2,
			"componentType":5126,
			"count":4014,
			"type":"VEC2"
		},
		{
			"bufferView":3,
			"componentType":5123,
			"count":21600,
			"type":"SCALAR"
		}
	],
	"bufferViews":[
		{
			"buffer":0,
			"byteLength":48168,
			"byteOffset":0,
			"target":34962
		},
		{
			"buffer":0,
			"byteLength":48168,
			"byteOffset":48168,
			"target":34962
		},
		{
			"buffer":0,
			"byteLength":32112,
			"byteOffset":96336,
			"target":34962
		},
		{
			"buffer":0,
			"byteLength":43200,
			"byteOffset":128448,
			"target":34963
		},
		{
			"buffer":0,
			"byteLength":103591,
			"byteOffset":171648
		},
		{
			"buffer":0,
			"byteLength":297406,
			"byteOffset":275240
		}
	],
	"samplers":[
		{
			"magFilter":9729,
			"minFilter":9987
		}
	],
	"buffers":[
		{
			"byteLength":572648,
			"uri":"data:application/octet-stream;base64,"
		}
	]
}
