{
	"asset":{
		"generator":"Khronos glTF Blender I/O v3.6.27",
		"version":"2.0"
	},
	"extensionsUsed":[
		"KHR_materials_specular",
		"KHR_materials_ior"
	],
	"scene":0,
	"scenes":[
		{
			"name":"Scene",
			"nodes":[
				0
			]
		}
	],
	"nodes":[
		{
			"mesh":0,
			"name":"Bathtub_013",
			"rotation":[
				0.7071068286895752,
				0,
				0,
				0.7071068286895752
			],
			"scale":[
				0.018568092957139015,
				0.018568092957139015,
				0.018568092957139015
			]
		}
	],
	"materials":[
		{
			"doubleSided":true,
			"extensions":{
				"KHR_materials_specular":{
					"specularColorFactor":[
						2.371357614441398,
						2.371357614441398,
						2.371357614441398
					]
				},
				"KHR_materials_ior":{
					"ior":1.4500000476837158
				}
			},
			"name":"Bathtub_012",
			"pbrMetallicRoughness":{
				"baseColorTexture":{
					"index":0
				},
				"metallicRoughnessTexture":{
					"index":1
				}
			}
		}
	],
	"meshes":[
		{
			"name":"Mesh",
			"primitives":[
				{
					"attributes":{
						"COLOR_0":0,
						"POSITION":1,
						"NORMAL":2,
						"TEXCOORD_0":3
					},
					"indices":4,
					"material":0
				}
			]
		}
	],
	"textures":[
		{
			"sampler":0,
			"source":0
		},
		{
			"sampler":0,
			"source":1
		}
	],
	"images":[
		{
			"bufferView":5,
			"mimeType":"image/png",
			"name":"Bathtub_012_Base_color"
		},
		{
			"bufferView":6,
			"mimeType":"image/png",
			"name":"Bathtub_012_Metallic-Bathtub_012_Roughness"
		}
	],
	"accessors":[
		{
			"bufferView":0,
			"componentType":5123,
			"count":60046,
			"normalized":true,
			"type":"VEC4"
		},
		{
			"bufferView":1,
			"componentType":5126,
			"count":60046,
			"max":[
				34.85767364501953,
				15.917423248291016,
				0.2946643829345703
			],
			"min":[
				-34.85767364501953,
				-19.401287078857422,
				-36.10144805908203
			],
			"type":"VEC3"
		},
		{
			"bufferView":2,
			"componentType":5126,
			"count":60046,
			"type":"VEC3"
		},
		{
			"bufferView":3,
			"componentType":5126,
			"count":60046,
			"type":"VEC2"
		},
		{
			"bufferView":4,
			"componentType":5123,
			"count":268440,
			"type":"SCALAR"
		}
	],
	"bufferViews":[
		{
			"buffer":0,
			"byteLength":480368,
			"byteOffset":0,
			"target":34962
		},
		{
			"buffer":0,
			"byteLength":720552,
			"byteOffset":480368,
			"target":34962
		},
		{
			"buffer":0,
			"byteLength":720552,
			"byteOffset":1200920,
			"target":34962
		},
		{
			"buffer":0,
			"byteLength":480368,
			"byteOffset":1921472,
			"target":34962
		},
		{
			"buffer":0,
			"byteLength":536880,
			"byteOffset":2401840,
			"target":34963
		},
		{
			"buffer":0,
			"byteLength":31285,
			"byteOffset":2938720
		},
		{
			"buffer":0,
			"byteLength":80254,
			"byteOffset":2970008
		}
	],
	"samplers":[
		{
			"magFilter":9729,
			"minFilter":9987
		}
	],
	"buffers":[
		{
			"byteLength":3050264,
			"uri":"data:application/octet-stream;base64,"
		}
	]
}
