{
	"asset":{
		"generator":"Khronos glTF Blender I/O v3.6.27",
		"version":"2.0"
	},
	"scene":0,
	"scenes":[
		{
			"name":"Scene",
			"nodes":[
				0
			]
		}
	],
	"nodes":[
		{
			"mesh":0,
			"name":"Sanitary ware _003",
			"scale":[
				0.3766268193721771,
				0.39477255940437317,
				0.42299655079841614
			]
		}
	],
	"materials":[
		{
			"doubleSided":true,
			"name":"Sanitary ware _003",
			"normalTexture":{
				"index":0
			},
			"pbrMetallicRoughness":{
				"baseColorTexture":{
					"index":1
				},
				"metallicRoughnessTexture":{
					"index":2
				}
			}
		}
	],
	"meshes":[
		{
			"name":"Cylinder",
			"primitives":[
				{
					"attributes":{
						"POSITION":0,
						"NORMAL":1,
						"TEXCOORD_0":2
					},
					"indices":3,
					"material":0
				}
			]
		}
	],
	"textures":[
		{
			"sampler":0,
			"source":0
		},
		{
			"sampler":0,
			"source":1
		},
		{
			"sampler":0,
			"source":2
		}
	],
	"images":[
		{
			"bufferView":4,
			"mimeType":"image/png",
			"name":"1_sw_003_Normal"
		},
		{
			"bufferView":5,
			"mimeType":"image/png",
			"name":"1_sw_003_BaseColor"
		},
		{
			"bufferView":6,
			"mimeType":"image/png",
			"name":"1_sw_003_Metallic-1_sw_003_Roughness"
		}
	],
	"accessors":[
		{
			"bufferView":0,
			"componentType":5126,
			"count":4712,
			"max":[
				0.5708568096160889,
				1.3593553304672241,
				0.713101863861084
			],
			"min":[
				-0.5708567500114441,
				0.009210854768753052,
				-0.9890395998954773
			],
			"type":"VEC3"
		},
		{
			"bufferView":1,
			"componentType":5126,
			"count":4712,
			"type":"VEC3"
		},
		{
			"bufferView":2,
			"componentType":5126,
			"count":4712,
			"type":"VEC2"
		},
		{
			"bufferView":3,
			"componentType":5123,
			"count":23796,
			"type":"SCALAR"
		}
	],
	"bufferViews":[
		{
			"buffer":0,
			"byteLength":56544,
			"byteOffset":0,
			"target":34962
		},
		{
			"buffer":0,
			"byteLength":56544,
			"byteOffset":56544,
			"target":34962
		},
		{
			"buffer":0,
			"byteLength":37696,
			"byteOffset":113088,
			"target":34962
		},
		{
			"buffer":0,
			"byteLength":47592,
			"byteOffset":150784,
			"target":34963
		},
		{
			"buffer":0,
			"byteLength":17002,
			"byteOffset":198376
		},
		{
			"buffer":0,
			"byteLength":246279,
			"byteOffset":215380
		},
		{
			"buffer":0,
			"byteLength":59419,
			"byteOffset":461660
		}
	],
	"samplers":[
		{
			"magFilter":9729,
			"minFilter":9987
		}
	],
	"buffers":[
		{
			"byteLength":521080,
			"uri":"data:application/octet-stream;base64,"
		}
	]
}
