{
	"asset":{
		"generator":"Khronos glTF Blender I/O v3.6.27",
		"version":"2.0"
	},
	"scene":0,
	"scenes":[
		{
			"name":"Scene",
			"nodes":[
				0
			]
		}
	],
	"nodes":[
		{
			"mesh":0,
			"name":"Tv Shelf_003"
		}
	],
	"materials":[
		{
			"doubleSided":true,
			"name":"Tv Shelf_003",
			"normalTexture":{
				"index":0
			},
			"pbrMetallicRoughness":{
				"baseColorTexture":{
					"index":1
				},
				"metallicRoughnessTexture":{
					"index":2
				}
			}
		}
	],
	"meshes":[
		{
			"name":"Mesh.140",
			"primitives":[
				{
					"attributes":{
						"POSITION":0,
						"NORMAL":1,
						"TEXCOORD_0":2
					},
					"indices":3,
					"material":0
				}
			]
		}
	],
	"textures":[
		{
			"sampler":0,
			"source":0
		},
		{
			"sampler":0,
			"source":1
		},
		{
			"sampler":0,
			"source":2
		}
	],
	"images":[
		{
			"bufferView":4,
			"mimeType":"image/png",
			"name":"Tv Shelf_003_Tv Shelf_003_Normal"
		},
		{
			"bufferView":5,
			"mimeType":"image/png",
			"name":"Tv Shelf_003_Tv Shelf_003_BaseColor"
		},
		{
			"bufferView":6,
			"mimeType":"image/png",
			"name":"Tv Shelf_003_Tv Shelf_003_Metallic-Tv Shelf_003_Tv Shelf_003_Roughness"
		}
	],
	"accessors":[
		{
			"bufferView":0,
			"componentType":5126,
			"count":6343,
			"max":[
				0.2973065972328186,
				1.9154225587844849,
				0.06554879248142242
			],
			"min":[
				-2.1211097240448,
				0.009526979178190231,
				-0.29976335167884827
			],
			"type":"VEC3"
		},
		{
			"bufferView":1,
			"componentType":5126,
			"count":6343,
			"type":"VEC3"
		},
		{
			"bufferView":2,
			"componentType":5126,
			"count":6343,
			"type":"VEC2"
		},
		{
			"bufferView":3,
			"componentType":5123,
			"count":26430,
			"type":"SCALAR"
		}
	],
	"bufferViews":[
		{
			"buffer":0,
			"byteLength":76116,
			"byteOffset":0,
			"target":34962
		},
		{
			"buffer":0,
			"byteLength":76116,
			"byteOffset":76116,
			"target":34962
		},
		{
			"buffer":0,
			"byteLength":50744,
			"byteOffset":152232,
			"target":34962
		},
		{
			"buffer":0,
			"byteLength":52860,
			"byteOffset":202976,
			"target":34963
		},
		{
			"buffer":0,
			"byteLength":173476,
			"byteOffset":255836
		},
		{
			"buffer":0,
			"byteLength":285682,
			"byteOffset":429312
		},
		{
			"buffer":0,
			"byteLength":59572,
			"byteOffset":714996
		}
	],
	"samplers":[
		{
			"magFilter":9729,
			"minFilter":9987
		}
	],
	"buffers":[
		{
			"byteLength":774568,
			"uri":"data:application/octet-stream;base64,"
		}
	]
}
