{
	"asset":{
		"generator":"Khronos glTF Blender I/O v3.6.27",
		"version":"2.0"
	},
	"scene":0,
	"scenes":[
		{
			"name":"Scene",
			"nodes":[
				0
			]
		}
	],
	"nodes":[
		{
			"mesh":0,
			"name":"SideTable_006"
		}
	],
	"materials":[
		{
			"doubleSided":true,
			"name":"SideTable_006",
			"normalTexture":{
				"index":0
			},
			"pbrMetallicRoughness":{
				"baseColorTexture":{
					"index":1
				},
				"metallicRoughnessTexture":{
					"index":2
				}
			}
		}
	],
	"meshes":[
		{
			"name":"Circle.001",
			"primitives":[
				{
					"attributes":{
						"POSITION":0,
						"NORMAL":1,
						"TEXCOORD_0":2
					},
					"indices":3,
					"material":0
				}
			]
		}
	],
	"textures":[
		{
			"sampler":0,
			"source":0
		},
		{
			"sampler":0,
			"source":1
		},
		{
			"sampler":0,
			"source":2
		}
	],
	"images":[
		{
			"bufferView":4,
			"mimeType":"image/png",
			"name":"SideTable_006_Normal"
		},
		{
			"bufferView":5,
			"mimeType":"image/png",
			"name":"SideTable_006_Base_color"
		},
		{
			"bufferView":6,
			"mimeType":"image/png",
			"name":"SideTable_006_Metallic-SideTable_006_Roughness"
		}
	],
	"accessors":[
		{
			"bufferView":0,
			"componentType":5126,
			"count":4940,
			"max":[
				0.19721320271492004,
				0.5680546760559082,
				0.19721320271492004
			],
			"min":[
				-0.19721320271492004,
				0.003290139138698578,
				-0.19721320271492004
			],
			"type":"VEC3"
		},
		{
			"bufferView":1,
			"componentType":5126,
			"count":4940,
			"type":"VEC3"
		},
		{
			"bufferView":2,
			"componentType":5126,
			"count":4940,
			"type":"VEC2"
		},
		{
			"bufferView":3,
			"componentType":5123,
			"count":26112,
			"type":"SCALAR"
		}
	],
	"bufferViews":[
		{
			"buffer":0,
			"byteLength":59280,
			"byteOffset":0,
			"target":34962
		},
		{
			"buffer":0,
			"byteLength":59280,
			"byteOffset":59280,
			"target":34962
		},
		{
			"buffer":0,
			"byteLength":39520,
			"byteOffset":118560,
			"target":34962
		},
		{
			"buffer":0,
			"byteLength":52224,
			"byteOffset":158080,
			"target":34963
		},
		{
			"buffer":0,
			"byteLength":29466,
			"byteOffset":210304
		},
		{
			"buffer":0,
			"byteLength":34251,
			"byteOffset":239772
		},
		{
			"buffer":0,
			"byteLength":686251,
			"byteOffset":274024
		}
	],
	"samplers":[
		{
			"magFilter":9729,
			"minFilter":9987
		}
	],
	"buffers":[
		{
			"byteLength":960276,
			"uri":"data:application/octet-stream;base64,"
		}
	]
}
