{
	"asset":{
		"generator":"Khronos glTF Blender I/O v3.6.27",
		"version":"2.0"
	},
	"scene":0,
	"scenes":[
		{
			"name":"Scene",
			"nodes":[
				0
			]
		}
	],
	"nodes":[
		{
			"mesh":0,
			"name":"Sink_007",
			"rotation":[
				0,
				0.5313838720321655,
				0,
				0.8471311926841736
			],
			"scale":[
				6.766714096069336,
				6.766713619232178,
				6.766714096069336
			],
			"translation":[
				0,
				2.210667133331299,
				-0.36931151151657104
			]
		}
	],
	"materials":[
		{
			"doubleSided":true,
			"name":"Sink_007",
			"pbrMetallicRoughness":{
				"baseColorTexture":{
					"index":0
				},
				"metallicRoughnessTexture":{
					"index":1
				}
			}
		}
	],
	"meshes":[
		{
			"name":"Circle.017",
			"primitives":[
				{
					"attributes":{
						"COLOR_0":0,
						"POSITION":1,
						"NORMAL":2,
						"TEXCOORD_0":3
					},
					"indices":4,
					"material":0
				}
			]
		}
	],
	"textures":[
		{
			"sampler":0,
			"source":0
		},
		{
			"sampler":0,
			"source":1
		}
	],
	"images":[
		{
			"bufferView":5,
			"mimeType":"image/png",
			"name":"Sink_007_Base_color"
		},
		{
			"bufferView":6,
			"mimeType":"image/png",
			"name":"Sink_007_Metallic-Sink_007_Roughness"
		}
	],
	"accessors":[
		{
			"bufferView":0,
			"componentType":5123,
			"count":33220,
			"normalized":true,
			"type":"VEC4"
		},
		{
			"bufferView":1,
			"componentType":5126,
			"count":33220,
			"max":[
				1.2074923515319824,
				0.6188087463378906,
				0.9716650247573853
			],
			"min":[
				-0.958644449710846,
				-0.33393362164497375,
				-1.0200879573822021
			],
			"type":"VEC3"
		},
		{
			"bufferView":2,
			"componentType":5126,
			"count":33220,
			"type":"VEC3"
		},
		{
			"bufferView":3,
			"componentType":5126,
			"count":33220,
			"type":"VEC2"
		},
		{
			"bufferView":4,
			"componentType":5123,
			"count":157254,
			"type":"SCALAR"
		}
	],
	"bufferViews":[
		{
			"buffer":0,
			"byteLength":265760,
			"byteOffset":0,
			"target":34962
		},
		{
			"buffer":0,
			"byteLength":398640,
			"byteOffset":265760,
			"target":34962
		},
		{
			"buffer":0,
			"byteLength":398640,
			"byteOffset":664400,
			"target":34962
		},
		{
			"buffer":0,
			"byteLength":265760,
			"byteOffset":1063040,
			"target":34962
		},
		{
			"buffer":0,
			"byteLength":314508,
			"byteOffset":1328800,
			"target":34963
		},
		{
			"buffer":0,
			"byteLength":39963,
			"byteOffset":1643308
		},
		{
			"buffer":0,
			"byteLength":88450,
			"byteOffset":1683272
		}
	],
	"samplers":[
		{
			"magFilter":9729,
			"minFilter":9987
		}
	],
	"buffers":[
		{
			"byteLength":1771724,
			"uri":"data:application/octet-stream;base64,"
		}
	]
}
