{
	"asset":{
		"generator":"Khronos glTF Blender I/O v3.6.27",
		"version":"2.0"
	},
	"extensionsUsed":[
		"KHR_materials_specular",
		"KHR_materials_ior"
	],
	"scene":0,
	"scenes":[
		{
			"name":"Scene",
			"nodes":[
				0
			]
		}
	],
	"nodes":[
		{
			"mesh":0,
			"name":"Shelf_010"
		}
	],
	"materials":[
		{
			"doubleSided":true,
			"extensions":{
				"KHR_materials_specular":{
					"specularColorFactor":[
						2.371357614441398,
						2.371357614441398,
						2.371357614441398
					]
				},
				"KHR_materials_ior":{
					"ior":1.4500000476837158
				}
			},
			"name":"Shelf_010",
			"normalTexture":{
				"index":0
			},
			"pbrMetallicRoughness":{
				"baseColorTexture":{
					"index":1
				},
				"metallicRoughnessTexture":{
					"index":2
				}
			}
		}
	],
	"meshes":[
		{
			"name":"Mesh",
			"primitives":[
				{
					"attributes":{
						"POSITION":0,
						"NORMAL":1,
						"TEXCOORD_0":2
					},
					"indices":3,
					"material":0
				}
			]
		}
	],
	"textures":[
		{
			"sampler":0,
			"source":0
		},
		{
			"sampler":0,
			"source":1
		},
		{
			"sampler":0,
			"source":2
		}
	],
	"images":[
		{
			"bufferView":4,
			"mimeType":"image/png",
			"name":"Shelf_010_Normal"
		},
		{
			"bufferView":5,
			"mimeType":"image/png",
			"name":"Shelf_010_Base_color"
		},
		{
			"bufferView":6,
			"mimeType":"image/png",
			"name":"Shelf_010_Metallic-Shelf_010_Roughness"
		}
	],
	"accessors":[
		{
			"bufferView":0,
			"componentType":5126,
			"count":2588,
			"max":[
				0.2973065972328186,
				1.9154225587844849,
				0.05072683468461037
			],
			"min":[
				-0.29703161120414734,
				0.009526979178190231,
				-0.29976335167884827
			],
			"type":"VEC3"
		},
		{
			"bufferView":1,
			"componentType":5126,
			"count":2588,
			"type":"VEC3"
		},
		{
			"bufferView":2,
			"componentType":5126,
			"count":2588,
			"type":"VEC2"
		},
		{
			"bufferView":3,
			"componentType":5123,
			"count":11004,
			"type":"SCALAR"
		}
	],
	"bufferViews":[
		{
			"buffer":0,
			"byteLength":31056,
			"byteOffset":0,
			"target":34962
		},
		{
			"buffer":0,
			"byteLength":31056,
			"byteOffset":31056,
			"target":34962
		},
		{
			"buffer":0,
			"byteLength":20704,
			"byteOffset":62112,
			"target":34962
		},
		{
			"buffer":0,
			"byteLength":22008,
			"byteOffset":82816,
			"target":34963
		},
		{
			"buffer":0,
			"byteLength":29466,
			"byteOffset":104824
		},
		{
			"buffer":0,
			"byteLength":58135,
			"byteOffset":134292
		},
		{
			"buffer":0,
			"byteLength":59572,
			"byteOffset":192428
		}
	],
	"samplers":[
		{
			"magFilter":9729,
			"minFilter":9987
		}
	],
	"buffers":[
		{
			"byteLength":252000,
			"uri":"data:application/octet-stream;base64,"
		}
	]
}
