{
	"asset":{
		"generator":"Khronos glTF Blender I/O v3.6.27",
		"version":"2.0"
	},
	"extensionsUsed":[
		"KHR_materials_specular",
		"KHR_materials_ior"
	],
	"scene":0,
	"scenes":[
		{
			"name":"Scene",
			"nodes":[
				0
			]
		}
	],
	"nodes":[
		{
			"mesh":0,
			"name":"Lamp_06"
		}
	],
	"materials":[
		{
			"doubleSided":true,
			"extensions":{
				"KHR_materials_specular":{
					"specularColorFactor":[
						2.371357614441398,
						2.371357614441398,
						2.371357614441398
					]
				},
				"KHR_materials_ior":{
					"ior":1.4500000476837158
				}
			},
			"name":"Lamp_06",
			"normalTexture":{
				"index":0
			},
			"pbrMetallicRoughness":{
				"baseColorTexture":{
					"index":1
				},
				"metallicRoughnessTexture":{
					"index":2
				}
			}
		}
	],
	"meshes":[
		{
			"name":"Mesh",
			"primitives":[
				{
					"attributes":{
						"POSITION":0,
						"NORMAL":1,
						"TEXCOORD_0":2
					},
					"indices":3,
					"material":0
				}
			]
		}
	],
	"textures":[
		{
			"sampler":0,
			"source":0
		},
		{
			"sampler":0,
			"source":1
		},
		{
			"sampler":0,
			"source":2
		}
	],
	"images":[
		{
			"bufferView":4,
			"mimeType":"image/png",
			"name":"Lamp_06_Normal.png"
		},
		{
			"bufferView":5,
			"mimeType":"image/png",
			"name":"Lamp_06_Base_color.png"
		},
		{
			"bufferView":6,
			"mimeType":"image/png",
			"name":"Lamp_06_Metallic.png-Lamp_06_Roughness.png"
		}
	],
	"accessors":[
		{
			"bufferView":0,
			"componentType":5126,
			"count":24010,
			"max":[
				0.11483015865087509,
				1.7636744976043701,
				0.11483019590377808
			],
			"min":[
				-0.15696343779563904,
				-2.360754081109917e-08,
				-0.11483024805784225
			],
			"type":"VEC3"
		},
		{
			"bufferView":1,
			"componentType":5126,
			"count":24010,
			"type":"VEC3"
		},
		{
			"bufferView":2,
			"componentType":5126,
			"count":24010,
			"type":"VEC2"
		},
		{
			"bufferView":3,
			"componentType":5123,
			"count":97680,
			"type":"SCALAR"
		}
	],
	"bufferViews":[
		{
			"buffer":0,
			"byteLength":288120,
			"byteOffset":0,
			"target":34962
		},
		{
			"buffer":0,
			"byteLength":288120,
			"byteOffset":288120,
			"target":34962
		},
		{
			"buffer":0,
			"byteLength":192080,
			"byteOffset":576240,
			"target":34962
		},
		{
			"buffer":0,
			"byteLength":195360,
			"byteOffset":768320,
			"target":34963
		},
		{
			"buffer":0,
			"byteLength":579778,
			"byteOffset":963680
		},
		{
			"buffer":0,
			"byteLength":523100,
			"byteOffset":1543460
		},
		{
			"buffer":0,
			"byteLength":259940,
			"byteOffset":2066560
		}
	],
	"samplers":[
		{
			"magFilter":9729,
			"minFilter":9987
		}
	],
	"buffers":[
		{
			"byteLength":2326500,
			"uri":"data:application/octet-stream;base64,"
		}
	]
}
