{
	"asset":{
		"generator":"Khronos glTF Blender I/O v3.6.27",
		"version":"2.0"
	},
	"scene":0,
	"scenes":[
		{
			"name":"Scene",
			"nodes":[
				0
			]
		}
	],
	"nodes":[
		{
			"mesh":0,
			"name":"Bathtub_010",
			"rotation":[
				0.7071068286895752,
				0,
				0,
				0.7071068286895752
			],
			"scale":[
				0.009999999776482582,
				0.009999999776482582,
				0.009999999776482582
			]
		}
	],
	"materials":[
		{
			"doubleSided":true,
			"name":"Bathtub_010",
			"pbrMetallicRoughness":{
				"baseColorTexture":{
					"index":0
				},
				"metallicRoughnessTexture":{
					"index":1
				}
			}
		}
	],
	"meshes":[
		{
			"name":"Mesh",
			"primitives":[
				{
					"attributes":{
						"POSITION":0,
						"NORMAL":1,
						"TEXCOORD_0":2
					},
					"indices":3,
					"material":0
				}
			]
		}
	],
	"textures":[
		{
			"sampler":0,
			"source":0
		},
		{
			"sampler":0,
			"source":1
		}
	],
	"images":[
		{
			"bufferView":4,
			"mimeType":"image/png",
			"name":"Bathtub_010_Base_color"
		},
		{
			"bufferView":5,
			"mimeType":"image/png",
			"name":"Bathtub_010_Metallic-Bathtub_010_Roughness"
		}
	],
	"accessors":[
		{
			"bufferView":0,
			"componentType":5126,
			"count":5524,
			"max":[
				32.350791931152344,
				17.739990234375,
				0.0027423501014709473
			],
			"min":[
				-32.350791931152344,
				-17.67917823791504,
				-23.633869171142578
			],
			"type":"VEC3"
		},
		{
			"bufferView":1,
			"componentType":5126,
			"count":5524,
			"type":"VEC3"
		},
		{
			"bufferView":2,
			"componentType":5126,
			"count":5524,
			"type":"VEC2"
		},
		{
			"bufferView":3,
			"componentType":5123,
			"count":30720,
			"type":"SCALAR"
		}
	],
	"bufferViews":[
		{
			"buffer":0,
			"byteLength":66288,
			"byteOffset":0,
			"target":34962
		},
		{
			"buffer":0,
			"byteLength":66288,
			"byteOffset":66288,
			"target":34962
		},
		{
			"buffer":0,
			"byteLength":44192,
			"byteOffset":132576,
			"target":34962
		},
		{
			"buffer":0,
			"byteLength":61440,
			"byteOffset":176768,
			"target":34963
		},
		{
			"buffer":0,
			"byteLength":18315,
			"byteOffset":238208
		},
		{
			"buffer":0,
			"byteLength":61360,
			"byteOffset":256524
		}
	],
	"samplers":[
		{
			"magFilter":9729,
			"minFilter":9987
		}
	],
	"buffers":[
		{
			"byteLength":317884,
			"uri":"data:application/octet-stream;base64,"
		}
	]
}
