{
	"asset":{
		"generator":"Khronos glTF Blender I/O v3.6.27",
		"version":"2.0"
	},
	"scene":0,
	"scenes":[
		{
			"name":"Scene",
			"nodes":[
				0
			]
		}
	],
	"nodes":[
		{
			"mesh":0,
			"name":"Tv_shelf_008"
		}
	],
	"materials":[
		{
			"doubleSided":true,
			"name":"Tv_shelf_008",
			"pbrMetallicRoughness":{
				"baseColorTexture":{
					"index":0
				},
				"metallicRoughnessTexture":{
					"index":1
				}
			}
		}
	],
	"meshes":[
		{
			"name":"Cube.016",
			"primitives":[
				{
					"attributes":{
						"POSITION":0,
						"NORMAL":1,
						"TEXCOORD_0":2
					},
					"indices":3,
					"material":0
				}
			]
		}
	],
	"textures":[
		{
			"sampler":0,
			"source":0
		},
		{
			"sampler":0,
			"source":1
		}
	],
	"images":[
		{
			"bufferView":4,
			"mimeType":"image/png",
			"name":"Tv_shelf_008_Base_color"
		},
		{
			"bufferView":5,
			"mimeType":"image/png",
			"name":"Tv_shelf_008_Metallic-Tv_shelf_008_Roughness"
		}
	],
	"accessors":[
		{
			"bufferView":0,
			"componentType":5126,
			"count":10852,
			"max":[
				0.6951305270195007,
				0.3913112282752991,
				0.18900367617607117
			],
			"min":[
				-0.6950867176055908,
				0.0008454686030745506,
				-0.1658359169960022
			],
			"type":"VEC3"
		},
		{
			"bufferView":1,
			"componentType":5126,
			"count":10852,
			"type":"VEC3"
		},
		{
			"bufferView":2,
			"componentType":5126,
			"count":10852,
			"type":"VEC2"
		},
		{
			"bufferView":3,
			"componentType":5123,
			"count":33156,
			"type":"SCALAR"
		}
	],
	"bufferViews":[
		{
			"buffer":0,
			"byteLength":130224,
			"byteOffset":0,
			"target":34962
		},
		{
			"buffer":0,
			"byteLength":130224,
			"byteOffset":130224,
			"target":34962
		},
		{
			"buffer":0,
			"byteLength":86816,
			"byteOffset":260448,
			"target":34962
		},
		{
			"buffer":0,
			"byteLength":66312,
			"byteOffset":347264,
			"target":34963
		},
		{
			"buffer":0,
			"byteLength":130131,
			"byteOffset":413576
		},
		{
			"buffer":0,
			"byteLength":116310,
			"byteOffset":543708
		}
	],
	"samplers":[
		{
			"magFilter":9729,
			"minFilter":9987
		}
	],
	"buffers":[
		{
			"byteLength":660020,
			"uri":"data:application/octet-stream;base64,"
		}
	]
}
