{
	"asset":{
		"generator":"Khronos glTF Blender I/O v3.6.27",
		"version":"2.0"
	},
	"extensionsUsed":[
		"KHR_materials_specular",
		"KHR_materials_ior"
	],
	"scene":0,
	"scenes":[
		{
			"name":"Scene",
			"nodes":[
				0
			]
		}
	],
	"nodes":[
		{
			"mesh":0,
			"name":"Shower_enclosures_011.007",
			"rotation":[
				0.7071067690849304,
				0,
				0,
				0.7071068286895752
			],
			"scale":[
				0.0254350733011961,
				0.0254350733011961,
				0.0254350733011961
			],
			"translation":[
				0,
				0,
				0.006212656851857901
			]
		}
	],
	"materials":[
		{
			"alphaMode":"BLEND",
			"doubleSided":true,
			"name":"Glass",
			"normalTexture":{
				"index":0
			},
			"pbrMetallicRoughness":{
				"baseColorTexture":{
					"index":1
				},
				"metallicRoughnessTexture":{
					"index":2
				}
			}
		},
		{
			"doubleSided":true,
			"extensions":{
				"KHR_materials_specular":{
					"specularColorFactor":[
						2.371357614441398,
						2.371357614441398,
						2.371357614441398
					]
				},
				"KHR_materials_ior":{
					"ior":1.4500000476837158
				}
			},
			"name":"Shower_enclosures_11",
			"normalTexture":{
				"index":3
			},
			"pbrMetallicRoughness":{
				"baseColorTexture":{
					"index":4
				},
				"metallicRoughnessTexture":{
					"index":5
				}
			}
		}
	],
	"meshes":[
		{
			"name":"Mesh.050",
			"primitives":[
				{
					"attributes":{
						"POSITION":0,
						"NORMAL":1,
						"TEXCOORD_0":2
					},
					"indices":3,
					"material":0
				},
				{
					"attributes":{
						"POSITION":4,
						"NORMAL":5,
						"TEXCOORD_0":6
					},
					"indices":7,
					"material":1
				}
			]
		}
	],
	"textures":[
		{
			"sampler":0,
			"source":0
		},
		{
			"sampler":0,
			"source":1
		},
		{
			"sampler":0,
			"source":2
		},
		{
			"sampler":0,
			"source":3
		},
		{
			"sampler":0,
			"source":4
		},
		{
			"sampler":0,
			"source":5
		}
	],
	"images":[
		{
			"bufferView":4,
			"mimeType":"image/png",
			"name":"Glass_Normal"
		},
		{
			"bufferView":5,
			"mimeType":"image/png",
			"name":"Glass_Base_color-Glass_Opacity"
		},
		{
			"bufferView":6,
			"mimeType":"image/png",
			"name":"Glass_Metallic-Glass_Roughness"
		},
		{
			"bufferView":11,
			"mimeType":"image/png",
			"name":"Shower_enclosures_11_Normal"
		},
		{
			"bufferView":12,
			"mimeType":"image/png",
			"name":"Shower_enclosures_11_Base_color"
		},
		{
			"bufferView":13,
			"mimeType":"image/png",
			"name":"Shower_enclosures_11_Metallic-Shower_enclosures_11_Roughness"
		}
	],
	"accessors":[
		{
			"bufferView":0,
			"componentType":5126,
			"count":48,
			"max":[
				61.82394027709961,
				28.312387466430664,
				-2.776636838912964
			],
			"min":[
				-61.04537582397461,
				-27.663333892822266,
				-70.14325714111328
			],
			"type":"VEC3"
		},
		{
			"bufferView":1,
			"componentType":5126,
			"count":48,
			"type":"VEC3"
		},
		{
			"bufferView":2,
			"componentType":5126,
			"count":48,
			"type":"VEC2"
		},
		{
			"bufferView":3,
			"componentType":5123,
			"count":72,
			"type":"SCALAR"
		},
		{
			"bufferView":7,
			"componentType":5126,
			"count":6526,
			"max":[
				65.01021575927734,
				31.871807098388672,
				3.552713678800501e-15
			],
			"min":[
				-65.00739288330078,
				-31.06157684326172,
				-78.80534362792969
			],
			"type":"VEC3"
		},
		{
			"bufferView":8,
			"componentType":5126,
			"count":6526,
			"type":"VEC3"
		},
		{
			"bufferView":9,
			"componentType":5126,
			"count":6526,
			"type":"VEC2"
		},
		{
			"bufferView":10,
			"componentType":5123,
			"count":25308,
			"type":"SCALAR"
		}
	],
	"bufferViews":[
		{
			"buffer":0,
			"byteLength":576,
			"byteOffset":0,
			"target":34962
		},
		{
			"buffer":0,
			"byteLength":576,
			"byteOffset":576,
			"target":34962
		},
		{
			"buffer":0,
			"byteLength":384,
			"byteOffset":1152,
			"target":34962
		},
		{
			"buffer":0,
			"byteLength":144,
			"byteOffset":1536,
			"target":34963
		},
		{
			"buffer":0,
			"byteLength":29466,
			"byteOffset":1680
		},
		{
			"buffer":0,
			"byteLength":78296,
			"byteOffset":31148
		},
		{
			"buffer":0,
			"byteLength":59571,
			"byteOffset":109444
		},
		{
			"buffer":0,
			"byteLength":78312,
			"byteOffset":169016,
			"target":34962
		},
		{
			"buffer":0,
			"byteLength":78312,
			"byteOffset":247328,
			"target":34962
		},
		{
			"buffer":0,
			"byteLength":52208,
			"byteOffset":325640,
			"target":34962
		},
		{
			"buffer":0,
			"byteLength":50616,
			"byteOffset":377848,
			"target":34963
		},
		{
			"buffer":0,
			"byteLength":37942,
			"byteOffset":428464
		},
		{
			"buffer":0,
			"byteLength":32135,
			"byteOffset":466408
		},
		{
			"buffer":0,
			"byteLength":73461,
			"byteOffset":498544
		}
	],
	"samplers":[
		{
			"magFilter":9729,
			"minFilter":9987
		}
	],
	"buffers":[
		{
			"byteLength":572008,
			"uri":"data:application/octet-stream;base64,"
		}
	]
}
