{
	"asset":{
		"generator":"Khronos glTF Blender I/O v3.6.27",
		"version":"2.0"
	},
	"scene":0,
	"scenes":[
		{
			"name":"Scene",
			"nodes":[
				0
			]
		}
	],
	"nodes":[
		{
			"mesh":0,
			"name":"Sanitary ware _010",
			"scale":[
				3.8460962772369385,
				3.7562365531921387,
				4.2038798332214355
			]
		}
	],
	"materials":[
		{
			"doubleSided":true,
			"name":"Sanitary ware _010",
			"normalTexture":{
				"index":0
			},
			"pbrMetallicRoughness":{
				"baseColorTexture":{
					"index":1
				},
				"metallicRoughnessTexture":{
					"index":2
				}
			}
		}
	],
	"meshes":[
		{
			"name":"Cube.001",
			"primitives":[
				{
					"attributes":{
						"POSITION":0,
						"NORMAL":1,
						"TEXCOORD_0":2
					},
					"indices":3,
					"material":0
				}
			]
		}
	],
	"textures":[
		{
			"sampler":0,
			"source":0
		},
		{
			"sampler":0,
			"source":1
		},
		{
			"sampler":0,
			"source":2
		}
	],
	"images":[
		{
			"bufferView":4,
			"mimeType":"image/png",
			"name":"sw_010_sw_010_Normal"
		},
		{
			"bufferView":5,
			"mimeType":"image/png",
			"name":"sw_010_sw_010_BaseColor"
		},
		{
			"bufferView":6,
			"mimeType":"image/png",
			"name":"sw_010_sw_010_Metallic-sw_010_sw_010_Roughness"
		}
	],
	"accessors":[
		{
			"bufferView":0,
			"componentType":5126,
			"count":2969,
			"max":[
				0.05844634771347046,
				0.1415916383266449,
				0.09258904308080673
			],
			"min":[
				-0.058035388588905334,
				0.0012916326522827148,
				-0.07702595740556717
			],
			"type":"VEC3"
		},
		{
			"bufferView":1,
			"componentType":5126,
			"count":2969,
			"type":"VEC3"
		},
		{
			"bufferView":2,
			"componentType":5126,
			"count":2969,
			"type":"VEC2"
		},
		{
			"bufferView":3,
			"componentType":5123,
			"count":14118,
			"type":"SCALAR"
		}
	],
	"bufferViews":[
		{
			"buffer":0,
			"byteLength":35628,
			"byteOffset":0,
			"target":34962
		},
		{
			"buffer":0,
			"byteLength":35628,
			"byteOffset":35628,
			"target":34962
		},
		{
			"buffer":0,
			"byteLength":23752,
			"byteOffset":71256,
			"target":34962
		},
		{
			"buffer":0,
			"byteLength":28236,
			"byteOffset":95008,
			"target":34963
		},
		{
			"buffer":0,
			"byteLength":17012,
			"byteOffset":123244
		},
		{
			"buffer":0,
			"byteLength":363993,
			"byteOffset":140256
		},
		{
			"buffer":0,
			"byteLength":59419,
			"byteOffset":504252
		}
	],
	"samplers":[
		{
			"magFilter":9729,
			"minFilter":9987
		}
	],
	"buffers":[
		{
			"byteLength":563672,
			"uri":"data:application/octet-stream;base64,"
		}
	]
}
