{
	"asset":{
		"generator":"Khronos glTF Blender I/O v3.6.27",
		"version":"2.0"
	},
	"extensionsUsed":[
		"KHR_materials_specular",
		"KHR_materials_ior"
	],
	"scene":0,
	"scenes":[
		{
			"name":"Scene",
			"nodes":[
				0
			]
		}
	],
	"nodes":[
		{
			"mesh":0,
			"name":"Bathtub_003",
			"rotation":[
				0.7071068286895752,
				0,
				0,
				0.7071068286895752
			],
			"scale":[
				0.009999999776482582,
				0.009999999776482582,
				0.009999999776482582
			]
		}
	],
	"materials":[
		{
			"doubleSided":true,
			"extensions":{
				"KHR_materials_specular":{
					"specularColorFactor":[
						2.371357614441398,
						2.371357614441398,
						2.371357614441398
					]
				},
				"KHR_materials_ior":{
					"ior":1.4500000476837158
				}
			},
			"name":"Bathtub_003",
			"pbrMetallicRoughness":{
				"baseColorTexture":{
					"index":0
				},
				"metallicRoughnessTexture":{
					"index":1
				}
			}
		}
	],
	"meshes":[
		{
			"name":"Mesh",
			"primitives":[
				{
					"attributes":{
						"POSITION":0,
						"NORMAL":1,
						"TEXCOORD_0":2
					},
					"indices":3,
					"material":0
				}
			]
		}
	],
	"textures":[
		{
			"sampler":0,
			"source":0
		},
		{
			"sampler":0,
			"source":1
		}
	],
	"images":[
		{
			"bufferView":4,
			"mimeType":"image/png",
			"name":"Bathtub_003_Base_color"
		},
		{
			"bufferView":5,
			"mimeType":"image/png",
			"name":"Bathtub_003_Metallic-Bathtub_003_Roughness"
		}
	],
	"accessors":[
		{
			"bufferView":0,
			"componentType":5126,
			"count":10859,
			"max":[
				841.0917358398438,
				411.4539489746094,
				-0.030792236328125
			],
			"min":[
				-837.973876953125,
				-411.44110107421875,
				-584.5228271484375
			],
			"type":"VEC3"
		},
		{
			"bufferView":1,
			"componentType":5126,
			"count":10859,
			"type":"VEC3"
		},
		{
			"bufferView":2,
			"componentType":5126,
			"count":10859,
			"type":"VEC2"
		},
		{
			"bufferView":3,
			"componentType":5123,
			"count":58776,
			"type":"SCALAR"
		}
	],
	"bufferViews":[
		{
			"buffer":0,
			"byteLength":130308,
			"byteOffset":0,
			"target":34962
		},
		{
			"buffer":0,
			"byteLength":130308,
			"byteOffset":130308,
			"target":34962
		},
		{
			"buffer":0,
			"byteLength":86872,
			"byteOffset":260616,
			"target":34962
		},
		{
			"buffer":0,
			"byteLength":117552,
			"byteOffset":347488,
			"target":34963
		},
		{
			"buffer":0,
			"byteLength":16903,
			"byteOffset":465040
		},
		{
			"buffer":0,
			"byteLength":59572,
			"byteOffset":481944
		}
	],
	"samplers":[
		{
			"magFilter":9729,
			"minFilter":9987
		}
	],
	"buffers":[
		{
			"byteLength":541516,
			"uri":"data:application/octet-stream;base64,"
		}
	]
}
