{
	"asset":{
		"generator":"Khronos glTF Blender I/O v3.6.27",
		"version":"2.0"
	},
	"extensionsUsed":[
		"KHR_materials_specular",
		"KHR_materials_ior"
	],
	"scene":0,
	"scenes":[
		{
			"name":"Scene",
			"nodes":[
				0
			]
		}
	],
	"nodes":[
		{
			"mesh":0,
			"name":"Bathtub_004"
		}
	],
	"materials":[
		{
			"doubleSided":true,
			"extensions":{
				"KHR_materials_specular":{
					"specularColorFactor":[
						2.371357614441398,
						2.371357614441398,
						2.371357614441398
					]
				},
				"KHR_materials_ior":{
					"ior":1.4500000476837158
				}
			},
			"name":"Bathtub_004",
			"pbrMetallicRoughness":{
				"baseColorTexture":{
					"index":0
				},
				"metallicRoughnessTexture":{
					"index":1
				}
			}
		}
	],
	"meshes":[
		{
			"name":"Mesh",
			"primitives":[
				{
					"attributes":{
						"POSITION":0,
						"NORMAL":1,
						"TEXCOORD_0":2
					},
					"indices":3,
					"material":0
				}
			]
		}
	],
	"textures":[
		{
			"sampler":0,
			"source":0
		},
		{
			"sampler":0,
			"source":1
		}
	],
	"images":[
		{
			"bufferView":4,
			"mimeType":"image/png",
			"name":"Bathtub_004_Base_color"
		},
		{
			"bufferView":5,
			"mimeType":"image/png",
			"name":"Bathtub_004_Metallic-Bathtub_004_Roughness"
		}
	],
	"accessors":[
		{
			"bufferView":0,
			"componentType":5126,
			"count":29466,
			"max":[
				0.30000001192092896,
				0.22159405052661896,
				0.1499999761581421
			],
			"min":[
				-0.30000001192092896,
				0.0015874877572059631,
				-0.1500319093465805
			],
			"type":"VEC3"
		},
		{
			"bufferView":1,
			"componentType":5126,
			"count":29466,
			"type":"VEC3"
		},
		{
			"bufferView":2,
			"componentType":5126,
			"count":29466,
			"type":"VEC2"
		},
		{
			"bufferView":3,
			"componentType":5123,
			"count":151848,
			"type":"SCALAR"
		}
	],
	"bufferViews":[
		{
			"buffer":0,
			"byteLength":353592,
			"byteOffset":0,
			"target":34962
		},
		{
			"buffer":0,
			"byteLength":353592,
			"byteOffset":353592,
			"target":34962
		},
		{
			"buffer":0,
			"byteLength":235728,
			"byteOffset":707184,
			"target":34962
		},
		{
			"buffer":0,
			"byteLength":303696,
			"byteOffset":942912,
			"target":34963
		},
		{
			"buffer":0,
			"byteLength":26531,
			"byteOffset":1246608
		},
		{
			"buffer":0,
			"byteLength":73812,
			"byteOffset":1273140
		}
	],
	"samplers":[
		{
			"magFilter":9729,
			"minFilter":9987
		}
	],
	"buffers":[
		{
			"byteLength":1346952,
			"uri":"data:application/octet-stream;base64,"
		}
	]
}
