{
	"asset":{
		"generator":"Khronos glTF Blender I/O v3.6.27",
		"version":"2.0"
	},
	"extensionsUsed":[
		"KHR_materials_specular",
		"KHR_materials_ior"
	],
	"scene":0,
	"scenes":[
		{
			"name":"Scene",
			"nodes":[
				0
			]
		}
	],
	"nodes":[
		{
			"mesh":0,
			"name":"Sinkwithtaps_007",
			"scale":[
				1.3387422561645508,
				1.3387422561645508,
				1.3387422561645508
			],
			"translation":[
				-0.0037104934453964233,
				0.5541611313819885,
				-0.1360866129398346
			]
		}
	],
	"materials":[
		{
			"doubleSided":true,
			"extensions":{
				"KHR_materials_specular":{
					"specularColorFactor":[
						2.371357614441398,
						2.371357614441398,
						2.371357614441398
					]
				},
				"KHR_materials_ior":{
					"ior":1.4500000476837158
				}
			},
			"name":"Sinkwithtaps_007",
			"pbrMetallicRoughness":{
				"baseColorTexture":{
					"index":0
				},
				"metallicRoughnessTexture":{
					"index":1
				}
			}
		}
	],
	"meshes":[
		{
			"name":"Mesh.001",
			"primitives":[
				{
					"attributes":{
						"POSITION":0,
						"NORMAL":1,
						"TEXCOORD_0":2
					},
					"indices":3,
					"material":0
				}
			]
		}
	],
	"textures":[
		{
			"sampler":0,
			"source":0
		},
		{
			"sampler":0,
			"source":1
		}
	],
	"images":[
		{
			"bufferView":4,
			"mimeType":"image/png",
			"name":"Sinkwithtaps_007_Base_color"
		},
		{
			"bufferView":5,
			"mimeType":"image/png",
			"name":"Sinkwithtaps_007_Metallic-Sinkwithtaps_007_Roughness"
		}
	],
	"accessors":[
		{
			"bufferView":0,
			"componentType":5126,
			"count":21190,
			"max":[
				0.22209995985031128,
				0.6676453948020935,
				0.2766050696372986
			],
			"min":[
				-0.2185160368680954,
				-0.4139583110809326,
				-0.06106598675251007
			],
			"type":"VEC3"
		},
		{
			"bufferView":1,
			"componentType":5126,
			"count":21190,
			"type":"VEC3"
		},
		{
			"bufferView":2,
			"componentType":5126,
			"count":21190,
			"type":"VEC2"
		},
		{
			"bufferView":3,
			"componentType":5123,
			"count":98856,
			"type":"SCALAR"
		}
	],
	"bufferViews":[
		{
			"buffer":0,
			"byteLength":254280,
			"byteOffset":0,
			"target":34962
		},
		{
			"buffer":0,
			"byteLength":254280,
			"byteOffset":254280,
			"target":34962
		},
		{
			"buffer":0,
			"byteLength":169520,
			"byteOffset":508560,
			"target":34962
		},
		{
			"buffer":0,
			"byteLength":197712,
			"byteOffset":678080,
			"target":34963
		},
		{
			"buffer":0,
			"byteLength":1592119,
			"byteOffset":875792
		},
		{
			"buffer":0,
			"byteLength":81539,
			"byteOffset":2467912
		}
	],
	"samplers":[
		{
			"magFilter":9729,
			"minFilter":9987
		}
	],
	"buffers":[
		{
			"byteLength":2549452,
			"uri":"data:application/octet-stream;base64,"
		}
	]
}
