{
	"asset":{
		"generator":"Khronos glTF Blender I/O v3.6.27",
		"version":"2.0"
	},
	"scene":0,
	"scenes":[
		{
			"name":"Scene",
			"nodes":[
				0
			]
		}
	],
	"nodes":[
		{
			"mesh":0,
			"name":"Mirror_006"
		}
	],
	"materials":[
		{
			"doubleSided":true,
			"name":"Mirror_006",
			"pbrMetallicRoughness":{
				"baseColorTexture":{
					"index":0
				},
				"metallicRoughnessTexture":{
					"index":1
				}
			}
		}
	],
	"meshes":[
		{
			"name":"Cylinder",
			"primitives":[
				{
					"attributes":{
						"POSITION":0,
						"NORMAL":1,
						"TEXCOORD_0":2
					},
					"indices":3,
					"material":0
				}
			]
		}
	],
	"textures":[
		{
			"sampler":0,
			"source":0
		},
		{
			"sampler":0,
			"source":1
		}
	],
	"images":[
		{
			"bufferView":4,
			"mimeType":"image/png",
			"name":"Mirror_006_Base_color"
		},
		{
			"bufferView":5,
			"mimeType":"image/png",
			"name":"Mirror_006_Metallic-Mirror_006_Roughness"
		}
	],
	"accessors":[
		{
			"bufferView":0,
			"componentType":5126,
			"count":4452,
			"max":[
				0.34200990200042725,
				0.69179368019104,
				0.005544284358620644
			],
			"min":[
				-0.34200990200042725,
				-0.0018309346633031964,
				-0.0025809593498706818
			],
			"type":"VEC3"
		},
		{
			"bufferView":1,
			"componentType":5126,
			"count":4452,
			"type":"VEC3"
		},
		{
			"bufferView":2,
			"componentType":5126,
			"count":4452,
			"type":"VEC2"
		},
		{
			"bufferView":3,
			"componentType":5123,
			"count":24288,
			"type":"SCALAR"
		}
	],
	"bufferViews":[
		{
			"buffer":0,
			"byteLength":53424,
			"byteOffset":0,
			"target":34962
		},
		{
			"buffer":0,
			"byteLength":53424,
			"byteOffset":53424,
			"target":34962
		},
		{
			"buffer":0,
			"byteLength":35616,
			"byteOffset":106848,
			"target":34962
		},
		{
			"buffer":0,
			"byteLength":48576,
			"byteOffset":142464,
			"target":34963
		},
		{
			"buffer":0,
			"byteLength":181454,
			"byteOffset":191040
		},
		{
			"buffer":0,
			"byteLength":362988,
			"byteOffset":372496
		}
	],
	"samplers":[
		{
			"magFilter":9729,
			"minFilter":9987
		}
	],
	"buffers":[
		{
			"byteLength":735484,
			"uri":"data:application/octet-stream;base64,"
		}
	]
}
