{
	"asset":{
		"generator":"Khronos glTF Blender I/O v3.6.27",
		"version":"2.0"
	},
	"extensionsUsed":[
		"KHR_materials_specular",
		"KHR_materials_ior"
	],
	"scene":0,
	"scenes":[
		{
			"name":"Scene",
			"nodes":[
				0
			]
		}
	],
	"nodes":[
		{
			"mesh":0,
			"name":"Shower_enclosures_006",
			"rotation":[
				0.7071066498756409,
				0,
				0,
				0.7071069478988647
			],
			"scale":[
				0.020467378199100494,
				0.020467378199100494,
				0.020467378199100494
			],
			"translation":[
				-0.009304256178438663,
				0,
				0
			]
		}
	],
	"materials":[
		{
			"alphaMode":"BLEND",
			"doubleSided":true,
			"name":"Glass",
			"pbrMetallicRoughness":{
				"baseColorTexture":{
					"index":0
				},
				"metallicRoughnessTexture":{
					"index":1
				}
			}
		},
		{
			"doubleSided":true,
			"extensions":{
				"KHR_materials_specular":{
					"specularColorFactor":[
						2.371357614441398,
						2.371357614441398,
						2.371357614441398
					]
				},
				"KHR_materials_ior":{
					"ior":1.4500000476837158
				}
			},
			"name":"Shower_enclosures_6",
			"pbrMetallicRoughness":{
				"baseColorTexture":{
					"index":2
				},
				"metallicRoughnessTexture":{
					"index":3
				}
			}
		}
	],
	"meshes":[
		{
			"name":"Mesh.028",
			"primitives":[
				{
					"attributes":{
						"POSITION":0,
						"NORMAL":1,
						"TEXCOORD_0":2
					},
					"indices":3,
					"material":0
				},
				{
					"attributes":{
						"POSITION":4,
						"NORMAL":5,
						"TEXCOORD_0":6
					},
					"indices":7,
					"material":1
				}
			]
		}
	],
	"textures":[
		{
			"sampler":0,
			"source":0
		},
		{
			"sampler":0,
			"source":1
		},
		{
			"sampler":0,
			"source":2
		},
		{
			"sampler":0,
			"source":3
		}
	],
	"images":[
		{
			"bufferView":4,
			"mimeType":"image/png",
			"name":"Glass_Base_color-Glass_Opacity"
		},
		{
			"bufferView":5,
			"mimeType":"image/png",
			"name":"Glass_Metallic-Glass_Roughness"
		},
		{
			"bufferView":10,
			"mimeType":"image/png",
			"name":"Shower_enclosures_6_Base_color"
		},
		{
			"bufferView":11,
			"mimeType":"image/png",
			"name":"Shower_enclosures_6_Metallic-Shower_enclosures_6_Roughness"
		}
	],
	"accessors":[
		{
			"bufferView":0,
			"componentType":5126,
			"count":40,
			"max":[
				45.23789978027344,
				30.70580291748047,
				-3.4339070320129395
			],
			"min":[
				-56.772544860839844,
				30.427322387695312,
				-82.26868438720703
			],
			"type":"VEC3"
		},
		{
			"bufferView":1,
			"componentType":5126,
			"count":40,
			"type":"VEC3"
		},
		{
			"bufferView":2,
			"componentType":5126,
			"count":40,
			"type":"VEC2"
		},
		{
			"bufferView":3,
			"componentType":5123,
			"count":84,
			"type":"SCALAR"
		},
		{
			"bufferView":6,
			"componentType":5126,
			"count":7254,
			"max":[
				50.83197021484375,
				34.745487213134766,
				0
			],
			"min":[
				-62.30314636230469,
				-34.745487213134766,
				-94.62345123291016
			],
			"type":"VEC3"
		},
		{
			"bufferView":7,
			"componentType":5126,
			"count":7254,
			"type":"VEC3"
		},
		{
			"bufferView":8,
			"componentType":5126,
			"count":7254,
			"type":"VEC2"
		},
		{
			"bufferView":9,
			"componentType":5123,
			"count":26844,
			"type":"SCALAR"
		}
	],
	"bufferViews":[
		{
			"buffer":0,
			"byteLength":480,
			"byteOffset":0,
			"target":34962
		},
		{
			"buffer":0,
			"byteLength":480,
			"byteOffset":480,
			"target":34962
		},
		{
			"buffer":0,
			"byteLength":320,
			"byteOffset":960,
			"target":34962
		},
		{
			"buffer":0,
			"byteLength":168,
			"byteOffset":1280,
			"target":34963
		},
		{
			"buffer":0,
			"byteLength":78296,
			"byteOffset":1448
		},
		{
			"buffer":0,
			"byteLength":59571,
			"byteOffset":79744
		},
		{
			"buffer":0,
			"byteLength":87048,
			"byteOffset":139316,
			"target":34962
		},
		{
			"buffer":0,
			"byteLength":87048,
			"byteOffset":226364,
			"target":34962
		},
		{
			"buffer":0,
			"byteLength":58032,
			"byteOffset":313412,
			"target":34962
		},
		{
			"buffer":0,
			"byteLength":53688,
			"byteOffset":371444,
			"target":34963
		},
		{
			"buffer":0,
			"byteLength":23621,
			"byteOffset":425132
		},
		{
			"buffer":0,
			"byteLength":68949,
			"byteOffset":448756
		}
	],
	"samplers":[
		{
			"magFilter":9729,
			"minFilter":9987
		}
	],
	"buffers":[
		{
			"byteLength":517708,
			"uri":"data:application/octet-stream;base64,"
		}
	]
}
