{
	"asset":{
		"generator":"Khronos glTF Blender I/O v3.6.27",
		"version":"2.0"
	},
	"scene":0,
	"scenes":[
		{
			"name":"Scene",
			"nodes":[
				0
			]
		}
	],
	"nodes":[
		{
			"mesh":0,
			"name":"Sanitary ware _007",
			"scale":[
				2.4018094539642334,
				2.482203483581543,
				2.3621931076049805
			]
		}
	],
	"materials":[
		{
			"doubleSided":true,
			"name":"Sanitary ware _007",
			"normalTexture":{
				"index":0
			},
			"pbrMetallicRoughness":{
				"baseColorTexture":{
					"index":1
				},
				"metallicRoughnessTexture":{
					"index":2
				}
			}
		}
	],
	"meshes":[
		{
			"name":"Cube.002",
			"primitives":[
				{
					"attributes":{
						"POSITION":0,
						"NORMAL":1,
						"TEXCOORD_0":2
					},
					"indices":3,
					"material":0
				}
			]
		}
	],
	"textures":[
		{
			"sampler":0,
			"source":0
		},
		{
			"sampler":0,
			"source":1
		},
		{
			"sampler":0,
			"source":2
		}
	],
	"images":[
		{
			"bufferView":4,
			"mimeType":"image/png",
			"name":"sw_007_sw_007_Normal"
		},
		{
			"bufferView":5,
			"mimeType":"image/png",
			"name":"sw_007_sw_007_BaseColor"
		},
		{
			"bufferView":6,
			"mimeType":"image/png",
			"name":"sw_007_sw_007_Metallic-sw_007_sw_007_Roughness"
		}
	],
	"accessors":[
		{
			"bufferView":0,
			"componentType":5126,
			"count":2772,
			"max":[
				0.08118879050016403,
				0.1910911649465561,
				0.1491326093673706
			],
			"min":[
				-0.08118879050016403,
				0.0037575929891318083,
				-0.1408521831035614
			],
			"type":"VEC3"
		},
		{
			"bufferView":1,
			"componentType":5126,
			"count":2772,
			"type":"VEC3"
		},
		{
			"bufferView":2,
			"componentType":5126,
			"count":2772,
			"type":"VEC2"
		},
		{
			"bufferView":3,
			"componentType":5123,
			"count":12744,
			"type":"SCALAR"
		}
	],
	"bufferViews":[
		{
			"buffer":0,
			"byteLength":33264,
			"byteOffset":0,
			"target":34962
		},
		{
			"buffer":0,
			"byteLength":33264,
			"byteOffset":33264,
			"target":34962
		},
		{
			"buffer":0,
			"byteLength":22176,
			"byteOffset":66528,
			"target":34962
		},
		{
			"buffer":0,
			"byteLength":25488,
			"byteOffset":88704,
			"target":34963
		},
		{
			"buffer":0,
			"byteLength":16948,
			"byteOffset":114192
		},
		{
			"buffer":0,
			"byteLength":490015,
			"byteOffset":131140
		},
		{
			"buffer":0,
			"byteLength":80862,
			"byteOffset":621156
		}
	],
	"samplers":[
		{
			"magFilter":9729,
			"minFilter":9987
		}
	],
	"buffers":[
		{
			"byteLength":702020,
			"uri":"data:application/octet-stream;base64,"
		}
	]
}
