{
	"asset":{
		"generator":"Khronos glTF Blender I/O v3.6.27",
		"version":"2.0"
	},
	"scene":0,
	"scenes":[
		{
			"name":"Scene",
			"nodes":[
				0
			]
		}
	],
	"nodes":[
		{
			"mesh":0,
			"name":"Mirror_008"
		}
	],
	"materials":[
		{
			"doubleSided":true,
			"name":"Mirror_008",
			"pbrMetallicRoughness":{
				"baseColorTexture":{
					"index":0
				},
				"metallicRoughnessTexture":{
					"index":1
				}
			}
		}
	],
	"meshes":[
		{
			"name":"Cube.001",
			"primitives":[
				{
					"attributes":{
						"POSITION":0,
						"NORMAL":1,
						"TEXCOORD_0":2
					},
					"indices":3,
					"material":0
				}
			]
		}
	],
	"textures":[
		{
			"sampler":0,
			"source":0
		},
		{
			"sampler":0,
			"source":1
		}
	],
	"images":[
		{
			"bufferView":4,
			"mimeType":"image/png",
			"name":"Mirror_008_Base_color"
		},
		{
			"bufferView":5,
			"mimeType":"image/png",
			"name":"Mirror_008_Metallic-Mirror_008_Roughness"
		}
	],
	"accessors":[
		{
			"bufferView":0,
			"componentType":5126,
			"count":10338,
			"max":[
				0.2018067091703415,
				0.7166669368743896,
				0.0036879254039376974
			],
			"min":[
				-0.2018067091703415,
				0.0014905929565429688,
				-0.06409022957086563
			],
			"type":"VEC3"
		},
		{
			"bufferView":1,
			"componentType":5126,
			"count":10338,
			"type":"VEC3"
		},
		{
			"bufferView":2,
			"componentType":5126,
			"count":10338,
			"type":"VEC2"
		},
		{
			"bufferView":3,
			"componentType":5123,
			"count":58152,
			"type":"SCALAR"
		}
	],
	"bufferViews":[
		{
			"buffer":0,
			"byteLength":124056,
			"byteOffset":0,
			"target":34962
		},
		{
			"buffer":0,
			"byteLength":124056,
			"byteOffset":124056,
			"target":34962
		},
		{
			"buffer":0,
			"byteLength":82704,
			"byteOffset":248112,
			"target":34962
		},
		{
			"buffer":0,
			"byteLength":116304,
			"byteOffset":330816,
			"target":34963
		},
		{
			"buffer":0,
			"byteLength":49650,
			"byteOffset":447120
		},
		{
			"buffer":0,
			"byteLength":98716,
			"byteOffset":496772
		}
	],
	"samplers":[
		{
			"magFilter":9729,
			"minFilter":9987
		}
	],
	"buffers":[
		{
			"byteLength":595488,
			"uri":"data:application/octet-stream;base64,"
		}
	]
}
