{
	"asset":{
		"generator":"Khronos glTF Blender I/O v3.6.27",
		"version":"2.0"
	},
	"scene":0,
	"scenes":[
		{
			"name":"Scene",
			"nodes":[
				0
			]
		}
	],
	"nodes":[
		{
			"mesh":0,
			"name":"Mirror_002",
			"scale":[
				208.91224670410156,
				208.91224670410156,
				208.91224670410156
			]
		}
	],
	"materials":[
		{
			"doubleSided":true,
			"emissiveFactor":[
				1,
				1,
				1
			],
			"emissiveTexture":{
				"index":0
			},
			"name":"Mirror_002",
			"pbrMetallicRoughness":{
				"baseColorTexture":{
					"index":1
				},
				"metallicRoughnessTexture":{
					"index":2
				}
			}
		}
	],
	"meshes":[
		{
			"name":"Cylinder",
			"primitives":[
				{
					"attributes":{
						"POSITION":0,
						"NORMAL":1,
						"TEXCOORD_0":2
					},
					"indices":3,
					"material":0
				}
			]
		}
	],
	"textures":[
		{
			"sampler":0,
			"source":0
		},
		{
			"sampler":0,
			"source":1
		},
		{
			"sampler":0,
			"source":2
		}
	],
	"images":[
		{
			"bufferView":4,
			"mimeType":"image/png",
			"name":"Mirror_002_Emissive"
		},
		{
			"bufferView":5,
			"mimeType":"image/png",
			"name":"Mirror_002_Base_color"
		},
		{
			"bufferView":6,
			"mimeType":"image/png",
			"name":"Mirror_002_Metallic-Mirror_002_Roughness"
		}
	],
	"accessors":[
		{
			"bufferView":0,
			"componentType":5126,
			"count":3099,
			"max":[
				0.00242779147811234,
				0.0048075029626488686,
				0.00017308704263996333
			],
			"min":[
				-0.0023539827670902014,
				2.5728950276970863e-05,
				-0.00012446478649508208
			],
			"type":"VEC3"
		},
		{
			"bufferView":1,
			"componentType":5126,
			"count":3099,
			"type":"VEC3"
		},
		{
			"bufferView":2,
			"componentType":5126,
			"count":3099,
			"type":"VEC2"
		},
		{
			"bufferView":3,
			"componentType":5123,
			"count":15744,
			"type":"SCALAR"
		}
	],
	"bufferViews":[
		{
			"buffer":0,
			"byteLength":37188,
			"byteOffset":0,
			"target":34962
		},
		{
			"buffer":0,
			"byteLength":37188,
			"byteOffset":37188,
			"target":34962
		},
		{
			"buffer":0,
			"byteLength":24792,
			"byteOffset":74376,
			"target":34962
		},
		{
			"buffer":0,
			"byteLength":31488,
			"byteOffset":99168,
			"target":34963
		},
		{
			"buffer":0,
			"byteLength":26025,
			"byteOffset":130656
		},
		{
			"buffer":0,
			"byteLength":16903,
			"byteOffset":156684
		},
		{
			"buffer":0,
			"byteLength":59571,
			"byteOffset":173588
		}
	],
	"samplers":[
		{
			"magFilter":9729,
			"minFilter":9987
		}
	],
	"buffers":[
		{
			"byteLength":233160,
			"uri":"data:application/octet-stream;base64,"
		}
	]
}
