{
	"asset":{
		"generator":"Khronos glTF Blender I/O v3.6.27",
		"version":"2.0"
	},
	"extensionsUsed":[
		"KHR_materials_specular",
		"KHR_materials_ior"
	],
	"scene":0,
	"scenes":[
		{
			"name":"Scene",
			"nodes":[
				0
			]
		}
	],
	"nodes":[
		{
			"mesh":0,
			"name":"Bathtub_001",
			"rotation":[
				0.7071068286895752,
				0,
				0,
				0.7071068286895752
			],
			"scale":[
				0.009999999776482582,
				0.009999999776482582,
				0.009999999776482582
			],
			"translation":[
				0,
				0.10342288762331009,
				0
			]
		}
	],
	"materials":[
		{
			"doubleSided":true,
			"extensions":{
				"KHR_materials_specular":{
					"specularColorFactor":[
						2.371357614441398,
						2.371357614441398,
						2.371357614441398
					]
				},
				"KHR_materials_ior":{
					"ior":1.4500000476837158
				}
			},
			"name":"Bathtub_001",
			"pbrMetallicRoughness":{
				"baseColorTexture":{
					"index":0
				},
				"metallicRoughnessTexture":{
					"index":1
				}
			}
		}
	],
	"meshes":[
		{
			"name":"Mesh",
			"primitives":[
				{
					"attributes":{
						"POSITION":0,
						"NORMAL":1,
						"TEXCOORD_0":2
					},
					"indices":3,
					"material":0
				}
			]
		}
	],
	"textures":[
		{
			"sampler":0,
			"source":0
		},
		{
			"sampler":0,
			"source":1
		}
	],
	"images":[
		{
			"bufferView":4,
			"mimeType":"image/png",
			"name":"Bathtub_001_Base_color"
		},
		{
			"bufferView":5,
			"mimeType":"image/png",
			"name":"Bathtub_001_Metallic-Bathtub_001_Roughness"
		}
	],
	"accessors":[
		{
			"bufferView":0,
			"componentType":5126,
			"count":46632,
			"max":[
				31.361948013305664,
				14.318432807922363,
				10.69349479675293
			],
			"min":[
				-31.12896728515625,
				-16.82044219970703,
				-22.293781280517578
			],
			"type":"VEC3"
		},
		{
			"bufferView":1,
			"componentType":5126,
			"count":46632,
			"type":"VEC3"
		},
		{
			"bufferView":2,
			"componentType":5126,
			"count":46632,
			"type":"VEC2"
		},
		{
			"bufferView":3,
			"componentType":5123,
			"count":226902,
			"type":"SCALAR"
		}
	],
	"bufferViews":[
		{
			"buffer":0,
			"byteLength":559584,
			"byteOffset":0,
			"target":34962
		},
		{
			"buffer":0,
			"byteLength":559584,
			"byteOffset":559584,
			"target":34962
		},
		{
			"buffer":0,
			"byteLength":373056,
			"byteOffset":1119168,
			"target":34962
		},
		{
			"buffer":0,
			"byteLength":453804,
			"byteOffset":1492224,
			"target":34963
		},
		{
			"buffer":0,
			"byteLength":22823,
			"byteOffset":1946028
		},
		{
			"buffer":0,
			"byteLength":70497,
			"byteOffset":1968852
		}
	],
	"samplers":[
		{
			"magFilter":9729,
			"minFilter":9987
		}
	],
	"buffers":[
		{
			"byteLength":2039352,
			"uri":"data:application/octet-stream;base64,"
		}
	]
}
