{
	"asset":{
		"generator":"Khronos glTF Blender I/O v3.6.27",
		"version":"2.0"
	},
	"extensionsUsed":[
		"KHR_materials_specular",
		"KHR_materials_ior"
	],
	"scene":0,
	"scenes":[
		{
			"name":"Scene",
			"nodes":[
				0
			]
		}
	],
	"nodes":[
		{
			"mesh":0,
			"name":"Sinkwithtaps_001",
			"rotation":[
				0.7071068286895752,
				0,
				0,
				0.7071068286895752
			],
			"scale":[
				0.05368070676922798,
				0.053720563650131226,
				0.05086511746048927
			]
		}
	],
	"materials":[
		{
			"doubleSided":true,
			"extensions":{
				"KHR_materials_specular":{
					"specularColorFactor":[
						2.371357614441398,
						2.371357614441398,
						2.371357614441398
					]
				},
				"KHR_materials_ior":{
					"ior":1.4500000476837158
				}
			},
			"name":"Sinkwithtaps_001",
			"normalTexture":{
				"index":0
			},
			"pbrMetallicRoughness":{
				"baseColorTexture":{
					"index":1
				},
				"metallicRoughnessTexture":{
					"index":2
				}
			}
		}
	],
	"meshes":[
		{
			"name":"Mesh.031",
			"primitives":[
				{
					"attributes":{
						"POSITION":0,
						"NORMAL":1,
						"TEXCOORD_0":2,
						"TEXCOORD_1":3
					},
					"indices":4,
					"material":0
				}
			]
		}
	],
	"textures":[
		{
			"sampler":0,
			"source":0
		},
		{
			"sampler":0,
			"source":1
		},
		{
			"sampler":0,
			"source":2
		}
	],
	"images":[
		{
			"bufferView":5,
			"mimeType":"image/png",
			"name":"Sinkwithtaps_001_Normal"
		},
		{
			"bufferView":6,
			"mimeType":"image/png",
			"name":"Sinkwithtaps_001_Base_color.png"
		},
		{
			"bufferView":7,
			"mimeType":"image/png",
			"name":"Sinkwithtaps_001_Metallic.png-Sinkwithtaps_001_Roughness.png"
		}
	],
	"accessors":[
		{
			"bufferView":0,
			"componentType":5126,
			"count":10128,
			"max":[
				9.118182182312012,
				4.328462600708008,
				0.1280985027551651
			],
			"min":[
				-9.134893417358398,
				-4.348597526550293,
				-14.462201118469238
			],
			"type":"VEC3"
		},
		{
			"bufferView":1,
			"componentType":5126,
			"count":10128,
			"type":"VEC3"
		},
		{
			"bufferView":2,
			"componentType":5126,
			"count":10128,
			"type":"VEC2"
		},
		{
			"bufferView":3,
			"componentType":5126,
			"count":10128,
			"type":"VEC2"
		},
		{
			"bufferView":4,
			"componentType":5123,
			"count":40728,
			"type":"SCALAR"
		}
	],
	"bufferViews":[
		{
			"buffer":0,
			"byteLength":121536,
			"byteOffset":0,
			"target":34962
		},
		{
			"buffer":0,
			"byteLength":121536,
			"byteOffset":121536,
			"target":34962
		},
		{
			"buffer":0,
			"byteLength":81024,
			"byteOffset":243072,
			"target":34962
		},
		{
			"buffer":0,
			"byteLength":81024,
			"byteOffset":324096,
			"target":34962
		},
		{
			"buffer":0,
			"byteLength":81456,
			"byteOffset":405120,
			"target":34963
		},
		{
			"buffer":0,
			"byteLength":29466,
			"byteOffset":486576
		},
		{
			"buffer":0,
			"byteLength":23001,
			"byteOffset":516044
		},
		{
			"buffer":0,
			"byteLength":68797,
			"byteOffset":539048
		}
	],
	"samplers":[
		{
			"magFilter":9729,
			"minFilter":9987
		}
	],
	"buffers":[
		{
			"byteLength":607848,
			"uri":"data:application/octet-stream;base64,"
		}
	]
}
