{
	"asset":{
		"generator":"Khronos glTF Blender I/O v3.6.27",
		"version":"2.0"
	},
	"extensionsUsed":[
		"KHR_materials_specular",
		"KHR_materials_ior"
	],
	"scene":0,
	"scenes":[
		{
			"name":"Scene",
			"nodes":[
				0
			]
		}
	],
	"nodes":[
		{
			"mesh":0,
			"name":"Shelve_005",
			"rotation":[
				0.7071068286895752,
				0,
				0,
				0.7071068286895752
			],
			"scale":[
				0.009999999776482582,
				0.009999999776482582,
				0.009999999776482582
			]
		}
	],
	"materials":[
		{
			"doubleSided":true,
			"extensions":{
				"KHR_materials_specular":{
					"specularColorFactor":[
						2.371357614441398,
						2.371357614441398,
						2.371357614441398
					]
				},
				"KHR_materials_ior":{
					"ior":1.4500000476837158
				}
			},
			"name":"Shelve_005",
			"normalTexture":{
				"index":0
			},
			"pbrMetallicRoughness":{
				"baseColorTexture":{
					"index":1
				},
				"metallicRoughnessTexture":{
					"index":2
				}
			}
		}
	],
	"meshes":[
		{
			"name":"Mesh",
			"primitives":[
				{
					"attributes":{
						"POSITION":0,
						"NORMAL":1,
						"TEXCOORD_0":2
					},
					"indices":3,
					"material":0
				}
			]
		}
	],
	"textures":[
		{
			"sampler":0,
			"source":0
		},
		{
			"sampler":0,
			"source":1
		},
		{
			"sampler":0,
			"source":2
		}
	],
	"images":[
		{
			"bufferView":4,
			"mimeType":"image/png",
			"name":"Shelve_005_Shelve_005_Normal"
		},
		{
			"bufferView":5,
			"mimeType":"image/png",
			"name":"Shelve_005_Shelve_005_BaseColor"
		},
		{
			"bufferView":6,
			"mimeType":"image/png",
			"name":"Shelve_005_Shelve_005_Metallic-Shelve_005_Shelve_005_Roughness"
		}
	],
	"accessors":[
		{
			"bufferView":0,
			"componentType":5126,
			"count":1930,
			"max":[
				73.46694946289062,
				19.21367835998535,
				0.12314044684171677
			],
			"min":[
				-73.46694946289062,
				-19.21367835998535,
				-145.98873901367188
			],
			"type":"VEC3"
		},
		{
			"bufferView":1,
			"componentType":5126,
			"count":1930,
			"type":"VEC3"
		},
		{
			"bufferView":2,
			"componentType":5126,
			"count":1930,
			"type":"VEC2"
		},
		{
			"bufferView":3,
			"componentType":5123,
			"count":6576,
			"type":"SCALAR"
		}
	],
	"bufferViews":[
		{
			"buffer":0,
			"byteLength":23160,
			"byteOffset":0,
			"target":34962
		},
		{
			"buffer":0,
			"byteLength":23160,
			"byteOffset":23160,
			"target":34962
		},
		{
			"buffer":0,
			"byteLength":15440,
			"byteOffset":46320,
			"target":34962
		},
		{
			"buffer":0,
			"byteLength":13152,
			"byteOffset":61760,
			"target":34963
		},
		{
			"buffer":0,
			"byteLength":249580,
			"byteOffset":74912
		},
		{
			"buffer":0,
			"byteLength":2702193,
			"byteOffset":324492
		},
		{
			"buffer":0,
			"byteLength":59572,
			"byteOffset":3026688
		}
	],
	"samplers":[
		{
			"magFilter":9729,
			"minFilter":9987
		}
	],
	"buffers":[
		{
			"byteLength":3086260,
			"uri":"data:application/octet-stream;base64,"
		}
	]
}
