{
	"asset":{
		"generator":"Khronos glTF Blender I/O v3.6.27",
		"version":"2.0"
	},
	"extensionsUsed":[
		"KHR_materials_specular",
		"KHR_materials_ior"
	],
	"scene":0,
	"scenes":[
		{
			"name":"Scene",
			"nodes":[
				0
			]
		}
	],
	"nodes":[
		{
			"mesh":0,
			"name":"Sink_002",
			"scale":[
				0.10093550384044647,
				0.09931960701942444,
				0.09199108183383942
			]
		}
	],
	"materials":[
		{
			"doubleSided":true,
			"extensions":{
				"KHR_materials_specular":{
					"specularColorFactor":[
						2.371357614441398,
						2.371357614441398,
						2.371357614441398
					]
				},
				"KHR_materials_ior":{
					"ior":1.4500000476837158
				}
			},
			"name":"Sink_002",
			"pbrMetallicRoughness":{
				"baseColorTexture":{
					"index":0
				},
				"metallicRoughnessTexture":{
					"index":1
				}
			}
		}
	],
	"meshes":[
		{
			"name":"Mesh.001",
			"primitives":[
				{
					"attributes":{
						"POSITION":0,
						"NORMAL":1,
						"TEXCOORD_0":2
					},
					"indices":3,
					"material":0
				}
			]
		}
	],
	"textures":[
		{
			"sampler":0,
			"source":0
		},
		{
			"sampler":0,
			"source":1
		}
	],
	"images":[
		{
			"bufferView":4,
			"mimeType":"image/png",
			"name":"Sink_002_Base_color"
		},
		{
			"bufferView":5,
			"mimeType":"image/png",
			"name":"Sink_002_Metallic-Sink_002_Roughness"
		}
	],
	"accessors":[
		{
			"bufferView":0,
			"componentType":5126,
			"count":56376,
			"max":[
				2.7245121002197266,
				1.7042725086212158,
				2.174090623855591
			],
			"min":[
				-2.7245121002197266,
				-0.007373448461294174,
				-2.174156904220581
			],
			"type":"VEC3"
		},
		{
			"bufferView":1,
			"componentType":5126,
			"count":56376,
			"type":"VEC3"
		},
		{
			"bufferView":2,
			"componentType":5126,
			"count":56376,
			"type":"VEC2"
		},
		{
			"bufferView":3,
			"componentType":5123,
			"count":327540,
			"type":"SCALAR"
		}
	],
	"bufferViews":[
		{
			"buffer":0,
			"byteLength":676512,
			"byteOffset":0,
			"target":34962
		},
		{
			"buffer":0,
			"byteLength":676512,
			"byteOffset":676512,
			"target":34962
		},
		{
			"buffer":0,
			"byteLength":451008,
			"byteOffset":1353024,
			"target":34962
		},
		{
			"buffer":0,
			"byteLength":655080,
			"byteOffset":1804032,
			"target":34963
		},
		{
			"buffer":0,
			"byteLength":12332,
			"byteOffset":2459112
		},
		{
			"buffer":0,
			"byteLength":59572,
			"byteOffset":2471444
		}
	],
	"samplers":[
		{
			"magFilter":9729,
			"minFilter":9987
		}
	],
	"buffers":[
		{
			"byteLength":2531016,
			"uri":"data:application/octet-stream;base64,"
		}
	]
}
