{
	"asset":{
		"generator":"Khronos glTF Blender I/O v3.6.27",
		"version":"2.0"
	},
	"scene":0,
	"scenes":[
		{
			"name":"Scene",
			"nodes":[
				0
			]
		}
	],
	"nodes":[
		{
			"mesh":0,
			"name":"mirror_007"
		}
	],
	"materials":[
		{
			"doubleSided":true,
			"emissiveFactor":[
				1,
				1,
				1
			],
			"emissiveTexture":{
				"index":0
			},
			"name":"mirror_007",
			"pbrMetallicRoughness":{
				"baseColorTexture":{
					"index":1
				},
				"metallicRoughnessTexture":{
					"index":2
				}
			}
		}
	],
	"meshes":[
		{
			"name":"Cylinder",
			"primitives":[
				{
					"attributes":{
						"POSITION":0,
						"NORMAL":1,
						"TEXCOORD_0":2
					},
					"indices":3,
					"material":0
				}
			]
		}
	],
	"textures":[
		{
			"sampler":0,
			"source":0
		},
		{
			"sampler":0,
			"source":1
		},
		{
			"sampler":0,
			"source":2
		}
	],
	"images":[
		{
			"bufferView":4,
			"mimeType":"image/png",
			"name":"mirror_007_Emissive"
		},
		{
			"bufferView":5,
			"mimeType":"image/png",
			"name":"mirror_007_Base_color"
		},
		{
			"bufferView":6,
			"mimeType":"image/png",
			"name":"mirror_007_Metallic-mirror_007_Roughness"
		}
	],
	"accessors":[
		{
			"bufferView":0,
			"componentType":5126,
			"count":11394,
			"max":[
				0.29800552129745483,
				0.5956643223762512,
				0.006498733069747686
			],
			"min":[
				-0.29800552129745483,
				-0.00034676658106036484,
				-0.002746905665844679
			],
			"type":"VEC3"
		},
		{
			"bufferView":1,
			"componentType":5126,
			"count":11394,
			"type":"VEC3"
		},
		{
			"bufferView":2,
			"componentType":5126,
			"count":11394,
			"type":"VEC2"
		},
		{
			"bufferView":3,
			"componentType":5123,
			"count":67584,
			"type":"SCALAR"
		}
	],
	"bufferViews":[
		{
			"buffer":0,
			"byteLength":136728,
			"byteOffset":0,
			"target":34962
		},
		{
			"buffer":0,
			"byteLength":136728,
			"byteOffset":136728,
			"target":34962
		},
		{
			"buffer":0,
			"byteLength":91152,
			"byteOffset":273456,
			"target":34962
		},
		{
			"buffer":0,
			"byteLength":135168,
			"byteOffset":364608,
			"target":34963
		},
		{
			"buffer":0,
			"byteLength":12332,
			"byteOffset":499776
		},
		{
			"buffer":0,
			"byteLength":18692,
			"byteOffset":512108
		},
		{
			"buffer":0,
			"byteLength":64938,
			"byteOffset":530800
		}
	],
	"samplers":[
		{
			"magFilter":9729,
			"minFilter":9987
		}
	],
	"buffers":[
		{
			"byteLength":595740,
			"uri":"data:application/octet-stream;base64,"
		}
	]
}
