{
    "asset" : {
        "generator" : "Khronos glTF Blender I/O v1.8.19",
        "version" : "2.0"
    },
    "scene" : 0,
    "scenes" : [
        {
            "name" : "Scene",
            "nodes" : [
                0,
                1
            ]
        }
    ],
    "nodes" : [
        {
            "mesh" : 0,
            "name" : "Tv shelf_001"
        },
        {
            "name" : "Empty",
            "rotation" : [
                0.7071068286895752,
                0,
                0,
                0.7071067094802856
            ],
            "scale" : [
                0.56304931640625,
                0.56304931640625,
                0.56304931640625
            ],
            "translation" : [
                0.039054907858371735,
                -0.4117903411388397,
                -0.6833727955818176
            ]
        }
    ],
    "materials" : [
        {
            "doubleSided" : true,
            "name" : "Tv Shelf_001",
            "normalTexture" : {
                "index" : 0
            },
            "pbrMetallicRoughness" : {
                "baseColorTexture" : {
                    "index" : 1
                },
                "metallicRoughnessTexture" : {
                    "index" : 2
                }
            }
        }
    ],
    "meshes" : [
        {
            "name" : "Cube",
            "primitives" : [
                {
                    "attributes" : {
                        "POSITION" : 0,
                        "NORMAL" : 1,
                        "TEXCOORD_0" : 2
                    },
                    "indices" : 3,
                    "material" : 0
                }
            ]
        }
    ],
    "textures" : [
        {
            "sampler" : 0,
            "source" : 0
        },
        {
            "sampler" : 0,
            "source" : 1
        },
        {
            "sampler" : 0,
            "source" : 2
        }
    ],
    "images" : [
        {
            "bufferView" : 4,
            "mimeType" : "image/png",
            "name" : "Tv_shelve001_Tv Shelf_001_Normal"
        },
        {
            "bufferView" : 5,
            "mimeType" : "image/png",
            "name" : "Tv_shelve001_Tv Shelf_001_BaseColor"
        },
        {
            "bufferView" : 6,
            "mimeType" : "image/png",
            "name" : "Tv_shelve001_Tv Shelf_001_Metallic-Tv_shelve001_Tv Shelf_001_Roughness"
        }
    ],
    "accessors" : [
        {
            "bufferView" : 0,
            "componentType" : 5126,
            "count" : 7731,
            "max" : [
                0.9036436676979065,
                0.40369102358818054,
                0.3299811780452728
            ],
            "min" : [
                -0.9036436676979065,
                0.0036473162472248077,
                -0.21203483641147614
            ],
            "type" : "VEC3"
        },
        {
            "bufferView" : 1,
            "componentType" : 5126,
            "count" : 7731,
            "type" : "VEC3"
        },
        {
            "bufferView" : 2,
            "componentType" : 5126,
            "count" : 7731,
            "type" : "VEC2"
        },
        {
            "bufferView" : 3,
            "componentType" : 5123,
            "count" : 37686,
            "type" : "SCALAR"
        }
    ],
    "bufferViews" : [
        {
            "buffer" : 0,
            "byteLength" : 92772,
            "byteOffset" : 0
        },
        {
            "buffer" : 0,
            "byteLength" : 92772,
            "byteOffset" : 92772
        },
        {
            "buffer" : 0,
            "byteLength" : 61848,
            "byteOffset" : 185544
        },
        {
            "buffer" : 0,
            "byteLength" : 75372,
            "byteOffset" : 247392
        },
        {
            "buffer" : 0,
            "byteLength" : 18612,
            "byteOffset" : 322764
        },
        {
            "buffer" : 0,
            "byteLength" : 555309,
            "byteOffset" : 341376
        },
        {
            "buffer" : 0,
            "byteLength" : 110691,
            "byteOffset" : 896688
        }
    ],
    "samplers" : [
        {
            "magFilter" : 9729,
            "minFilter" : 9987
        }
    ],
    "buffers" : [
        {
            "byteLength" : 1007380,
            "uri" : "data:application/octet-stream;base64,"
        }
    ]
}
