{
	"asset":{
		"generator":"Khronos glTF Blender I/O v3.6.27",
		"version":"2.0"
	},
	"extensionsUsed":[
		"KHR_materials_specular",
		"KHR_materials_ior"
	],
	"scene":0,
	"scenes":[
		{
			"name":"Scene",
			"nodes":[
				0
			]
		}
	],
	"nodes":[
		{
			"mesh":0,
			"name":"Lamp_011",
			"rotation":[
				0,
				-0.7071066498756409,
				0,
				0.70710688829422
			],
			"scale":[
				4.314287185668945,
				4.3142876625061035,
				4.314287185668945
			]
		}
	],
	"materials":[
		{
			"doubleSided":true,
			"extensions":{
				"KHR_materials_specular":{
					"specularColorFactor":[
						2.371357614441398,
						2.371357614441398,
						2.371357614441398
					]
				},
				"KHR_materials_ior":{
					"ior":1.4500000476837158
				}
			},
			"name":"Lamp_011",
			"normalTexture":{
				"index":0
			},
			"pbrMetallicRoughness":{
				"baseColorTexture":{
					"index":1
				},
				"metallicRoughnessTexture":{
					"index":2
				}
			}
		}
	],
	"meshes":[
		{
			"name":"Mesh",
			"primitives":[
				{
					"attributes":{
						"POSITION":0,
						"NORMAL":1,
						"TEXCOORD_0":2
					},
					"indices":3,
					"material":0
				}
			]
		}
	],
	"textures":[
		{
			"sampler":0,
			"source":0
		},
		{
			"sampler":0,
			"source":1
		},
		{
			"sampler":0,
			"source":2
		}
	],
	"images":[
		{
			"bufferView":4,
			"mimeType":"image/png",
			"name":"Lamp_011_Normal"
		},
		{
			"bufferView":5,
			"mimeType":"image/png",
			"name":"Lamp_011_Base_color"
		},
		{
			"bufferView":6,
			"mimeType":"image/png",
			"name":"Lamp_011_Metallic-Lamp_011_Roughness"
		}
	],
	"accessors":[
		{
			"bufferView":0,
			"componentType":5126,
			"count":22980,
			"max":[
				0.048975300043821335,
				0.2797732651233673,
				0.022966451942920685
			],
			"min":[
				-0.022963974624872208,
				-7.072391383644572e-08,
				-0.022966451942920685
			],
			"type":"VEC3"
		},
		{
			"bufferView":1,
			"componentType":5126,
			"count":22980,
			"type":"VEC3"
		},
		{
			"bufferView":2,
			"componentType":5126,
			"count":22980,
			"type":"VEC2"
		},
		{
			"bufferView":3,
			"componentType":5123,
			"count":96000,
			"type":"SCALAR"
		}
	],
	"bufferViews":[
		{
			"buffer":0,
			"byteLength":275760,
			"byteOffset":0,
			"target":34962
		},
		{
			"buffer":0,
			"byteLength":275760,
			"byteOffset":275760,
			"target":34962
		},
		{
			"buffer":0,
			"byteLength":183840,
			"byteOffset":551520,
			"target":34962
		},
		{
			"buffer":0,
			"byteLength":192000,
			"byteOffset":735360,
			"target":34963
		},
		{
			"buffer":0,
			"byteLength":29466,
			"byteOffset":927360
		},
		{
			"buffer":0,
			"byteLength":111342,
			"byteOffset":956828
		},
		{
			"buffer":0,
			"byteLength":109319,
			"byteOffset":1068172
		}
	],
	"samplers":[
		{
			"magFilter":9729,
			"minFilter":9987
		}
	],
	"buffers":[
		{
			"byteLength":1177492,
			"uri":"data:application/octet-stream;base64,"
		}
	]
}
