{
	"asset":{
		"generator":"Khronos glTF Blender I/O v3.6.27",
		"version":"2.0"
	},
	"scene":0,
	"scenes":[
		{
			"name":"Scene",
			"nodes":[
				0
			]
		}
	],
	"nodes":[
		{
			"mesh":0,
			"name":"Mirror_001",
			"scale":[
				279.2270812988281,
				229.16355895996094,
				229.16355895996094
			]
		}
	],
	"materials":[
		{
			"doubleSided":true,
			"name":"Mirror_001",
			"pbrMetallicRoughness":{
				"baseColorTexture":{
					"index":0
				},
				"metallicRoughnessTexture":{
					"index":1
				}
			}
		}
	],
	"meshes":[
		{
			"name":"Cylinder",
			"primitives":[
				{
					"attributes":{
						"POSITION":0,
						"NORMAL":1,
						"TEXCOORD_0":2
					},
					"indices":3,
					"material":0
				}
			]
		}
	],
	"textures":[
		{
			"sampler":0,
			"source":0
		},
		{
			"sampler":0,
			"source":1
		}
	],
	"images":[
		{
			"bufferView":4,
			"mimeType":"image/png",
			"name":"Mirror_001_Base_color"
		},
		{
			"bufferView":5,
			"mimeType":"image/png",
			"name":"Mirror_001_Metallic-Mirror_001_Roughness"
		}
	],
	"accessors":[
		{
			"bufferView":0,
			"componentType":5126,
			"count":8471,
			"max":[
				0.0012778928503394127,
				0.00305850338190794,
				4.340711166150868e-05
			],
			"min":[
				-0.0012598796747624874,
				-1.1298308891127817e-05,
				-4.3427069613244385e-05
			],
			"type":"VEC3"
		},
		{
			"bufferView":1,
			"componentType":5126,
			"count":8471,
			"type":"VEC3"
		},
		{
			"bufferView":2,
			"componentType":5126,
			"count":8471,
			"type":"VEC2"
		},
		{
			"bufferView":3,
			"componentType":5123,
			"count":49152,
			"type":"SCALAR"
		}
	],
	"bufferViews":[
		{
			"buffer":0,
			"byteLength":101652,
			"byteOffset":0,
			"target":34962
		},
		{
			"buffer":0,
			"byteLength":101652,
			"byteOffset":101652,
			"target":34962
		},
		{
			"buffer":0,
			"byteLength":67768,
			"byteOffset":203304,
			"target":34962
		},
		{
			"buffer":0,
			"byteLength":98304,
			"byteOffset":271072,
			"target":34963
		},
		{
			"buffer":0,
			"byteLength":27556,
			"byteOffset":369376
		},
		{
			"buffer":0,
			"byteLength":72417,
			"byteOffset":396932
		}
	],
	"samplers":[
		{
			"magFilter":9729,
			"minFilter":9987
		}
	],
	"buffers":[
		{
			"byteLength":469352,
			"uri":"data:application/octet-stream;base64,"
		}
	]
}
