{
	"asset":{
		"generator":"Khronos glTF Blender I/O v3.6.27",
		"version":"2.0"
	},
	"scene":0,
	"scenes":[
		{
			"name":"Scene",
			"nodes":[
				0
			]
		}
	],
	"nodes":[
		{
			"mesh":0,
			"name":"CoffeTable_006"
		}
	],
	"materials":[
		{
			"doubleSided":true,
			"name":"CoffeTable_006",
			"normalTexture":{
				"index":0
			},
			"pbrMetallicRoughness":{
				"baseColorTexture":{
					"index":1
				},
				"metallicRoughnessTexture":{
					"index":2
				}
			}
		}
	],
	"meshes":[
		{
			"name":"Plane.009",
			"primitives":[
				{
					"attributes":{
						"POSITION":0,
						"NORMAL":1,
						"TEXCOORD_0":2
					},
					"indices":3,
					"material":0
				}
			]
		}
	],
	"textures":[
		{
			"sampler":0,
			"source":0
		},
		{
			"sampler":0,
			"source":1
		},
		{
			"sampler":0,
			"source":2
		}
	],
	"images":[
		{
			"bufferView":4,
			"mimeType":"image/png",
			"name":"CoffeTable_006_Normal.png"
		},
		{
			"bufferView":5,
			"mimeType":"image/png",
			"name":"CoffeTable_006_Base_color.png"
		},
		{
			"bufferView":6,
			"mimeType":"image/png",
			"name":"CoffeTable_006_Metallic.png-CoffeTable_006_Roughness.png"
		}
	],
	"accessors":[
		{
			"bufferView":0,
			"componentType":5126,
			"count":2788,
			"max":[
				0.4126523733139038,
				0.48716259002685547,
				0.6378734111785889
			],
			"min":[
				-0.38242921233177185,
				0.009354600682854652,
				-0.683295726776123
			],
			"type":"VEC3"
		},
		{
			"bufferView":1,
			"componentType":5126,
			"count":2788,
			"type":"VEC3"
		},
		{
			"bufferView":2,
			"componentType":5126,
			"count":2788,
			"type":"VEC2"
		},
		{
			"bufferView":3,
			"componentType":5123,
			"count":11568,
			"type":"SCALAR"
		}
	],
	"bufferViews":[
		{
			"buffer":0,
			"byteLength":33456,
			"byteOffset":0,
			"target":34962
		},
		{
			"buffer":0,
			"byteLength":33456,
			"byteOffset":33456,
			"target":34962
		},
		{
			"buffer":0,
			"byteLength":22304,
			"byteOffset":66912,
			"target":34962
		},
		{
			"buffer":0,
			"byteLength":23136,
			"byteOffset":89216,
			"target":34963
		},
		{
			"buffer":0,
			"byteLength":29466,
			"byteOffset":112352
		},
		{
			"buffer":0,
			"byteLength":2638708,
			"byteOffset":141820
		},
		{
			"buffer":0,
			"byteLength":191525,
			"byteOffset":2780528
		}
	],
	"samplers":[
		{
			"magFilter":9729,
			"minFilter":9987
		}
	],
	"buffers":[
		{
			"byteLength":2972056,
			"uri":"data:application/octet-stream;base64,"
		}
	]
}
