{
	"asset":{
		"generator":"Khronos glTF Blender I/O v3.6.27",
		"version":"2.0"
	},
	"scene":0,
	"scenes":[
		{
			"name":"Scene",
			"nodes":[
				0
			]
		}
	],
	"nodes":[
		{
			"mesh":0,
			"name":"Tv_shelf_005"
		}
	],
	"materials":[
		{
			"doubleSided":true,
			"name":"Tv_shelf_005",
			"normalTexture":{
				"index":0
			},
			"pbrMetallicRoughness":{
				"baseColorTexture":{
					"index":1
				},
				"metallicRoughnessTexture":{
					"index":2
				}
			}
		}
	],
	"meshes":[
		{
			"name":"Cube.007",
			"primitives":[
				{
					"attributes":{
						"POSITION":0,
						"NORMAL":1,
						"TEXCOORD_0":2
					},
					"indices":3,
					"material":0
				}
			]
		}
	],
	"textures":[
		{
			"sampler":0,
			"source":0
		},
		{
			"sampler":0,
			"source":1
		},
		{
			"sampler":0,
			"source":2
		}
	],
	"images":[
		{
			"bufferView":4,
			"mimeType":"image/png",
			"name":"Tv_shelf_005_Normal"
		},
		{
			"bufferView":5,
			"mimeType":"image/png",
			"name":"Tv_shelf_005_Base_color"
		},
		{
			"bufferView":6,
			"mimeType":"image/png",
			"name":"Tv_shelf_005_Metallic-Tv_shelf_005_Roughness"
		}
	],
	"accessors":[
		{
			"bufferView":0,
			"componentType":5126,
			"count":12392,
			"max":[
				0.9210467338562012,
				0.5760883092880249,
				0.22058075666427612
			],
			"min":[
				-0.901719331741333,
				0.006529569625854492,
				-0.24120193719863892
			],
			"type":"VEC3"
		},
		{
			"bufferView":1,
			"componentType":5126,
			"count":12392,
			"type":"VEC3"
		},
		{
			"bufferView":2,
			"componentType":5126,
			"count":12392,
			"type":"VEC2"
		},
		{
			"bufferView":3,
			"componentType":5123,
			"count":19350,
			"type":"SCALAR"
		}
	],
	"bufferViews":[
		{
			"buffer":0,
			"byteLength":148704,
			"byteOffset":0,
			"target":34962
		},
		{
			"buffer":0,
			"byteLength":148704,
			"byteOffset":148704,
			"target":34962
		},
		{
			"buffer":0,
			"byteLength":99136,
			"byteOffset":297408,
			"target":34962
		},
		{
			"buffer":0,
			"byteLength":38700,
			"byteOffset":396544,
			"target":34963
		},
		{
			"buffer":0,
			"byteLength":29466,
			"byteOffset":435244
		},
		{
			"buffer":0,
			"byteLength":853124,
			"byteOffset":464712
		},
		{
			"buffer":0,
			"byteLength":1496795,
			"byteOffset":1317836
		}
	],
	"samplers":[
		{
			"magFilter":9729,
			"minFilter":9987
		}
	],
	"buffers":[
		{
			"byteLength":2814632,
			"uri":"data:application/octet-stream;base64,"
		}
	]
}
