{
	"asset":{
		"generator":"Khronos glTF Blender I/O v3.6.27",
		"version":"2.0"
	},
	"scene":0,
	"scenes":[
		{
			"name":"Scene",
			"nodes":[
				0
			]
		}
	],
	"nodes":[
		{
			"mesh":0,
			"name":"Shelve_007",
			"rotation":[
				0.7071068286895752,
				0,
				0,
				0.7071068286895752
			],
			"scale":[
				0.025277618318796158,
				0.025277618318796158,
				0.025277618318796158
			],
			"translation":[
				0,
				-0.0033551454544067383,
				-0.0028344844467937946
			]
		}
	],
	"materials":[
		{
			"doubleSided":true,
			"name":"lambert2",
			"normalTexture":{
				"index":0
			},
			"pbrMetallicRoughness":{
				"baseColorTexture":{
					"index":1
				},
				"metallicRoughnessTexture":{
					"index":2
				}
			}
		}
	],
	"meshes":[
		{
			"name":"Mesh",
			"primitives":[
				{
					"attributes":{
						"POSITION":0,
						"NORMAL":1,
						"TEXCOORD_0":2
					},
					"indices":3,
					"material":0
				}
			]
		}
	],
	"textures":[
		{
			"sampler":0,
			"source":0
		},
		{
			"sampler":0,
			"source":1
		},
		{
			"sampler":0,
			"source":2
		}
	],
	"images":[
		{
			"bufferView":4,
			"mimeType":"image/png",
			"name":"Shelve_007_lambert2_Normal"
		},
		{
			"bufferView":5,
			"mimeType":"image/png",
			"name":"Shelve_007_lambert2_BaseColor"
		},
		{
			"bufferView":6,
			"mimeType":"image/png",
			"name":"Shelve_007_lambert2_Metallic-Shelve_007_lambert2_Roughness"
		}
	],
	"accessors":[
		{
			"bufferView":0,
			"componentType":5126,
			"count":1215,
			"max":[
				7.5,
				5.678000450134277,
				-0.3355140686035156
			],
			"min":[
				-7.5,
				-5.5,
				-79.51351165771484
			],
			"type":"VEC3"
		},
		{
			"bufferView":1,
			"componentType":5126,
			"count":1215,
			"type":"VEC3"
		},
		{
			"bufferView":2,
			"componentType":5126,
			"count":1215,
			"type":"VEC2"
		},
		{
			"bufferView":3,
			"componentType":5123,
			"count":4386,
			"type":"SCALAR"
		}
	],
	"bufferViews":[
		{
			"buffer":0,
			"byteLength":14580,
			"byteOffset":0,
			"target":34962
		},
		{
			"buffer":0,
			"byteLength":14580,
			"byteOffset":14580,
			"target":34962
		},
		{
			"buffer":0,
			"byteLength":9720,
			"byteOffset":29160,
			"target":34962
		},
		{
			"buffer":0,
			"byteLength":8772,
			"byteOffset":38880,
			"target":34963
		},
		{
			"buffer":0,
			"byteLength":202715,
			"byteOffset":47652
		},
		{
			"buffer":0,
			"byteLength":258006,
			"byteOffset":250368
		},
		{
			"buffer":0,
			"byteLength":59572,
			"byteOffset":508376
		}
	],
	"samplers":[
		{
			"magFilter":9729,
			"minFilter":9987
		}
	],
	"buffers":[
		{
			"byteLength":567948,
			"uri":"data:application/octet-stream;base64,"
		}
	]
}
