{
	"asset":{
		"generator":"Khronos glTF Blender I/O v3.6.27",
		"version":"2.0"
	},
	"extensionsUsed":[
		"KHR_materials_specular",
		"KHR_materials_ior"
	],
	"scene":0,
	"scenes":[
		{
			"name":"Scene",
			"nodes":[
				0
			]
		}
	],
	"nodes":[
		{
			"mesh":0,
			"name":"Bathtub_011",
			"rotation":[
				0.7071068286895752,
				0,
				0,
				0.7071068286895752
			],
			"scale":[
				0.018504507839679718,
				0.018504507839679718,
				0.018504507839679718
			]
		}
	],
	"materials":[
		{
			"doubleSided":true,
			"extensions":{
				"KHR_materials_specular":{
					"specularColorFactor":[
						2.371357614441398,
						2.371357614441398,
						2.371357614441398
					]
				},
				"KHR_materials_ior":{
					"ior":1.4500000476837158
				}
			},
			"name":"Bathtub_011",
			"pbrMetallicRoughness":{
				"baseColorTexture":{
					"index":0
				},
				"metallicRoughnessTexture":{
					"index":1
				}
			}
		}
	],
	"meshes":[
		{
			"name":"Mesh",
			"primitives":[
				{
					"attributes":{
						"POSITION":0,
						"NORMAL":1,
						"TEXCOORD_0":2
					},
					"indices":3,
					"material":0
				}
			]
		}
	],
	"textures":[
		{
			"sampler":0,
			"source":0
		},
		{
			"sampler":0,
			"source":1
		}
	],
	"images":[
		{
			"bufferView":4,
			"mimeType":"image/png",
			"name":"Bathtub_011_Base_color"
		},
		{
			"bufferView":5,
			"mimeType":"image/png",
			"name":"Bathtub_011_Metallic-Bathtub_011_Roughness"
		}
	],
	"accessors":[
		{
			"bufferView":0,
			"componentType":5126,
			"count":6283,
			"max":[
				32.85612106323242,
				18.000001907348633,
				-0.18971824645996094
			],
			"min":[
				-32.85612106323242,
				-18.000001907348633,
				-24.330400466918945
			],
			"type":"VEC3"
		},
		{
			"bufferView":1,
			"componentType":5126,
			"count":6283,
			"type":"VEC3"
		},
		{
			"bufferView":2,
			"componentType":5126,
			"count":6283,
			"type":"VEC2"
		},
		{
			"bufferView":3,
			"componentType":5123,
			"count":32874,
			"type":"SCALAR"
		}
	],
	"bufferViews":[
		{
			"buffer":0,
			"byteLength":75396,
			"byteOffset":0,
			"target":34962
		},
		{
			"buffer":0,
			"byteLength":75396,
			"byteOffset":75396,
			"target":34962
		},
		{
			"buffer":0,
			"byteLength":50264,
			"byteOffset":150792,
			"target":34962
		},
		{
			"buffer":0,
			"byteLength":65748,
			"byteOffset":201056,
			"target":34963
		},
		{
			"buffer":0,
			"byteLength":20654,
			"byteOffset":266804
		},
		{
			"buffer":0,
			"byteLength":66436,
			"byteOffset":287460
		}
	],
	"samplers":[
		{
			"magFilter":9729,
			"minFilter":9987
		}
	],
	"buffers":[
		{
			"byteLength":353896,
			"uri":"data:application/octet-stream;base64,"
		}
	]
}
