{
	"asset":{
		"generator":"Khronos glTF Blender I/O v3.6.27",
		"version":"2.0"
	},
	"extensionsUsed":[
		"KHR_materials_specular",
		"KHR_materials_ior"
	],
	"scene":0,
	"scenes":[
		{
			"name":"Scene",
			"nodes":[
				0
			]
		}
	],
	"nodes":[
		{
			"mesh":0,
			"name":"Shower_enclosures_003",
			"rotation":[
				0.5,
				-0.5,
				0.4999999403953552,
				0.5000000596046448
			],
			"scale":[
				0.009999999776482582,
				0.009999999776482582,
				0.009999999776482582
			],
			"translation":[
				0,
				-2.86102294921875e-06,
				0
			]
		}
	],
	"materials":[
		{
			"alphaMode":"BLEND",
			"doubleSided":true,
			"name":"Glass",
			"normalTexture":{
				"index":0
			},
			"pbrMetallicRoughness":{
				"baseColorTexture":{
					"index":1
				},
				"metallicRoughnessTexture":{
					"index":2
				}
			}
		},
		{
			"alphaMode":"BLEND",
			"doubleSided":true,
			"extensions":{
				"KHR_materials_specular":{
					"specularColorFactor":[
						2.371357614441398,
						2.371357614441398,
						2.371357614441398
					]
				},
				"KHR_materials_ior":{
					"ior":1.4500000476837158
				}
			},
			"name":"Shower_enclosures_003",
			"pbrMetallicRoughness":{
				"baseColorTexture":{
					"index":3
				},
				"metallicRoughnessTexture":{
					"index":4
				}
			}
		}
	],
	"meshes":[
		{
			"name":"Mesh.006",
			"primitives":[
				{
					"attributes":{
						"POSITION":0,
						"NORMAL":1,
						"TEXCOORD_0":2
					},
					"indices":3,
					"material":0
				},
				{
					"attributes":{
						"POSITION":4,
						"NORMAL":5,
						"TEXCOORD_0":6
					},
					"indices":7,
					"material":1
				}
			]
		}
	],
	"textures":[
		{
			"sampler":0,
			"source":0
		},
		{
			"sampler":0,
			"source":1
		},
		{
			"sampler":0,
			"source":2
		},
		{
			"sampler":0,
			"source":3
		},
		{
			"sampler":0,
			"source":4
		}
	],
	"images":[
		{
			"bufferView":4,
			"mimeType":"image/png",
			"name":"Glass_Normal"
		},
		{
			"bufferView":5,
			"mimeType":"image/png",
			"name":"Glass_Base_color-Glass_Opacity"
		},
		{
			"bufferView":6,
			"mimeType":"image/png",
			"name":"Glass_Metallic-Glass_Roughness"
		},
		{
			"bufferView":11,
			"mimeType":"image/png",
			"name":"Shower_enclosures_003_Base_color"
		},
		{
			"bufferView":12,
			"mimeType":"image/png",
			"name":"Shower_enclosures_003_Metallic-Shower_enclosures_003_Roughness"
		}
	],
	"accessors":[
		{
			"bufferView":0,
			"componentType":5126,
			"count":96,
			"max":[
				502.19818115234375,
				750,
				1.2821044921875
			],
			"min":[
				-500,
				-750,
				-1958.203369140625
			],
			"type":"VEC3"
		},
		{
			"bufferView":1,
			"componentType":5126,
			"count":96,
			"type":"VEC3"
		},
		{
			"bufferView":2,
			"componentType":5126,
			"count":96,
			"type":"VEC2"
		},
		{
			"bufferView":3,
			"componentType":5123,
			"count":144,
			"type":"SCALAR"
		},
		{
			"bufferView":7,
			"componentType":5126,
			"count":1292,
			"max":[
				526.578857421875,
				750,
				1.2821044921875
			],
			"min":[
				-500,
				-750,
				-1997.08349609375
			],
			"type":"VEC3"
		},
		{
			"bufferView":8,
			"componentType":5126,
			"count":1292,
			"type":"VEC3"
		},
		{
			"bufferView":9,
			"componentType":5126,
			"count":1292,
			"type":"VEC2"
		},
		{
			"bufferView":10,
			"componentType":5123,
			"count":4950,
			"type":"SCALAR"
		}
	],
	"bufferViews":[
		{
			"buffer":0,
			"byteLength":1152,
			"byteOffset":0,
			"target":34962
		},
		{
			"buffer":0,
			"byteLength":1152,
			"byteOffset":1152,
			"target":34962
		},
		{
			"buffer":0,
			"byteLength":768,
			"byteOffset":2304,
			"target":34962
		},
		{
			"buffer":0,
			"byteLength":288,
			"byteOffset":3072,
			"target":34963
		},
		{
			"buffer":0,
			"byteLength":29466,
			"byteOffset":3360
		},
		{
			"buffer":0,
			"byteLength":78296,
			"byteOffset":32828
		},
		{
			"buffer":0,
			"byteLength":59571,
			"byteOffset":111124
		},
		{
			"buffer":0,
			"byteLength":15504,
			"byteOffset":170696,
			"target":34962
		},
		{
			"buffer":0,
			"byteLength":15504,
			"byteOffset":186200,
			"target":34962
		},
		{
			"buffer":0,
			"byteLength":10336,
			"byteOffset":201704,
			"target":34962
		},
		{
			"buffer":0,
			"byteLength":9900,
			"byteOffset":212040,
			"target":34963
		},
		{
			"buffer":0,
			"byteLength":16903,
			"byteOffset":221940
		},
		{
			"buffer":0,
			"byteLength":59573,
			"byteOffset":238844
		}
	],
	"samplers":[
		{
			"magFilter":9729,
			"minFilter":9987
		}
	],
	"buffers":[
		{
			"byteLength":298420,
			"uri":"data:application/octet-stream;base64,"
		}
	]
}
