{
	"asset":{
		"generator":"Khronos glTF Blender I/O v3.6.27",
		"version":"2.0"
	},
	"scene":0,
	"scenes":[
		{
			"name":"Scene",
			"nodes":[
				0
			]
		}
	],
	"nodes":[
		{
			"mesh":0,
			"name":"Sanitary ware _009",
			"scale":[
				4.512463092803955,
				3.2586653232574463,
				3.9406321048736572
			]
		}
	],
	"materials":[
		{
			"doubleSided":true,
			"name":"Sanitary ware _009",
			"normalTexture":{
				"index":0
			},
			"pbrMetallicRoughness":{
				"baseColorTexture":{
					"index":1
				},
				"metallicRoughnessTexture":{
					"index":2
				}
			}
		}
	],
	"meshes":[
		{
			"name":"Cylinder",
			"primitives":[
				{
					"attributes":{
						"POSITION":0,
						"NORMAL":1,
						"TEXCOORD_0":2
					},
					"indices":3,
					"material":0
				}
			]
		}
	],
	"textures":[
		{
			"sampler":0,
			"source":0
		},
		{
			"sampler":0,
			"source":1
		},
		{
			"sampler":0,
			"source":2
		}
	],
	"images":[
		{
			"bufferView":4,
			"mimeType":"image/png",
			"name":"sw_009_sw_009_Normal"
		},
		{
			"bufferView":5,
			"mimeType":"image/png",
			"name":"sw_009_sw_009_BaseColor"
		},
		{
			"bufferView":6,
			"mimeType":"image/png",
			"name":"sw_009_sw_009_Metallic-sw_009_sw_009_Roughness"
		}
	],
	"accessors":[
		{
			"bufferView":0,
			"componentType":5126,
			"count":6192,
			"max":[
				0.05518539622426033,
				0.20726534724235535,
				0.10232216119766235
			],
			"min":[
				-0.055175624787807465,
				0.001659691333770752,
				-0.0854649692773819
			],
			"type":"VEC3"
		},
		{
			"bufferView":1,
			"componentType":5126,
			"count":6192,
			"type":"VEC3"
		},
		{
			"bufferView":2,
			"componentType":5126,
			"count":6192,
			"type":"VEC2"
		},
		{
			"bufferView":3,
			"componentType":5123,
			"count":30444,
			"type":"SCALAR"
		}
	],
	"bufferViews":[
		{
			"buffer":0,
			"byteLength":74304,
			"byteOffset":0,
			"target":34962
		},
		{
			"buffer":0,
			"byteLength":74304,
			"byteOffset":74304,
			"target":34962
		},
		{
			"buffer":0,
			"byteLength":49536,
			"byteOffset":148608,
			"target":34962
		},
		{
			"buffer":0,
			"byteLength":60888,
			"byteOffset":198144,
			"target":34963
		},
		{
			"buffer":0,
			"byteLength":17128,
			"byteOffset":259032
		},
		{
			"buffer":0,
			"byteLength":140357,
			"byteOffset":276160
		},
		{
			"buffer":0,
			"byteLength":59419,
			"byteOffset":416520
		}
	],
	"samplers":[
		{
			"magFilter":9729,
			"minFilter":9987
		}
	],
	"buffers":[
		{
			"byteLength":475940,
			"uri":"data:application/octet-stream;base64,"
		}
	]
}
