{
	"asset":{
		"generator":"Khronos glTF Blender I/O v3.6.27",
		"version":"2.0"
	},
	"scene":0,
	"scenes":[
		{
			"name":"Scene",
			"nodes":[
				0
			]
		}
	],
	"nodes":[
		{
			"mesh":0,
			"name":"mirrior_012"
		}
	],
	"materials":[
		{
			"doubleSided":true,
			"name":"mirrior_012",
			"normalTexture":{
				"index":0
			},
			"pbrMetallicRoughness":{
				"baseColorTexture":{
					"index":1
				},
				"metallicRoughnessTexture":{
					"index":2
				}
			}
		}
	],
	"meshes":[
		{
			"name":"Plane.002",
			"primitives":[
				{
					"attributes":{
						"POSITION":0,
						"NORMAL":1,
						"TEXCOORD_0":2
					},
					"indices":3,
					"material":0
				}
			]
		}
	],
	"textures":[
		{
			"sampler":0,
			"source":0
		},
		{
			"sampler":0,
			"source":1
		},
		{
			"sampler":0,
			"source":2
		}
	],
	"images":[
		{
			"bufferView":4,
			"mimeType":"image/png",
			"name":"mirrior_012_Normal"
		},
		{
			"bufferView":5,
			"mimeType":"image/png",
			"name":"mirrior_012_Base_color"
		},
		{
			"bufferView":6,
			"mimeType":"image/png",
			"name":"mirrior_012_Metallic-mirrior_012_Roughness"
		}
	],
	"accessors":[
		{
			"bufferView":0,
			"componentType":5126,
			"count":1535,
			"max":[
				0.2093432992696762,
				0.7667250633239746,
				0.10587653517723083
			],
			"min":[
				-0.21480631828308105,
				0.006207108497619629,
				-0.11430875211954117
			],
			"type":"VEC3"
		},
		{
			"bufferView":1,
			"componentType":5126,
			"count":1535,
			"type":"VEC3"
		},
		{
			"bufferView":2,
			"componentType":5126,
			"count":1535,
			"type":"VEC2"
		},
		{
			"bufferView":3,
			"componentType":5123,
			"count":5832,
			"type":"SCALAR"
		}
	],
	"bufferViews":[
		{
			"buffer":0,
			"byteLength":18420,
			"byteOffset":0,
			"target":34962
		},
		{
			"buffer":0,
			"byteLength":18420,
			"byteOffset":18420,
			"target":34962
		},
		{
			"buffer":0,
			"byteLength":12280,
			"byteOffset":36840,
			"target":34962
		},
		{
			"buffer":0,
			"byteLength":11664,
			"byteOffset":49120,
			"target":34963
		},
		{
			"buffer":0,
			"byteLength":33672,
			"byteOffset":60784
		},
		{
			"buffer":0,
			"byteLength":17255,
			"byteOffset":94456
		},
		{
			"buffer":0,
			"byteLength":62908,
			"byteOffset":111712
		}
	],
	"samplers":[
		{
			"magFilter":9729,
			"minFilter":9987
		}
	],
	"buffers":[
		{
			"byteLength":174620,
			"uri":"data:application/octet-stream;base64,"
		}
	]
}
