{
	"asset":{
		"generator":"Khronos glTF Blender I/O v3.6.27",
		"version":"2.0"
	},
	"extensionsUsed":[
		"KHR_materials_specular",
		"KHR_materials_ior"
	],
	"scene":0,
	"scenes":[
		{
			"name":"Scene",
			"nodes":[
				0
			]
		}
	],
	"nodes":[
		{
			"mesh":0,
			"name":"Bathtub_007",
			"rotation":[
				0.7071068286895752,
				0,
				0,
				0.7071068286895752
			],
			"scale":[
				0.009999999776482582,
				0.009999999776482582,
				0.009999999776482582
			],
			"translation":[
				0,
				1.1166563034057617,
				2.708630323410034
			]
		}
	],
	"materials":[
		{
			"doubleSided":true,
			"extensions":{
				"KHR_materials_specular":{
					"specularColorFactor":[
						2.371357614441398,
						2.371357614441398,
						2.371357614441398
					]
				},
				"KHR_materials_ior":{
					"ior":1.4500000476837158
				}
			},
			"name":"Bathtub_007",
			"pbrMetallicRoughness":{
				"baseColorTexture":{
					"index":0
				},
				"metallicRoughnessTexture":{
					"index":1
				}
			}
		}
	],
	"meshes":[
		{
			"name":"Mesh",
			"primitives":[
				{
					"attributes":{
						"POSITION":0,
						"NORMAL":1,
						"TEXCOORD_0":2
					},
					"indices":3,
					"material":0
				}
			]
		}
	],
	"textures":[
		{
			"sampler":0,
			"source":0
		},
		{
			"sampler":0,
			"source":1
		}
	],
	"images":[
		{
			"bufferView":4,
			"mimeType":"image/png",
			"name":"Bathtub_007_Base_color"
		},
		{
			"bufferView":5,
			"mimeType":"image/png",
			"name":"Bathtub_007_Metallic-Bathtub_007_Roughness"
		}
	],
	"accessors":[
		{
			"bufferView":0,
			"componentType":5126,
			"count":41639,
			"max":[
				859.4210205078125,
				70.48924255371094,
				108.61099243164062
			],
			"min":[
				-828.535400390625,
				-655.376953125,
				-509.7640075683594
			],
			"type":"VEC3"
		},
		{
			"bufferView":1,
			"componentType":5126,
			"count":41639,
			"type":"VEC3"
		},
		{
			"bufferView":2,
			"componentType":5126,
			"count":41639,
			"type":"VEC2"
		},
		{
			"bufferView":3,
			"componentType":5123,
			"count":237744,
			"type":"SCALAR"
		}
	],
	"bufferViews":[
		{
			"buffer":0,
			"byteLength":499668,
			"byteOffset":0,
			"target":34962
		},
		{
			"buffer":0,
			"byteLength":499668,
			"byteOffset":499668,
			"target":34962
		},
		{
			"buffer":0,
			"byteLength":333112,
			"byteOffset":999336,
			"target":34962
		},
		{
			"buffer":0,
			"byteLength":475488,
			"byteOffset":1332448,
			"target":34963
		},
		{
			"buffer":0,
			"byteLength":16903,
			"byteOffset":1807936
		},
		{
			"buffer":0,
			"byteLength":59572,
			"byteOffset":1824840
		}
	],
	"samplers":[
		{
			"magFilter":9729,
			"minFilter":9987
		}
	],
	"buffers":[
		{
			"byteLength":1884412,
			"uri":"data:application/octet-stream;base64,"
		}
	]
}
