{
	"asset":{
		"generator":"Khronos glTF Blender I/O v3.6.27",
		"version":"2.0"
	},
	"extensionsUsed":[
		"KHR_materials_specular",
		"KHR_materials_ior"
	],
	"scene":0,
	"scenes":[
		{
			"name":"Scene",
			"nodes":[
				0
			]
		}
	],
	"nodes":[
		{
			"mesh":0,
			"name":"Bathtub_008",
			"rotation":[
				0.7071068286895752,
				0,
				0,
				0.7071068286895752
			],
			"scale":[
				0.018475636839866638,
				0.018475636839866638,
				0.018475636839866638
			]
		}
	],
	"materials":[
		{
			"doubleSided":true,
			"extensions":{
				"KHR_materials_specular":{
					"specularColorFactor":[
						2.371357614441398,
						2.371357614441398,
						2.371357614441398
					]
				},
				"KHR_materials_ior":{
					"ior":1.4500000476837158
				}
			},
			"name":"Bathtub_8",
			"pbrMetallicRoughness":{
				"baseColorTexture":{
					"index":0
				},
				"metallicRoughnessTexture":{
					"index":1
				}
			}
		}
	],
	"meshes":[
		{
			"name":"Mesh",
			"primitives":[
				{
					"attributes":{
						"POSITION":0,
						"NORMAL":1,
						"TEXCOORD_0":2
					},
					"indices":3,
					"material":0
				}
			]
		}
	],
	"textures":[
		{
			"sampler":0,
			"source":0
		},
		{
			"sampler":0,
			"source":1
		}
	],
	"images":[
		{
			"bufferView":4,
			"mimeType":"image/png",
			"name":"Bathtub_8_Base_color"
		},
		{
			"bufferView":5,
			"mimeType":"image/png",
			"name":"Bathtub_8_Metallic-Bathtub_8_Roughness"
		}
	],
	"accessors":[
		{
			"bufferView":0,
			"componentType":5126,
			"count":6398,
			"max":[
				32.52186965942383,
				14.161458015441895,
				0
			],
			"min":[
				-32.52190017700195,
				-14.161458015441895,
				-24.34918212890625
			],
			"type":"VEC3"
		},
		{
			"bufferView":1,
			"componentType":5126,
			"count":6398,
			"type":"VEC3"
		},
		{
			"bufferView":2,
			"componentType":5126,
			"count":6398,
			"type":"VEC2"
		},
		{
			"bufferView":3,
			"componentType":5123,
			"count":35568,
			"type":"SCALAR"
		}
	],
	"bufferViews":[
		{
			"buffer":0,
			"byteLength":76776,
			"byteOffset":0,
			"target":34962
		},
		{
			"buffer":0,
			"byteLength":76776,
			"byteOffset":76776,
			"target":34962
		},
		{
			"buffer":0,
			"byteLength":51184,
			"byteOffset":153552,
			"target":34962
		},
		{
			"buffer":0,
			"byteLength":71136,
			"byteOffset":204736,
			"target":34963
		},
		{
			"buffer":0,
			"byteLength":18309,
			"byteOffset":275872
		},
		{
			"buffer":0,
			"byteLength":61391,
			"byteOffset":294184
		}
	],
	"samplers":[
		{
			"magFilter":9729,
			"minFilter":9987
		}
	],
	"buffers":[
		{
			"byteLength":355576,
			"uri":"data:application/octet-stream;base64,"
		}
	]
}
