{
	"asset":{
		"generator":"Khronos glTF Blender I/O v3.6.27",
		"version":"2.0"
	},
	"extensionsUsed":[
		"KHR_materials_specular",
		"KHR_materials_ior"
	],
	"scene":0,
	"scenes":[
		{
			"name":"Scene",
			"nodes":[
				0
			]
		}
	],
	"nodes":[
		{
			"mesh":0,
			"name":"Shelve_003",
			"rotation":[
				0.7071068286895752,
				0,
				0,
				0.7071068286895752
			],
			"scale":[
				0.009999999776482582,
				0.009999999776482582,
				0.009999999776482582
			]
		}
	],
	"materials":[
		{
			"alphaMode":"BLEND",
			"doubleSided":true,
			"extensions":{
				"KHR_materials_specular":{
					"specularColorFactor":[
						2.371357614441398,
						2.371357614441398,
						2.371357614441398
					]
				},
				"KHR_materials_ior":{
					"ior":1.4500000476837158
				}
			},
			"name":"Shelve_003",
			"pbrMetallicRoughness":{
				"baseColorTexture":{
					"index":0
				},
				"metallicRoughnessTexture":{
					"index":1
				}
			}
		}
	],
	"meshes":[
		{
			"name":"Mesh.213",
			"primitives":[
				{
					"attributes":{
						"POSITION":0,
						"NORMAL":1,
						"TEXCOORD_0":2
					},
					"indices":3,
					"material":0
				}
			]
		}
	],
	"textures":[
		{
			"sampler":0,
			"source":0
		},
		{
			"sampler":0,
			"source":1
		}
	],
	"images":[
		{
			"bufferView":4,
			"mimeType":"image/png",
			"name":"Shelves_003_Shelve_003_BaseColor"
		},
		{
			"bufferView":5,
			"mimeType":"image/png",
			"name":"Shelves_003_Shelve_003_Metallic-Shelves_003_Shelve_003_Roughness"
		}
	],
	"accessors":[
		{
			"bufferView":0,
			"componentType":5126,
			"count":19188,
			"max":[
				50.116947174072266,
				18.1735897064209,
				-0.013306066393852234
			],
			"min":[
				-49.92971420288086,
				-18.1735897064209,
				-174.8874053955078
			],
			"type":"VEC3"
		},
		{
			"bufferView":1,
			"componentType":5126,
			"count":19188,
			"type":"VEC3"
		},
		{
			"bufferView":2,
			"componentType":5126,
			"count":19188,
			"type":"VEC2"
		},
		{
			"bufferView":3,
			"componentType":5123,
			"count":66270,
			"type":"SCALAR"
		}
	],
	"bufferViews":[
		{
			"buffer":0,
			"byteLength":230256,
			"byteOffset":0,
			"target":34962
		},
		{
			"buffer":0,
			"byteLength":230256,
			"byteOffset":230256,
			"target":34962
		},
		{
			"buffer":0,
			"byteLength":153504,
			"byteOffset":460512,
			"target":34962
		},
		{
			"buffer":0,
			"byteLength":132540,
			"byteOffset":614016,
			"target":34963
		},
		{
			"buffer":0,
			"byteLength":565263,
			"byteOffset":746556
		},
		{
			"buffer":0,
			"byteLength":1621613,
			"byteOffset":1311820
		}
	],
	"samplers":[
		{
			"magFilter":9729,
			"minFilter":9987
		}
	],
	"buffers":[
		{
			"byteLength":2933436,
			"uri":"data:application/octet-stream;base64,"
		}
	]
}
