{
	"asset":{
		"generator":"Khronos glTF Blender I/O v3.6.27",
		"version":"2.0"
	},
	"scene":0,
	"scenes":[
		{
			"name":"Scene",
			"nodes":[
				0
			]
		}
	],
	"nodes":[
		{
			"mesh":0,
			"name":"Lamp_001"
		}
	],
	"materials":[
		{
			"alphaMode":"BLEND",
			"doubleSided":true,
			"name":"Lamp_001",
			"normalTexture":{
				"index":0
			},
			"pbrMetallicRoughness":{
				"baseColorTexture":{
					"index":1
				},
				"metallicRoughnessTexture":{
					"index":2
				}
			}
		},
		{
			"doubleSided":true,
			"name":"Material",
			"pbrMetallicRoughness":{
				"baseColorTexture":{
					"index":3
				},
				"metallicRoughnessTexture":{
					"index":4
				}
			}
		}
	],
	"meshes":[
		{
			"name":"Mesh.267",
			"primitives":[
				{
					"attributes":{
						"POSITION":0,
						"NORMAL":1,
						"TEXCOORD_0":2,
						"TEXCOORD_1":3
					},
					"indices":4,
					"material":0
				},
				{
					"attributes":{
						"POSITION":5,
						"NORMAL":6,
						"TEXCOORD_0":7,
						"TEXCOORD_1":8
					},
					"indices":9,
					"material":1
				}
			]
		}
	],
	"textures":[
		{
			"sampler":0,
			"source":0
		},
		{
			"sampler":0,
			"source":1
		},
		{
			"sampler":0,
			"source":2
		},
		{
			"sampler":0,
			"source":3
		},
		{
			"sampler":0,
			"source":2
		}
	],
	"images":[
		{
			"bufferView":5,
			"mimeType":"image/png",
			"name":"Lamp_002_Normal"
		},
		{
			"bufferView":6,
			"mimeType":"image/png",
			"name":"Lamp_002_Base_color-Lamp_002_Opacity"
		},
		{
			"bufferView":7,
			"mimeType":"image/png",
			"name":"Lamp_002_Metallic-Lamp_002_Roughness"
		},
		{
			"bufferView":13,
			"mimeType":"image/png",
			"name":"Lamp_002_Base_color"
		}
	],
	"accessors":[
		{
			"bufferView":0,
			"componentType":5126,
			"count":41349,
			"max":[
				0.06977500766515732,
				1.2129650115966797,
				0.0755029246211052
			],
			"min":[
				-0.09474822133779526,
				0.8406710624694824,
				-0.06818075478076935
			],
			"type":"VEC3"
		},
		{
			"bufferView":1,
			"componentType":5126,
			"count":41349,
			"type":"VEC3"
		},
		{
			"bufferView":2,
			"componentType":5126,
			"count":41349,
			"type":"VEC2"
		},
		{
			"bufferView":3,
			"componentType":5126,
			"count":41349,
			"type":"VEC2"
		},
		{
			"bufferView":4,
			"componentType":5123,
			"count":111924,
			"type":"SCALAR"
		},
		{
			"bufferView":8,
			"componentType":5126,
			"count":4813,
			"max":[
				0.09360624849796295,
				1.1733794212341309,
				0.1051764115691185
			],
			"min":[
				-0.11213146895170212,
				-4.2942017898894846e-05,
				-0.10015539824962616
			],
			"type":"VEC3"
		},
		{
			"bufferView":9,
			"componentType":5126,
			"count":4813,
			"type":"VEC3"
		},
		{
			"bufferView":10,
			"componentType":5126,
			"count":4813,
			"type":"VEC2"
		},
		{
			"bufferView":11,
			"componentType":5126,
			"count":4813,
			"type":"VEC2"
		},
		{
			"bufferView":12,
			"componentType":5123,
			"count":22332,
			"type":"SCALAR"
		}
	],
	"bufferViews":[
		{
			"buffer":0,
			"byteLength":496188,
			"byteOffset":0,
			"target":34962
		},
		{
			"buffer":0,
			"byteLength":496188,
			"byteOffset":496188,
			"target":34962
		},
		{
			"buffer":0,
			"byteLength":330792,
			"byteOffset":992376,
			"target":34962
		},
		{
			"buffer":0,
			"byteLength":330792,
			"byteOffset":1323168,
			"target":34962
		},
		{
			"buffer":0,
			"byteLength":223848,
			"byteOffset":1653960,
			"target":34963
		},
		{
			"buffer":0,
			"byteLength":109262,
			"byteOffset":1877808
		},
		{
			"buffer":0,
			"byteLength":145380,
			"byteOffset":1987072
		},
		{
			"buffer":0,
			"byteLength":113189,
			"byteOffset":2132452
		},
		{
			"buffer":0,
			"byteLength":57756,
			"byteOffset":2245644,
			"target":34962
		},
		{
			"buffer":0,
			"byteLength":57756,
			"byteOffset":2303400,
			"target":34962
		},
		{
			"buffer":0,
			"byteLength":38504,
			"byteOffset":2361156,
			"target":34962
		},
		{
			"buffer":0,
			"byteLength":38504,
			"byteOffset":2399660,
			"target":34962
		},
		{
			"buffer":0,
			"byteLength":44664,
			"byteOffset":2438164,
			"target":34963
		},
		{
			"buffer":0,
			"byteLength":63644,
			"byteOffset":2482828
		}
	],
	"samplers":[
		{
			"magFilter":9729,
			"minFilter":9987
		}
	],
	"buffers":[
		{
			"byteLength":2546472,
			"uri":"data:application/octet-stream;base64,"
		}
	]
}
