{
	"asset":{
		"generator":"Khronos glTF Blender I/O v3.6.27",
		"version":"2.0"
	},
	"scene":0,
	"scenes":[
		{
			"name":"Scene",
			"nodes":[
				0
			]
		}
	],
	"nodes":[
		{
			"mesh":0,
			"name":"Mirror_005"
		}
	],
	"materials":[
		{
			"doubleSided":true,
			"name":"Mirror_005",
			"normalTexture":{
				"index":0
			},
			"pbrMetallicRoughness":{
				"baseColorTexture":{
					"index":1
				},
				"metallicRoughnessTexture":{
					"index":2
				}
			}
		}
	],
	"meshes":[
		{
			"name":"Cube.001",
			"primitives":[
				{
					"attributes":{
						"POSITION":0,
						"NORMAL":1,
						"TEXCOORD_0":2
					},
					"indices":3,
					"material":0
				}
			]
		}
	],
	"textures":[
		{
			"sampler":0,
			"source":0
		},
		{
			"sampler":0,
			"source":1
		},
		{
			"sampler":0,
			"source":2
		}
	],
	"images":[
		{
			"bufferView":4,
			"mimeType":"image/png",
			"name":"Mirror_005_Normal"
		},
		{
			"bufferView":5,
			"mimeType":"image/png",
			"name":"Mirror_005_Base_color"
		},
		{
			"bufferView":6,
			"mimeType":"image/png",
			"name":"Mirror_005_Metallic-Mirror_005_Roughness"
		}
	],
	"accessors":[
		{
			"bufferView":0,
			"componentType":5126,
			"count":8548,
			"max":[
				0.24915169179439545,
				1.0836436748504639,
				0.028945770114660263
			],
			"min":[
				-0.24915170669555664,
				-0.0008730300469323993,
				-0.0036119953729212284
			],
			"type":"VEC3"
		},
		{
			"bufferView":1,
			"componentType":5126,
			"count":8548,
			"type":"VEC3"
		},
		{
			"bufferView":2,
			"componentType":5126,
			"count":8548,
			"type":"VEC2"
		},
		{
			"bufferView":3,
			"componentType":5123,
			"count":49056,
			"type":"SCALAR"
		}
	],
	"bufferViews":[
		{
			"buffer":0,
			"byteLength":102576,
			"byteOffset":0,
			"target":34962
		},
		{
			"buffer":0,
			"byteLength":102576,
			"byteOffset":102576,
			"target":34962
		},
		{
			"buffer":0,
			"byteLength":68384,
			"byteOffset":205152,
			"target":34962
		},
		{
			"buffer":0,
			"byteLength":98112,
			"byteOffset":273536,
			"target":34963
		},
		{
			"buffer":0,
			"byteLength":29466,
			"byteOffset":371648
		},
		{
			"buffer":0,
			"byteLength":19454,
			"byteOffset":401116
		},
		{
			"buffer":0,
			"byteLength":65252,
			"byteOffset":420572
		}
	],
	"samplers":[
		{
			"magFilter":9729,
			"minFilter":9987
		}
	],
	"buffers":[
		{
			"byteLength":485824,
			"uri":"data:application/octet-stream;base64,"
		}
	]
}
