{
	"asset":{
		"generator":"Khronos glTF Blender I/O v3.6.27",
		"version":"2.0"
	},
	"extensionsUsed":[
		"KHR_materials_specular",
		"KHR_materials_ior"
	],
	"scene":0,
	"scenes":[
		{
			"name":"Scene",
			"nodes":[
				0
			]
		}
	],
	"nodes":[
		{
			"mesh":0,
			"name":"Shower_enclosures_007",
			"rotation":[
				0.5,
				-0.5,
				0.4999999403953552,
				0.5000000596046448
			],
			"scale":[
				0.009999999776482582,
				0.009999999776482582,
				0.009999999776482582
			],
			"translation":[
				0,
				2.86102294921875e-06,
				0
			]
		}
	],
	"materials":[
		{
			"alphaMode":"BLEND",
			"doubleSided":true,
			"name":"Glass",
			"normalTexture":{
				"index":0
			},
			"pbrMetallicRoughness":{
				"baseColorTexture":{
					"index":1
				},
				"metallicRoughnessTexture":{
					"index":2
				}
			}
		},
		{
			"doubleSided":true,
			"extensions":{
				"KHR_materials_specular":{
					"specularColorFactor":[
						2.371357614441398,
						2.371357614441398,
						2.371357614441398
					]
				},
				"KHR_materials_ior":{
					"ior":1.4500000476837158
				}
			},
			"name":"Shower_enclosures_007",
			"pbrMetallicRoughness":{
				"baseColorTexture":{
					"index":3
				},
				"metallicRoughnessTexture":{
					"index":4
				}
			}
		}
	],
	"meshes":[
		{
			"name":"Mesh.001",
			"primitives":[
				{
					"attributes":{
						"POSITION":0,
						"NORMAL":1,
						"TEXCOORD_0":2
					},
					"indices":3,
					"material":0
				},
				{
					"attributes":{
						"POSITION":4,
						"NORMAL":5,
						"TEXCOORD_0":6
					},
					"indices":7,
					"material":1
				}
			]
		}
	],
	"textures":[
		{
			"sampler":0,
			"source":0
		},
		{
			"sampler":0,
			"source":1
		},
		{
			"sampler":0,
			"source":2
		},
		{
			"sampler":0,
			"source":3
		},
		{
			"sampler":0,
			"source":4
		}
	],
	"images":[
		{
			"bufferView":4,
			"mimeType":"image/png",
			"name":"Glass_Normal"
		},
		{
			"bufferView":5,
			"mimeType":"image/png",
			"name":"Glass_Base_color-Glass_Opacity"
		},
		{
			"bufferView":6,
			"mimeType":"image/png",
			"name":"Glass_Metallic-Glass_Roughness"
		},
		{
			"bufferView":11,
			"mimeType":"image/png",
			"name":"Shower_enclosures_007_Base_color"
		},
		{
			"bufferView":12,
			"mimeType":"image/png",
			"name":"Shower_enclosures_007_Metallic-Shower_enclosures_007_Roughness"
		}
	],
	"accessors":[
		{
			"bufferView":0,
			"componentType":5126,
			"count":128,
			"max":[
				303.4324951171875,
				400,
				-57.114498138427734
			],
			"min":[
				-300,
				-395.95623779296875,
				-1985.2532958984375
			],
			"type":"VEC3"
		},
		{
			"bufferView":1,
			"componentType":5126,
			"count":128,
			"type":"VEC3"
		},
		{
			"bufferView":2,
			"componentType":5126,
			"count":128,
			"type":"VEC2"
		},
		{
			"bufferView":3,
			"componentType":5123,
			"count":384,
			"type":"SCALAR"
		},
		{
			"bufferView":7,
			"componentType":5126,
			"count":6156,
			"max":[
				305.34100341796875,
				400,
				-35.25396728515625
			],
			"min":[
				-300,
				-400,
				-1985.2532958984375
			],
			"type":"VEC3"
		},
		{
			"bufferView":8,
			"componentType":5126,
			"count":6156,
			"type":"VEC3"
		},
		{
			"bufferView":9,
			"componentType":5126,
			"count":6156,
			"type":"VEC2"
		},
		{
			"bufferView":10,
			"componentType":5123,
			"count":25731,
			"type":"SCALAR"
		}
	],
	"bufferViews":[
		{
			"buffer":0,
			"byteLength":1536,
			"byteOffset":0,
			"target":34962
		},
		{
			"buffer":0,
			"byteLength":1536,
			"byteOffset":1536,
			"target":34962
		},
		{
			"buffer":0,
			"byteLength":1024,
			"byteOffset":3072,
			"target":34962
		},
		{
			"buffer":0,
			"byteLength":768,
			"byteOffset":4096,
			"target":34963
		},
		{
			"buffer":0,
			"byteLength":29466,
			"byteOffset":4864
		},
		{
			"buffer":0,
			"byteLength":78296,
			"byteOffset":34332
		},
		{
			"buffer":0,
			"byteLength":59571,
			"byteOffset":112628
		},
		{
			"buffer":0,
			"byteLength":73872,
			"byteOffset":172200,
			"target":34962
		},
		{
			"buffer":0,
			"byteLength":73872,
			"byteOffset":246072,
			"target":34962
		},
		{
			"buffer":0,
			"byteLength":49248,
			"byteOffset":319944,
			"target":34962
		},
		{
			"buffer":0,
			"byteLength":51462,
			"byteOffset":369192,
			"target":34963
		},
		{
			"buffer":0,
			"byteLength":16905,
			"byteOffset":420656
		},
		{
			"buffer":0,
			"byteLength":59573,
			"byteOffset":437564
		}
	],
	"samplers":[
		{
			"magFilter":9729,
			"minFilter":9987
		}
	],
	"buffers":[
		{
			"byteLength":497140,
			"uri":"data:application/octet-stream;base64,"
		}
	]
}
