{
	"asset":{
		"generator":"Khronos glTF Blender I/O v3.6.27",
		"version":"2.0"
	},
	"extensionsUsed":[
		"KHR_materials_specular",
		"KHR_materials_ior"
	],
	"scene":0,
	"scenes":[
		{
			"name":"Scene",
			"nodes":[
				0
			]
		}
	],
	"nodes":[
		{
			"mesh":0,
			"name":"Sinkwithtaps_002"
		}
	],
	"materials":[
		{
			"doubleSided":true,
			"extensions":{
				"KHR_materials_specular":{
					"specularColorFactor":[
						2.371357614441398,
						2.371357614441398,
						2.371357614441398
					]
				},
				"KHR_materials_ior":{
					"ior":1.4500000476837158
				}
			},
			"name":"Sinkwithtaps_002",
			"pbrMetallicRoughness":{
				"baseColorTexture":{
					"index":0
				},
				"metallicRoughnessTexture":{
					"index":1
				}
			}
		}
	],
	"meshes":[
		{
			"name":"Cube.002",
			"primitives":[
				{
					"attributes":{
						"POSITION":0,
						"NORMAL":1,
						"TEXCOORD_0":2,
						"TEXCOORD_1":3
					},
					"indices":4,
					"material":0
				}
			]
		}
	],
	"textures":[
		{
			"sampler":0,
			"source":0
		},
		{
			"sampler":0,
			"source":1
		}
	],
	"images":[
		{
			"bufferView":5,
			"mimeType":"image/png",
			"name":"Sinkwithtaps_002_Base_color"
		},
		{
			"bufferView":6,
			"mimeType":"image/png",
			"name":"Sinkwithtaps_002_Metallic-Sinkwithtaps_002_Roughness"
		}
	],
	"accessors":[
		{
			"bufferView":0,
			"componentType":5126,
			"count":10319,
			"max":[
				0.31999996304512024,
				0.8738352656364441,
				0.20280592143535614
			],
			"min":[
				-0.320000022649765,
				0.0038350820541381836,
				-0.22719402611255646
			],
			"type":"VEC3"
		},
		{
			"bufferView":1,
			"componentType":5126,
			"count":10319,
			"type":"VEC3"
		},
		{
			"bufferView":2,
			"componentType":5126,
			"count":10319,
			"type":"VEC2"
		},
		{
			"bufferView":3,
			"componentType":5126,
			"count":10319,
			"type":"VEC2"
		},
		{
			"bufferView":4,
			"componentType":5123,
			"count":47220,
			"type":"SCALAR"
		}
	],
	"bufferViews":[
		{
			"buffer":0,
			"byteLength":123828,
			"byteOffset":0,
			"target":34962
		},
		{
			"buffer":0,
			"byteLength":123828,
			"byteOffset":123828,
			"target":34962
		},
		{
			"buffer":0,
			"byteLength":82552,
			"byteOffset":247656,
			"target":34962
		},
		{
			"buffer":0,
			"byteLength":82552,
			"byteOffset":330208,
			"target":34962
		},
		{
			"buffer":0,
			"byteLength":94440,
			"byteOffset":412760,
			"target":34963
		},
		{
			"buffer":0,
			"byteLength":118897,
			"byteOffset":507200
		},
		{
			"buffer":0,
			"byteLength":74020,
			"byteOffset":626100
		}
	],
	"samplers":[
		{
			"magFilter":9729,
			"minFilter":9987
		}
	],
	"buffers":[
		{
			"byteLength":700120,
			"uri":"data:application/octet-stream;base64,"
		}
	]
}
