{
	"asset":{
		"generator":"Khronos glTF Blender I/O v3.6.27",
		"version":"2.0"
	},
	"scene":0,
	"scenes":[
		{
			"name":"Scene",
			"nodes":[
				0
			]
		}
	],
	"nodes":[
		{
			"mesh":0,
			"name":"Mirror_009"
		}
	],
	"materials":[
		{
			"doubleSided":true,
			"name":"Mirror_009",
			"pbrMetallicRoughness":{
				"baseColorTexture":{
					"index":0
				},
				"metallicRoughnessTexture":{
					"index":1
				}
			}
		}
	],
	"meshes":[
		{
			"name":"Cylinder",
			"primitives":[
				{
					"attributes":{
						"POSITION":0,
						"NORMAL":1,
						"TEXCOORD_0":2
					},
					"indices":3,
					"material":0
				}
			]
		}
	],
	"textures":[
		{
			"sampler":0,
			"source":0
		},
		{
			"sampler":0,
			"source":1
		}
	],
	"images":[
		{
			"bufferView":4,
			"mimeType":"image/png",
			"name":"Mirror_009_Base_color"
		},
		{
			"bufferView":5,
			"mimeType":"image/png",
			"name":"Mirror_009_Metallic-Mirror_009_Roughness"
		}
	],
	"accessors":[
		{
			"bufferView":0,
			"componentType":5126,
			"count":5354,
			"max":[
				0.40982455015182495,
				0.8124982714653015,
				0.15263748168945312
			],
			"min":[
				-0.40982452034950256,
				-0.001571487169712782,
				-0.010316543281078339
			],
			"type":"VEC3"
		},
		{
			"bufferView":1,
			"componentType":5126,
			"count":5354,
			"type":"VEC3"
		},
		{
			"bufferView":2,
			"componentType":5126,
			"count":5354,
			"type":"VEC2"
		},
		{
			"bufferView":3,
			"componentType":5123,
			"count":18816,
			"type":"SCALAR"
		}
	],
	"bufferViews":[
		{
			"buffer":0,
			"byteLength":64248,
			"byteOffset":0,
			"target":34962
		},
		{
			"buffer":0,
			"byteLength":64248,
			"byteOffset":64248,
			"target":34962
		},
		{
			"buffer":0,
			"byteLength":42832,
			"byteOffset":128496,
			"target":34962
		},
		{
			"buffer":0,
			"byteLength":37632,
			"byteOffset":171328,
			"target":34963
		},
		{
			"buffer":0,
			"byteLength":56008,
			"byteOffset":208960
		},
		{
			"buffer":0,
			"byteLength":133986,
			"byteOffset":264968
		}
	],
	"samplers":[
		{
			"magFilter":9729,
			"minFilter":9987
		}
	],
	"buffers":[
		{
			"byteLength":398956,
			"uri":"data:application/octet-stream;base64,"
		}
	]
}
