{
	"asset":{
		"generator":"Khronos glTF Blender I/O v3.6.27",
		"version":"2.0"
	},
	"scene":0,
	"scenes":[
		{
			"name":"Scene",
			"nodes":[
				0
			]
		}
	],
	"nodes":[
		{
			"mesh":0,
			"name":"Sanitary ware _006",
			"scale":[
				0.1408238410949707,
				0.08268369734287262,
				0.294798880815506
			]
		}
	],
	"materials":[
		{
			"doubleSided":true,
			"name":"Sanitary ware _006",
			"normalTexture":{
				"index":0
			},
			"pbrMetallicRoughness":{
				"baseColorTexture":{
					"index":1
				},
				"metallicRoughnessTexture":{
					"index":2
				}
			}
		}
	],
	"meshes":[
		{
			"name":"Cube.003",
			"primitives":[
				{
					"attributes":{
						"POSITION":0,
						"NORMAL":1,
						"TEXCOORD_0":2
					},
					"indices":3,
					"material":0
				}
			]
		}
	],
	"textures":[
		{
			"sampler":0,
			"source":0
		},
		{
			"sampler":0,
			"source":1
		},
		{
			"sampler":0,
			"source":2
		}
	],
	"images":[
		{
			"bufferView":4,
			"mimeType":"image/png",
			"name":"sw_006_sw_006_Normal"
		},
		{
			"bufferView":5,
			"mimeType":"image/png",
			"name":"sw_006_sw_006_BaseColor"
		},
		{
			"bufferView":6,
			"mimeType":"image/png",
			"name":"sw_006_sw_006_Metallic-sw_006_sw_006_Roughness"
		}
	],
	"accessors":[
		{
			"bufferView":0,
			"componentType":5126,
			"count":3696,
			"max":[
				0.9052059054374695,
				4.0766730308532715,
				1.0712734460830688
			],
			"min":[
				-0.905566930770874,
				0.02508854866027832,
				-0.7604837417602539
			],
			"type":"VEC3"
		},
		{
			"bufferView":1,
			"componentType":5126,
			"count":3696,
			"type":"VEC3"
		},
		{
			"bufferView":2,
			"componentType":5126,
			"count":3696,
			"type":"VEC2"
		},
		{
			"bufferView":3,
			"componentType":5123,
			"count":18600,
			"type":"SCALAR"
		}
	],
	"bufferViews":[
		{
			"buffer":0,
			"byteLength":44352,
			"byteOffset":0,
			"target":34962
		},
		{
			"buffer":0,
			"byteLength":44352,
			"byteOffset":44352,
			"target":34962
		},
		{
			"buffer":0,
			"byteLength":29568,
			"byteOffset":88704,
			"target":34962
		},
		{
			"buffer":0,
			"byteLength":37200,
			"byteOffset":118272,
			"target":34963
		},
		{
			"buffer":0,
			"byteLength":17030,
			"byteOffset":155472
		},
		{
			"buffer":0,
			"byteLength":293001,
			"byteOffset":172504
		},
		{
			"buffer":0,
			"byteLength":59419,
			"byteOffset":465508
		}
	],
	"samplers":[
		{
			"magFilter":9729,
			"minFilter":9987
		}
	],
	"buffers":[
		{
			"byteLength":524928,
			"uri":"data:application/octet-stream;base64,"
		}
	]
}
